<?xml version="1.0" standalone="no"?>
<!DOCTYPE svg PUBLIC "-//W3C//DTD SVG 1.1//EN" "http://www.w3.org/Graphics/SVG/1.1/DTD/svg11.dtd">
<svg xmlns="http://www.w3.org/2000/svg"><metadata>This SVG WebFont was generated by YouWorkForThem.
Copyright (c) ParaType, Inc., 2005. All rights reserved.</metadata><defs><font horiz-adv-x="1024" id="ywftsvg"><font-face ascent="1638" bbox="-788.029 -483.19 2269.02 1798" cap-height="1372" descent="-410" font-family="" font-stretch="normal" font-weight="400" panose-1="2 0 5 4 4 0 0 2 0 4" underline-position="0" underline-thickness="0" unicode-range="U+0020-F6E2" units-per-em="2048" x-height="1114"/><missing-glyph horiz-adv-x="477"/><glyph d="M1124 1401q18 0 29 2l121 4q70 0 80 -59q2 -16 2 -80t-16 -79t-48 -15l-59 4l-90 -2h-27q-61 4 -69 4l-111 -4q-41 0 -50 20t-9 68v77q0 64 53 64l26 -2l44 4h8l88 -4q10 -2 28 -2zM858 741q0 8 6 172v125q0 74 103 74q20 0 47 -2h30l99 -4q96 8 137 8t58 -31t18 -100 l-8 -197l4 -172l-4 -143l-5 -276l5 -52q2 -10 2 -30q0 -119 -119 -119q-10 0 -76 6h-31q-2 0 -190 -6q-20 -2 -50 26t-30 95l4 141q0 4 -4 82v35l10 221q0 39 -2 65l-4 69v13zM291 0q-31 -6 -145 -6q-52 0 -70 29q-18 35 -18 88t5 190l-2 129q8 118 5 232v192l-5 172 q0 109 35 174q8 14 50 60t55 57q41 27 59 34t96 21q57 14 86 14l122 -4h64l35 -4q7 0 17 -4t18 -6q74 -20 84 -68q6 -31 6 -127t-36 -131q-23 -18 -40 -18t-122 20q-4 4 -18 -11t-15 -32q0 -51 66 -51l57 4q68 0 76 -45q4 -4 6 -114q6 -55 6 -84q0 -98 -37 -129 q-20 -20 -33 -21l-106 4q-10 0 -24 -18t-15 -31l4 -186l-6 -174l6 -88q0 -35 -18 -54q-27 -18 -39 -18l-199 4h-10z" glyph-name="uniF001" horiz-adv-x="1421" unicode="fi"/><glyph d="M1323 6q-25 -10 -127 -10t-174 -4h-33q-137 0 -137 131l12 278l-4 187l4 112q2 10 2 30t-6 124v74l4 196l-10 146q0 49 37 82q18 18 49 20h96q39 2 80 2t62 -6h6l28 4l72 4q35 0 55 -24q23 -33 23 -68l-4 -86q-2 -14 -2 -86t8 -154l-10 -176q0 -8 6 -127v-24 q0 -14 -6 -76l6 -113l-4 -131l16 -192q0 -86 -49 -113zM291 0q-31 -6 -145 -6q-52 0 -70 29q-18 35 -18 88t5 190l-2 129q8 118 5 232v192l-5 172q0 109 35 174q8 14 50 60t55 57q41 27 59 34t96 21q57 14 86 14l122 -4h64l35 -4q7 0 17 -4t18 -6q74 -20 84 -68 q6 -31 6 -127t-36 -131q-23 -18 -40 -18t-122 20q-4 4 -18 -11t-15 -32q0 -51 66 -51l57 4q68 0 76 -45q4 -4 6 -114q6 -55 6 -84q0 -98 -37 -129q-20 -20 -33 -21l-106 4q-10 0 -24 -18t-15 -31l4 -186l-6 -174l6 -88q0 -35 -18 -54q-27 -18 -39 -18l-199 4h-10z" glyph-name="uniF002" horiz-adv-x="1437" unicode="fl"/><glyph d="M1085 1624q0 -25 -13 -35q-12 -10 -38 -18q-26 -7 -51 -15t-57 -19t-45 -15l-86 -25q-16 -3 -61 -21t-81 -18l-32 -2l-50 2l-53 -2q-33 0 -33 25q-1 13 31 69t43 71q32 48 70 48h12q115 -6 164 -2l57 2h86l68 2h20q49 -2 49 -47zM621 645q0 -53 45 -53h49q84 0 99 18 t7 52l-12 53q-31 150 -60 179q-11 11 -27 11t-26 -9q-10 -8 -18 -36t-15 -53t-11 -35t-11 -43q-6 -33 -13 -54t-7 -30zM1464 88v-14q0 -75 -92 -78h-16l-25 2h-22l-125 2q-89 0 -117 -2t-49 0q-37 10 -57 57l-17 35q-25 47 -57 60q-11 12 -73 6t-79 -4l-69 4q-50 4 -76 4 t-38 -16q-11 -16 -13 -17l-33 -57q-27 -49 -40 -62t-44 -8h-16l-97 -4h-43l-121 4h-35q-79 0 -108 27t-29 72t18 94t35 121t37 123q19 50 28 82t34 112q30 97 43 174q12 77 39 151l26 76q6 18 28 100t36 130q14 50 50 76q35 26 101 28q66 4 76 1t49 1l93 4l63 -2l35 -2 q33 -2 133 -2l64 2q75 0 115 -30t67 -130l10 -41q8 -31 33 -92t37 -106l20 -82l7 -31q3 -14 5 -19t2 -10q10 -17 23 -55l8 -22q6 -24 26 -118t48 -175l12 -37q12 -37 33 -132t39 -139q18 -43 18 -61z" glyph-name="uniF460" horiz-adv-x="1435" unicode="А`"/><glyph d="M969 1624q1 -25 -13 -35t-40 -18q-26 -7 -50 -15t-56 -19t-46 -15l-86 -25q-16 -3 -61 -21t-80 -18l-33 -2l-49 2l-54 -2q-33 0 -32 25q-1 13 31 69t42 71q32 48 70 48h12q115 -6 164 -2l57 2h86l68 2h21q49 -2 49 -47zM1053 430q39 0 59 -18q39 -35 39 -103v-22l-2 -14 v-27l2 -39q8 -125 -10 -165t-72 -44h-47l-59 6h-31q-29 0 -32 -5t-81 -5l-31 -2l-90 8h-57q-35 -2 -133 -2l-170 2l-162 -8h-10q-92 0 -90 88l2 29q2 16 2 49l6 225l6 98q0 85 -6 143t-4 91t0 53l-8 170l8 123v59l-8 127q-2 66 35 99t104 32l104 -10l160 4l80 -2h39l53 -2 h25l88 -2l88 4h37l104 6q113 0 113 -98l-2 -43v-82l8 -94q0 -98 -82 -96l-61 4h-15l-30 -2h-7q-29 0 -59 4l-27 4q-16 2 -49 -2t-45 -4l-78 4q-59 0 -59 -51q0 -27 18 -40t95 -14h34l56 6h106l94 7q55 0 73 -29t18 -55l4 -113l6 -82q0 -72 -66 -74h-41q-37 0 -79 -5t-89 -3 l-94 2h-20q-10 -1 -38 0q-28 2 -46 -16q-31 -42 8 -68q23 -18 70 -18l206 10h86l33 2h21z" glyph-name="uniF461" horiz-adv-x="1202" unicode="Е`"/><glyph d="M1143 1624q1 -25 -13 -35t-40 -18q-26 -7 -50 -15t-56 -19t-46 -15l-86 -25q-16 -3 -61 -21t-80 -18l-33 -2l-49 2l-54 -2q-33 0 -32 25q-1 13 31 69t42 71q32 48 70 48h12q115 -6 164 -2l58 2h86l67 2h21q49 -2 49 -47zM205 1368h22q43 0 74 -2l27 -2h32l43 6h93 q33 0 57 -12q49 -20 49 -80v-14l-6 -115v-195l-2 -14v-27q0 -41 29 -41q20 0 31 6t41 46q30 42 47 76q16 34 22 41t17 21t19 25q8 10 19 37q13 27 29 54q16 28 32 50t38 57q21 35 28 42q46 46 113 45l104 -6q93 0 149 3t82 0t46 -31t22 -53q5 -91 -7 -137q-13 -46 -11 -97 l8 -174q8 -160 8 -281l-2 -229q0 -102 15 -242l2 -31q0 -42 -22 -68t-60 -26l-162 2l-203 -4q-90 0 -90 68l8 77v52l-2 32q-2 31 -2 115l4 59v37q0 66 -32 66t-56 -30t-44 -61l-25 -40l-27 -36q-20 -28 -30 -41t-26 -39q-17 -27 -35 -49q-19 -22 -37 -54t-28 -48 q-10 -14 -21 -33t-20 -34t-17 -20q-7 -5 -27 -15t-93 -10h-22l-134 6h-39l-32 -4l-37 -2h-4q-25 0 -56 18q-27 23 -28 56v20l8 64l2 43v112l-4 197v22l4 80q6 80 6 86l-8 107v35l-2 51l4 98v43l-12 203q0 61 23 89t35 38q12 12 73 12z" glyph-name="uniF462" horiz-adv-x="1548" unicode="И`"/><glyph d="M1157 1624q0 -25 -13 -35q-12 -10 -38 -18q-26 -7 -51 -15t-57 -19t-46 -15l-86 -25q-19 -5 -63 -22t-78 -17l-33 -2l-49 2l-53 -2q-33 0 -33 25q0 14 38 81t61 87t44 20h13q115 -6 164 -2l57 2h86l67 2h21q49 -2 49 -47zM1034 680q0 60 -28 110t-70 72q-94 49 -147 49 t-87 -18q-36 -17 -40 -21t-28 -12t-45 -27q-19 -18 -41 -69t-22 -92q0 -42 31 -88t43 -60t51 -38t71 -23q32 0 101 6l35 2q39 0 70 31q106 95 106 178zM840 -33q-289 1 -421 63t-212 158q-29 37 -78 95t-57 70t-9 25q-2 14 -23 87q-20 71 -20 141t13 175t23 130q9 25 20 45 q10 20 22 47t25 52q12 25 20 42t22 32t29 27q16 10 78 68t97 76q176 95 401 99q164 0 282 -49q24 -10 76 -33t102 -43q48 -20 68 -34q20 -15 48 -46q125 -152 155 -223q55 -129 55 -256l-10 -107q-2 -20 -3 -62t-9 -67t-30 -73t-46 -114q-25 -67 -51 -92q-26 -26 -102 -80 q-77 -54 -95 -62t-58 -22q-40 -13 -103 -36q-115 -33 -209 -33z" glyph-name="uniF463" horiz-adv-x="1579" unicode="О`"/><glyph d="M1012 1624q0 -25 -14 -35t-38 -18q-26 -7 -51 -15t-57 -19t-45 -15l-86 -25q-16 -3 -61 -21t-80 -18l-33 -2l-49 2l-54 -2q-33 0 -32 25q0 13 32 69t41 71q32 48 70 48h12q115 -6 164 -2l57 2h86l68 2h21q49 -2 49 -47zM1061 1364l161 12q52 0 65 -16t17 -34t2 -37 q0 -18 -16 -72t-20 -61t-6 -24q-2 -16 -8 -30t-9 -22q-2 -8 -7 -19q-5 -12 -45 -139t-76 -209t-40 -96t-27 -99q-23 -86 -65 -179q-43 -93 -52 -117t-28 -52q-19 -27 -22 -33q-2 -6 -11 -15q-8 -10 -15 -18t-11 -11t-12 -11t-16 -13t-19 -13q-72 -54 -203 -64h-47l-76 -4 l-110 2q-104 2 -140 9q-90 18 -90 128q0 25 3 66t1 57l-4 67q-6 100 41 132q12 8 23 8h45l39 -8h16q39 0 39 26l-6 25q0 16 -16 38q-16 23 -32 65q-17 45 -33 81t-24 56q-8 18 -27 54q-20 36 -28 53t-21 50q-17 42 -34 76t-43 105q-27 72 -50 123q-24 51 -28 93v25 q4 23 24 38t103 21h29q23 0 34 -2l54 -6l57 -2l92 4q41 2 75 2t62 -28q16 -11 27 -44q11 -32 21 -56t27 -104t26 -100q8 -31 21 -92q14 -61 20 -64t15 -3t14 7t9 32q5 24 16 63t12 65q0 26 10 56q23 73 41 148q18 76 26 90q7 14 23 22t79 8h11q39 0 57 -4l37 -6h43z" glyph-name="uniF464" horiz-adv-x="1286" unicode="У`"/><glyph d="M1440 1624q0 -25 -14 -35t-38 -18q-26 -7 -51 -15t-57 -19t-45 -15l-86 -25q-16 -3 -61 -21t-80 -18l-33 -2l-49 2l-54 -2q-33 0 -32 25q0 13 32 69t41 71q32 48 70 48h12q115 -6 164 -2l58 2h86l67 2h21q49 -2 49 -47zM2058 1227v-33l-8 -135q-2 -27 4 -97t6 -106 l-10 -170v-176l6 -125v-55l-6 -92q0 -8 5 -53t6 -55t3 -9q2 0 2 -17v-18q-6 -49 -30 -70t-74 -20l-39 2h-33l-26 2h-99l-139 -6q-62 -4 -88 22t-27 61q-1 36 4 85t3 82t-2 57v78q0 6 5 85t0 133t-5 108v274l2 72l-2 65l-7 154q-2 49 25 76t74 26l125 -10q49 0 86 6l39 4 q116 10 158 -24t42 -121zM715 653q-66 0 -84 -26q-6 -10 -10 -31v-66l-5 -59q0 -55 72 -55l47 6h19l39 -2q53 4 83 42t30 74t-24 62q-22 26 -42 34q-20 7 -65 14q-46 7 -60 7zM625 1188q0 -82 8 -100t34 -33q26 -14 68 -11l33 3q80 6 205 -23t164 -51q72 -43 114 -90l62 -72 q49 -57 65 -109t26 -107q10 -56 7 -75l-6 -80q-4 -33 -29 -104l-18 -53l-19 -25l-24 -43q-55 -85 -77 -96q-119 -79 -251 -99q-80 -14 -123 -18l-246 -8l-139 4h-55l-131 8l-94 -6q-55 0 -86 27t-31 79q0 8 4 42t6 53l4 104q2 27 -1 74t-3 65l2 146l-6 170q-2 59 0 117l2 41 v8q0 27 -2 39l-6 77l2 107l-10 147q0 37 22 60t62 22l90 -6h55l57 6l101 -6l71 2q97 0 103 -67v-11l-10 -53v-55z" glyph-name="uniF465" horiz-adv-x="2142" unicode="Ы`"/><glyph d="M319 1481q-1 13 31 69t43 71q32 48 70 48h12q115 -6 164 -2l57 2h86l68 2h20q49 -2 50 -47q0 -25 -14 -35t-38 -18q-26 -7 -51 -15t-57 -19t-45 -15l-86 -25q-16 -3 -61 -21t-81 -18l-32 -2l-49 2l-54 -2q-33 0 -33 25zM106 690l-8 128q0 24 18 36t36 14h34l68 2l141 2 l49 -4h17q88 6 88 43q0 19 -29 43t-76 29l-28 2q-53 2 -107 0l-49 -2q-63 -2 -94 -7t-53 -5q-84 0 -82 78q0 13 3 41t2 38t-1 17l6 41l-2 14v14l-2 39v41q0 23 20 43q37 37 140 37l79 -2l76 2l45 -2h78q225 -8 404 -170q29 -28 79 -108t70 -123q53 -125 53 -326 q0 -47 -16 -145q-29 -177 -117 -285q-66 -74 -102 -104t-176 -88q-35 -15 -119 -31t-172 -16t-117 4l-51 4q-97 0 -128 16t-46 45q0 4 -4 28t-1 53q3 28 3 40l-2 41l2 29q2 10 0 26t-2 23l2 26v39q6 70 63 76h25q6 0 91 -14q241 -40 316 18q45 35 23 64t-119 28h-155l-46 -2 q-88 0 -104 12q-20 7 -20 56z" glyph-name="uniF466" horiz-adv-x="1103" unicode="Э`"/><glyph d="M1470 1624q0 -25 -13 -35t-39 -18q-26 -7 -50 -15t-56 -19t-46 -15l-86 -25q-16 -3 -61 -21t-81 -18l-32 -2l-50 2l-53 -2q-33 0 -33 25q0 13 32 69t42 71q32 48 70 48h12q115 -6 164 -2l57 2h86l68 2h20q49 -2 49 -47zM1561 862q-90 49 -158 49t-129 -41q-12 -8 -28 -16 t-31 -20q-14 -12 -39 -67q-25 -54 -25 -95q1 -42 31 -88t42 -60t52 -38t72 -23q32 0 100 6l35 2q41 0 69 31q105 94 106 165q1 73 -28 123t-69 72zM610 92q0 -94 -90 -96h-20q-37 4 -60 4h-153l-60 -2h-47q-108 0 -106 88l2 84v39l6 59q2 18 -2 68t-4 72v165q0 47 5 77t3 79 l-2 51v144l2 108q0 14 2 21v49l-12 164q0 42 22 68t54 26h36l95 6q57 2 113 0t79 2l53 4q39 2 65 -19t25 -67l-6 -59l2 -49v-93q0 -91 20 -103q5 -3 7 -5q0 -12 10 -12l27 -4q42 -5 82 53q9 14 11 25q1 11 3 20t19 38q16 29 28 52q55 111 176 166t175 60t122 15q66 10 126 9 q60 0 132 -13q73 -13 112 -30q38 -16 91 -39t101 -43t68 -34q20 -15 48 -46q121 -141 156 -223q55 -131 55 -256q0 -47 -8 -131q-11 -113 -64 -226q-53 -132 -79 -158t-101 -80q-76 -54 -94 -62t-50 -18t-64 -22q-132 -51 -308 -51q-70 0 -169 10t-140 27l-74 37 q-100 33 -140 85q-29 38 -48 55q-91 84 -104 189q-2 14 -22 30q-19 15 -46 16h-8q-14 0 -34 -20t-20 -48l4 -151l2 -62l-4 -33v-10z" glyph-name="uniF467" horiz-adv-x="2203" unicode="Ю`"/><glyph d="M635 1669h12q115 -6 164 -2l57 2h86l68 2h20q49 -2 50 -47q0 -25 -14 -35t-38 -18q-26 -7 -51 -15t-57 -19t-45 -15l-86 -25q-16 -3 -61 -21t-81 -18l-32 -2l-49 2l-54 -2q-33 0 -32 25q0 13 32 69t41 71q32 48 70 48zM836 813v59q0 14 -14 34q-23 32 -124 16l-47 -9 q-12 0 -33 -16q-41 -31 -40 -78q0 -70 81 -106q45 -20 117 -21q48 0 55 39v17q5 20 5 65zM51 338q0 94 86 94l64 -4h16l55 4h11l30 10q14 4 17 11l6 16q0 13 -25 31l-35 18q-98 57 -116 94l-41 74q-49 88 -49 192t36 162q12 19 45 84q50 99 91 115q47 38 70 48q24 9 41 19 q100 62 282 62h76l94 8l135 -10q90 0 124 5t42 3l33 -2q122 0 154 -12t42 -23q37 -37 37 -104l-4 -86v-74l-6 -106q-4 -37 -4 -41v-45l-2 -183q-2 -72 8 -268v-29q2 -31 0 -30l-6 -90q0 -111 6 -160l4 -35q4 -37 -22 -63t-70 -25h-25l-55 6h-8q-33 0 -66 -5t-53 -3l-104 4 l-70 -4h-8q-66 0 -74 67v15l8 35l4 28q4 29 4 43q0 49 -47 49q-35 0 -120 -73q-144 -104 -204 -132t-171 -28h-146q-88 0 -90 96q0 37 6 46t2 53l-4 49q0 17 -4 57v37z" glyph-name="uniF468" horiz-adv-x="1445" unicode="Я`"/><glyph d="M870 1444l68 2h20q49 -2 50 -47q0 -25 -14 -35t-38 -18q-26 -8 -51 -16q-25 -6 -57 -18t-45 -16l-86 -24q-2 0 -64 -22t-98 -21l-61 4l-54 -2q-33 0 -32 24q0 24 73 141q31 46 70 48h12q115 -6 164 -2l57 2h86zM645 311q37 -1 59 21t21 50q1 28 -23 43t-47 15l-75 4 q-38 4 -62 -22t-24 -51q0 -64 67 -66l45 6h39zM791 43v12q-1 9 -7 17t-19 -1t-21 -13t-37 -21l-19 -10q-85 -47 -188 -47t-118 5t-30 11t-81 25q-66 20 -85 32q-159 129 -159 301q0 64 39 148q37 84 85 128t97 54l55 14q41 10 64 22t107 11q100 0 160 -12t86 -12q26 1 26 27 q-1 37 -74 69q-16 6 -74 8l-80 4q-58 0 -117 -10l-82 -14q-20 -5 -35 -9t-38 -4t-39 14q-17 14 -23 29q-6 14 -6 88v39l-2 25v12l-2 39q0 41 29 57q29 15 87 23t210 16l43 2q6 0 23 2t40 -1t45 -3l51 -2h50q40 0 112 -9t110 -25t98 -61t80 -69t46 -88t23 -139l-7 -119 q-2 -35 1 -85t4 -97v-78l-11 -178l11 -84q0 -51 -29 -74q-25 -16 -53 -16l-58 4h-94q-51 0 -100 -4l-56 -4q-38 0 -38 51z" glyph-name="uniF46A" horiz-adv-x="1277" unicode="а`"/><glyph d="M981 1399q0 -25 -15 -36t-63 -26q-49 -13 -81 -25t-46 -16l-86 -24q-2 0 -64 -22t-98 -21l-61 4l-53 -2q-33 0 -33 24q-1 13 31 69t42 72q32 47 70 48h13q115 -6 163 -2l58 2h86l67 2h21q49 -2 49 -47zM610 805q-129 1 -129 -45q0 -50 51 -51l70 2l66 4l32 -4h17 q17 0 35 11q18 12 18 28t-26 36t-91 23h-6l-14 -2h-4zM1200 688q0 -24 6 -61l6 -49q4 -25 -5 -59q-19 -73 -87 -73l-92 -2l-147 -8h-19q-53 0 -80 4t-39 4l-36 -4h-58l-76 2q-66 2 -65 -41q0 -19 35 -41t94 -22h65l99 -8h133q51 0 92 10l45 10q41 10 61 -12t19 -40 q0 -18 -4 -53q-4 -34 -2 -61l6 -78q6 -74 -31 -92q-47 -27 -153 -32l-72 -5l-158 -8q-47 0 -129 15l-39 6q-98 16 -148 34t-124 56q-133 72 -225 244q-57 106 -58 237q0 37 12 86q16 67 26 117q11 51 38 92q26 41 74 99q48 59 76 74t58 25t51 23q21 12 45 21q24 8 34 10 t21 6l22 6q51 14 131 14t277 -44q49 -10 151 -86q31 -23 81 -82q49 -59 69 -135q20 -75 20 -99z" glyph-name="uniF46B" horiz-adv-x="1226" unicode="е`"/><glyph d="M1028 1399q0 -25 -13 -35t-39 -18t-50 -16q-25 -6 -57 -18t-46 -16l-86 -24q-2 0 -64 -22t-98 -21l-61 4l-53 -2q-33 0 -33 24q0 13 32 69t42 72q32 47 69 48h13q115 -6 164 -2l57 2h86l67 2h21q49 -2 49 -47zM479 1114q96 0 88 -131l-6 -139q0 -63 12 -78q22 -22 37 -10 t30 34q14 22 38 52t55 94l25 49q23 43 63 92q31 35 80 35l60 -6l104 4h47l29 2h6q98 0 98 -70v-22l-2 -29v-16l8 -236l-4 -80q-3 -126 3 -192q7 -65 7 -82v-12l-6 -117l6 -141q-1 -61 -25 -90t-50 -31h-25q-92 6 -170 6h-33l-75 -6q-59 0 -93 34t-26 85l6 49q2 18 -2 62 t-4 84t-35 40t-109 -133q-8 -12 -34 -72l-29 -59q-20 -47 -47 -68t-74 -20l-29 2h-22l-25 2h-71l-121 -4q-101 0 -101 119l7 141l-7 117v12q0 16 7 81t4 193l-4 80l8 236v16l-2 29v22q0 70 98 70h6l29 -2q19 -2 27 -1t20 1l96 -4l117 8h10z" glyph-name="uniF46C" horiz-adv-x="1320" unicode="и`"/><glyph d="M911 1444l68 2h20q49 -2 50 -47q1 -25 -13 -35t-40 -18t-50 -16q-24 -6 -56 -18t-46 -16l-86 -24q-2 0 -64 -22t-98 -21l-61 4l-54 -2q-33 0 -32 24q0 24 73 141q31 46 70 48h12q115 -6 164 -2l57 2h86zM862 545q0 51 -48 93t-101 44l-31 -2l-47 2q-1 0 -23 -6t-39 -21 q-66 -51 -65 -106q0 -35 17 -62t35 -35q90 -36 120 -36l31 6l32 4q39 8 60 21q19 13 39 45t20 53zM28 456q-14 42 -14 89t9 82q37 154 75 211q98 147 181 190q94 54 140 68q47 14 131 26t147 12t120 -12q57 -14 79 -19t36 -5q34 0 72 -25q115 -68 157 -115l76 -84 q30 -33 34 -56q7 -35 25 -57q17 -21 33 -90q33 -142 4 -231l-16 -55q-25 -83 -53 -121t-45 -67q-18 -29 -31 -41q-4 -8 -6 -10t-105 -76l-67 -50q-8 -6 -95 -28t-147 -23l-57 -2l-56 2q-88 0 -100 2l-51 9q-68 10 -150 50t-98 54l-88 88q-85 82 -119 179q-6 17 -6 40 q-1 23 -15 65z" glyph-name="uniF46D" horiz-adv-x="1359" unicode="о`"/><glyph d="M907 1399q0 -25 -13 -35q-12 -10 -38 -18t-51 -16q-25 -6 -57 -18t-46 -16l-86 -24q-2 0 -64 -22t-97 -21l-62 4l-53 -2q-33 0 -33 24q-1 13 31 69t42 72q32 47 71 48h12q115 -6 164 -2l57 2h86l68 2h20q49 -2 49 -47zM554 662q11 0 14 5t8 52t16 82l20 78q4 16 15 45 q13 38 15 50q1 11 3 17l8 45q0 33 13 46q26 28 90 28h10l86 -8h41l129 10q46 0 72 -26t26 -44t-12 -61l-12 -43q-10 -20 -29 -94t-29 -109l-43 -133l-57 -139q-45 -112 -45 -116q0 -5 -3 -12t-9 -34t-11 -41l-49 -147q-29 -89 -55 -129q-92 -146 -268 -154h-31q-14 0 -49 2 t-51 0l-93 -4q-74 0 -124 10q-78 16 -78 111q0 10 3 53t1 61l-4 64q-6 91 46 125q18 12 27 12h9q31 -2 45 -10t32 -8q27 0 27 26v4q-2 25 -17 56t-49 119t-55 126q-23 39 -37 77t-38 94t-33 86q-8 29 -38 94t-30 100q0 79 119 86h26l82 -8l54 -2l131 6q35 0 52 -20t41 -83 q24 -62 23 -85l19 -66q14 -43 17 -76t10 -49l8 -45q0 -24 11 -24z" glyph-name="uniF46E" horiz-adv-x="1079" unicode="у`"/><glyph d="M1317 1399q0 -25 -13 -35t-39 -18t-51 -16q-24 -6 -56 -18t-46 -16l-86 -24q-2 0 -64 -22t-98 -21l-61 4l-53 -2q-33 0 -33 24q-1 13 31 69t42 72q32 47 70 48h12q115 -6 164 -2l58 2h86l67 2h21q49 -2 49 -47zM1735 1114h10q96 0 88 -131l-8 -233l4 -148v-20l-6 -111 v-127l-2 -135v-27l6 -69q4 -55 -28 -87t-91 -32l-76 6h-33q-78 0 -169 -6h-25q-27 2 -51 31t-25 90l6 141l-6 117v12q0 16 7 82t3 192l-4 80l8 236v16l-2 29v22q0 70 99 70h6l29 -2h188q49 4 72 4zM651 360h17q49 0 80 31q2 1 9 5t7 18v30q0 14 -25 54q-20 37 -82 37h-26 q-61 0 -77 -29t-17 -61q0 -32 16 -55q17 -22 31 -26t67 -4zM80 304q0 34 -4 58v80l-10 197q0 11 2 73t-2 112t-1 84t3 67v16l-2 29v22q0 70 98 70h6l29 -2q20 -2 27 -1t20 1l96 -4l117 8h10q47 0 72 -33q18 -29 18 -110t16 -87q6 -3 28 -3t52 6q99 16 237 -16 q254 -59 325 -261q35 -100 35 -191t-47 -217q-46 -126 -201 -171q-96 -29 -123 -33t-121 -4h-125l-74 2h-26l-160 4h-74l-127 -4q-55 0 -88 33q-20 27 -20 61l8 82l2 53q4 45 4 79z" glyph-name="uniF46F" horiz-adv-x="1896" unicode="ы`"/><glyph d="M741 1444l68 2h20q49 -2 50 -47q1 -25 -13 -35t-40 -18t-50 -16q-24 -6 -56 -18t-46 -16l-86 -24q-2 0 -64 -22t-98 -21l-61 4l-54 -2q-33 0 -32 24q0 24 73 141q31 46 70 48h12q115 -6 164 -2l57 2h86zM133 528v93q0 53 9 71t40 19l60 -2h127q122 0 120 30q0 35 -40 53 t-91 19q-51 0 -98 -6t-53 -6l-37 2l-72 -19q-31 0 -47 12t-19 21q-3 10 -5 29v45q4 41 4 61v76l2 28q0 34 35 54q37 20 137 27q10 2 27 0q16 -2 60 -3t72 3t95 4t187 -37t179 -101q55 -66 67 -87t32 -50q64 -100 63 -176q0 -8 4 -26l6 -27q17 -106 -7 -224 q-24 -117 -34 -139t-42 -62t-40 -54t-28 -27q-21 -14 -26 -22q-5 -7 -10 -13q-6 -6 -22 -24t-68 -39q-52 -20 -85 -25q-34 -5 -67 -20q-50 -22 -300 -9l-57 5q-107 6 -149 28t-35 96l6 78q2 33 -2 68q-4 34 -4 48t14 32q27 27 65 18l46 -10q14 -2 30 -2l126 -16q11 0 85 8 t91 22q18 14 18 39t-22 36t-122 9l-120 -2q-74 0 -90 16t-15 78z" glyph-name="uniF470" horiz-adv-x="1021" unicode="э`"/><glyph d="M1341 1399q0 -25 -13 -35q-12 -10 -38 -18t-51 -16q-25 -6 -57 -18t-45 -16l-86 -24q-2 0 -64 -22t-98 -21l-62 4l-53 -2q-33 0 -33 24q-1 13 31 69t42 72q32 47 71 48h12q115 -6 164 -2l57 2h86l68 2h20q49 -2 49 -47zM1434 550q0 67 -80 113q-60 33 -140 17 q-23 -8 -38 -25q-56 -51 -56 -113t49 -89q9 -5 51 -21t52 -16l31 6l32 4q41 10 70 46t29 78zM479 1114q96 0 88 -131l-6 -129q-1 -60 19 -72t31 -12t19 1q31 4 43 27q13 23 16 28t16 41q26 78 111 146t144 83q58 16 80 20t68 6q47 2 90 7q160 19 277 -17q12 -6 34 -8t34 -6 q13 -4 44 -20t55 -28t37 -20q42 -25 90 -88l41 -55q18 -25 32 -55t26 -57q22 -47 24 -69q3 -22 14 -62t11 -91t-12 -113l-17 -55q-4 -12 -11 -41t-46 -106q-47 -102 -186 -189l-48 -29q-43 -28 -101 -32t-91 -12t-80 -9l-78 2q-88 0 -100 2l-51 9q-102 14 -174 38 q-112 43 -199 182l-25 40q-10 18 -12 34t-6 31q-14 41 -62 41q-20 2 -33 -7t-17 -9q-5 0 -5 -7l-4 -15l-2 -29q0 -9 -2 -37t0 -60l6 -69q4 -55 -28 -87t-91 -32l-75 6h-33q-78 0 -170 -6h-25q-27 2 -51 31t-25 90l7 141l-7 117v12q0 16 7 81t4 193l-4 80l8 236v16l-2 29v22 q0 70 98 70h6l29 -2q19 -2 27 -1t20 1l96 -4l117 8h10z" glyph-name="uniF471" horiz-adv-x="1945" unicode="ю`"/><glyph d="M1030 1399q0 -25 -13 -35t-39 -18t-50 -16q-25 -6 -57 -18t-46 -16l-86 -24q-2 0 -64 -22t-97 -21l-62 4l-53 -2q-33 0 -33 24q0 13 32 69t42 72q32 47 69 48h13q115 -6 164 -2l57 2h86l68 2h20q49 -2 49 -47zM752 670v49q0 17 -16 31t-52 14l-18 -2h-20q-13 0 -21 -2 l-50 -8q-13 0 -37 -19t-24 -57t30 -69q30 -32 150 -36q44 0 54 33v12q4 22 4 54zM1262 1006q0 -20 -5 -70v-59l-10 -121v-37l-2 -150q0 -105 4 -153t4 -66v-24q0 -20 -4 -66l-2 -39q0 -80 6 -123l4 -28q2 -28 -19 -50t-69 -22h-22l-21 2q-29 4 -38 4t-53 -5t-62 -3l-99 4 l-65 -4h-8q-25 0 -47 13t-23 42v12l6 29l2 14l4 46q0 39 -36 38q-38 0 -74 -36q-45 -38 -69 -50t-72 -53q-28 -18 -62 -26t-76 -21q-42 -12 -154 -12t-149 31q-20 16 -20 51t6 47t2 39l-4 39q-2 6 -2 16v14l-2 17v30q4 46 24 62t58 16l34 -4h25l23 -4q79 0 79 37 q0 14 -28 29l-25 10q-43 16 -75 44t-37 34l-39 59q-28 42 -39 137v39q7 104 75 201q23 33 83 82q108 89 331 98h113q61 6 76 6l176 -8l123 8l32 -2q158 -10 190 -30t32 -84z" glyph-name="uniF472" horiz-adv-x="1325" unicode="я`"/><glyph glyph-name=".notdef" horiz-adv-x="477"/><glyph glyph-name="glyph1" horiz-adv-x="0"/><glyph glyph-name="glyph2" horiz-adv-x="681"/><glyph glyph-name="space" horiz-adv-x="477" unicode=" "/><glyph glyph-name="space" horiz-adv-x="477" unicode=" "/><glyph d="M324 283h182l78 4q43 -4 43 -62l-2 -47l4 -96q0 -53 -33 -74q-27 -12 -43 -12l-117 2l-35 -4q-4 0 -8 2l-38 4h-7l-119 -2q-33 0 -63 16t-31 52l2 53l-4 78q0 39 12 61t48 33q16 0 131 -8zM205 350q-37 0 -55 35q-12 20 -13 49l-4 96q-4 76 -22 205l-19 281l-20 184 q0 102 71 152q5 4 13 8t19 10t46 6l146 -6h112q17 2 69 2t82 -34t46 -70t16 -136q0 -101 -41 -249q-10 -45 -10 -152l-2 -61l2 -39l-8 -113q-4 -36 -4 -66l-2 -34q0 -12 -13 -33q-18 -39 -94 -39q-8 0 -61 4l-60 2l-16 2h-133l-25 -2l-14 -2h-6z" glyph-name="exclam" horiz-adv-x="765" unicode="!"/><glyph d="M582 1366h184q127 0 146 -7t12 -42l-4 -66q0 -55 -7 -65l-18 -66l-4 -63l-14 -66v-65q-19 -92 -27 -100t-55 -9l-78 -4q-111 4 -127 8q-16 3 -16 13q-1 10 -3 23t-6 52t-10 83t-8 79t-25 115l-6 65q-6 72 -6 86q0 13 10 21t62 8zM102 1366h185q127 0 143 -6t16 -20 t-2 -23l-4 -66q0 -59 -6 -65l-18 -66l-4 -63l-15 -66v-65q-20 -94 -27 -102t-55 -7l-77 -4q-106 2 -117 6q-23 6 -26 26t-9 81q-14 88 -18 137t-25 123l-4 65q-6 72 -6 86q0 13 9 21t60 8z" glyph-name="quotedbl" horiz-adv-x="958" unicode="&quot;"/><glyph d="M713 745q0 33 -43 35q-14 2 -68 2t-72 -10q-16 -12 -22 -70t-6 -75q0 -41 53 -41l59 2q56 0 68 7t18 64l7 31q6 43 6 55zM736 53q-62 1 -82 21t-21 71q0 51 8 99t8 65q0 29 -59 27h-51q-8 2 -37 2t-40 -11t-21 -97t-33 -136q-18 -33 -58 -39q-10 -2 -72 -2q-62 1 -84 21 q-20 20 -20 72t19 167q0 18 -19 23q-20 0 -72 5t-63 9q-12 10 -12 47t10 90t22 70q27 35 127 33q31 0 39 7q9 7 15 49t10 46q6 40 6 60t-16 26q-2 2 -66 7t-75 13t-11 36q0 156 57 186q31 14 127 18q31 2 33 21q2 3 10 85t17 101q12 39 53 55q35 10 97 10t89 -22 q34 -23 4 -162q-10 -55 -10 -61q0 -35 53 -31q25 0 60 -2h20q47 0 56 12q8 6 18 80q8 98 16 121q18 49 56 57t100 9q102 0 103 -72q1 -39 -11 -105t-12 -80q0 -16 10 -18t67 -4t87 -14t31 -66q0 -54 -27 -133q-14 -37 -64 -43h-71q-61 -4 -67 -10t-14 -55q-9 -49 -12 -69 q-2 -20 -4 -30q-2 -8 -2 -10q0 -14 25 -14h49q123 0 123 -68q0 -57 -18 -124t-103 -66l-84 4q-20 0 -30 -11t-20 -93t-34 -136q-18 -33 -57 -39q-11 -2 -73 -2z" glyph-name="numbersign" horiz-adv-x="1245" unicode="#"/><glyph d="M401 1417v64q0 41 41 41l88 -4h39q15 -2 33 -2t34 2t28 -10t12 -15l-4 -94q0 -9 74 -13q131 -8 172 -59q20 -27 20 -80v-170q0 -72 -25 -96q-45 -41 -92 -41q-10 0 -88 25l-53 4q-68 12 -90 12t-35 -11q-12 -12 -12 -22t13 -22t26 -17l127 -43l61 -37q82 -41 96 -55 q52 -38 115 -100l16 -24t19 -25l14 -39q45 -88 45 -172q0 -14 -7 -86t-15 -92q-46 -100 -144 -160q-98 -61 -121 -70q-63 -18 -79 -18q-41 -2 -41 -49q0 -8 2 -15l4 -67q0 -25 -25 -25h-12q-75 0 -105 4l-61 4l-65 -4q-16 0 -17 35l4 80q0 23 -11 32t-48 9t-88 8h-45 q-139 12 -148 70q0 4 -4 123l2 20l-4 127q0 57 37 86q20 20 41 20t129 -24l27 -2l53 -14l45 -7l31 -8q58 -5 77 -10h11q18 0 34 16q10 14 11 25q0 29 -74 49q-18 6 -90 39t-78 37l-57 41q-78 47 -121 104q-41 45 -55 80q-39 80 -45 143l-5 91q0 45 33 112q25 63 41 90 q55 72 125 115q57 39 113 46t64 21q7 14 7 27z" glyph-name="dollar" horiz-adv-x="1091" unicode="$"/><glyph d="M1225 426q-29 0 -40 -34t-11 -56q0 -88 57 -88q27 0 41 28t14 56q0 29 -16 65q-16 29 -45 29zM909 322v32q2 96 33 154q49 84 82 114t90 54q114 41 209 6q57 -20 84 -41q71 -61 93 -110q46 -104 46 -202t-49 -192t-145 -131q-53 -16 -76 -20l-45 -4q-39 0 -95 17t-89 42 t-67 70t-39 56t-18 75q-14 64 -14 80zM1282 1342q0 -26 -20 -66l-13 -21q-12 -20 -31 -54t-44 -73l-52 -92l-69 -137l-166 -297q-19 -36 -57 -102t-100 -175t-111 -200q-48 -90 -66 -109q-24 -18 -49 -18h-139q-51 -2 -52 31q0 4 68 133l168 301q61 119 154 281t165 303 q72 142 103 193q31 52 39 67q35 68 67 67l56 -4l73 4q20 0 45 -2q31 -4 31 -30zM375 1110q-55 0 -56 -100q1 -38 19 -56t40 -18t32 16q20 35 20 68q0 34 -16 62t-39 28zM383 1384q55 0 123 -26q18 -8 59 -41t62 -59t45 -103t22 -157q0 -80 -37 -148t-51 -84 q-41 -52 -112 -76t-108 -24q-38 0 -92 15t-79 32q-63 43 -115 121q-18 35 -32 89t-15 83q0 132 38 198t46 76q88 104 246 104z" glyph-name="percent" horiz-adv-x="1599" unicode="%"/><glyph d="M842 522q0 6 -3 12t-40 25q-29 18 -4 92q9 14 36 61q27 46 50 64q39 39 61 39t43 -10l131 -72l37 -12q41 -19 96 -33q86 -23 142 -70q70 -45 69 -102q0 -30 -11 -47l-21 -34q-8 -15 -32 -61t-34 -57q-23 -18 -39 -18t-39 13t-29 14q-14 0 -32 -40t-72 -93 q-59 -70 -88 -99q-23 -16 -80 -49q-20 -10 -114 -38t-185 -32h-37q-10 2 -24 2l-37 -4h-13q-63 0 -159 38t-125 67q-13 8 -30 27q-17 18 -27 26q-10 7 -29 23q-18 16 -35 30q-8 8 -46 58t-44 63q-60 113 -60 227q-1 162 105 281q57 64 100 83q43 20 53 27t9 17q0 10 -17 39 q-16 37 -16 72q0 116 33 161q41 68 59 84q60 69 264 95q25 0 39 2h27q16 0 35 -2l49 -5l76 -24q49 -16 79 -29q47 -27 99 -75t70 -79q20 -32 20 -65t-21 -53l-59 -43q-5 5 -33 -35q-43 -53 -67 -72q-29 -18 -60 -18t-41 13t-22 59q-10 29 -46 29t-59 -23q-16 -23 -16 -44 t6 -34l16 -19q33 -33 33 -53t-17 -64q-16 -43 -26 -57t-22 -16h-4q-12 -4 -39 -4q-59 -2 -90 -61t12 -115q55 -72 158 -74q137 0 137 92z" glyph-name="ampersand" horiz-adv-x="1439" unicode="&amp;"/><glyph d="M102 1366h185q127 0 143 -6t16 -20t-2 -23l-4 -66q0 -59 -6 -65l-18 -66l-4 -63l-15 -66v-65q-20 -94 -27 -102t-55 -7l-77 -4q-106 2 -117 6q-23 6 -26 26t-9 81q-14 88 -18 137t-25 123l-4 65q-6 72 -6 86q0 13 9 21t60 8z" glyph-name="quotesingle" horiz-adv-x="479" unicode="'"/><glyph d="M670 -178q-23 0 -32 1t-31 4t-69 8t-94 21t-87 48t-44 36l-11 11q-7 6 -11 10q-117 90 -164 213q-47 98 -51 109q-8 41 -10 52t-25 84t-23 171q0 2 5 59l4 45l10 58q3 87 26 161q27 127 107 207q2 2 12 19q100 133 196 184q52 27 77 29l69 14q66 18 120 18t73 -20 q16 -23 16 -66l-4 -57v-12l4 -211q0 -35 -16 -51q-19 -9 -51 -37q-129 -89 -127 -340q0 -23 8 -82q2 -45 12 -76q18 -42 43 -72t45 -59q10 -9 49 -35t39 -78l-4 -69q-2 -8 -2 -49l4 -172q0 -55 -26 -68q-14 -8 -37 -8z" glyph-name="parenleft" horiz-adv-x="843" unicode="("/><glyph d="M115 1146q0 50 -4 128v35q0 55 26 67q14 8 38 8q25 0 53 -4t48 -6q160 -14 277 -129q119 -94 164 -217q51 -104 53 -110t5 -35q4 -30 26 -102q22 -73 22 -167q0 -2 -4 -59l-2 -45l-10 -57q-2 -84 -10 -106q-7 -22 -17 -56q-31 -131 -106 -209q-12 -12 -38 -47t-67 -76 q-63 -57 -111 -80t-71 -24l-68 -17q-70 -16 -124 -16t-70 22t-16 64l4 57l-2 219q0 35 8 42t59 48q61 41 88 111q39 76 39 229q0 100 -21 150t-87 137q-2 2 -56 41q-33 20 -32 74l4 69q2 11 2 61z" glyph-name="parenright" horiz-adv-x="843" unicode=")"/><glyph d="M543 1239q6 0 57 33q26 10 42 10q40 0 58 -111l13 -36l12 -48q14 -43 14 -55t-9 -17q-10 -5 -62 -13t-52 -21q0 -2 7 -12l31 -25q17 -12 36 -26q10 -10 10 -26t-24 -38q-125 -100 -137 -109t-33 -9t-27 6q-6 7 -47 83q-10 16 -18 17q-18 0 -41 -56t-49 -57q-16 0 -38 16 q-21 16 -59 46q-92 63 -94 65q-4 12 -4 16t4 17l55 55q19 26 2 37q-10 4 -71 12q-39 2 -39 45q0 12 24 105q25 125 58 125q12 0 46 -20t44 -21q18 0 18 22l-12 78q0 17 12 29t133 12t127 -2q16 -10 17 -31l-19 -80q0 -16 15 -16z" glyph-name="asterisk" horiz-adv-x="819" unicode="*"/><glyph d="M53 586q0 53 2 112v97q0 59 33 73q26 15 59 17h119q25 0 33 -4h6q16 0 17 16v70l6 120q0 27 16 40t33 14l57 -4l35 2h23q10 0 24 -2h57q27 2 68 2t61 -27q18 -18 19 -35l-2 -198q0 -2 188 -2q27 0 45 -25t19 -59q0 -34 -8 -101v-4l6 -117q0 -51 -22 -67t-60 -17l-78 5 q-103 0 -102 -19l2 -178q0 -25 -27 -45q-27 -25 -64 -25h-8q-16 4 -63 4h-74l-35 2q-70 0 -92 13q-35 16 -35 73l2 45l-2 76q0 16 2 27v8q0 8 -14 10l-43 4l-25 -2l-30 2l-70 -4q-78 0 -78 103z" glyph-name="plus" unicode="+"/><glyph d="M555 41q0 -59 -8 -76l-15 -31q-20 -57 -49 -94q-25 -45 -28 -49q-23 -20 -53 -20t-87 8q-29 -2 -51 -2q-72 0 -71 37q0 10 14 45l8 32q25 49 25 69t-21 32q-10 8 -24 8h-60q-40 0 -60 36q-19 36 -3 193l-9 121q1 57 17 90t59 39l133 -4l66 4q141 0 160 -10 q61 -27 61 -102l-6 -195q0 -29 2 -66v-65z" glyph-name="comma" horiz-adv-x="622" unicode=","/><glyph d="M557 315q-24 0 -108 7h-170q-14 2 -23 2l-100 -5q-47 0 -75 28t-34 63q0 43 -2 114l-4 183q0 55 39 98q23 29 70 35l106 -6l92 2h103l86 2q63 0 102 -35q20 -23 20 -51l-2 -166q9 -123 9 -157t-17 -60q-29 -53 -92 -54z" glyph-name="hyphen" horiz-adv-x="706" unicode="-"/><glyph d="M557 371v-52q-2 -23 -2 -83t2 -82v-54q0 -57 -47 -92q-27 -10 -51 -10l-72 2l-51 -4q-29 0 -64 2l-133 -2q-41 4 -55 31q-2 6 -11 45t-10 43l7 80l-7 45l7 45l-7 75q0 8 9 43q8 35 12 43q8 23 55 33l133 -4l66 4q139 0 160 -10q59 -29 59 -98z" glyph-name="period" horiz-adv-x="622" unicode="."/><glyph d="M6 -119q0 27 17 56q94 172 141 271q47 98 139 284t162 329q150 322 162 326q14 23 26 45t20 33q7 12 29 61q22 50 39 68q18 18 56 18t172 -6l78 4q80 0 79 -57q0 -20 -10 -45l-88 -181l-158 -346q-4 -5 -15 -29t-35 -70t-43 -82t-44 -88t-39 -77l-116 -233 q-25 -57 -42 -85q-18 -28 -36 -63t-30 -54q-12 -20 -30 -66q-20 -46 -43 -60t-55 -14l-154 8l-108 -2q-74 0 -74 55z" glyph-name="slash" horiz-adv-x="1171" unicode="/"/><glyph d="M668 469q73 0 114 82q0 4 15 59q14 55 14 75q1 20 -19 80t-30 75q-48 55 -106 55q-26 0 -64 -31q-37 -31 -47 -57q-25 -74 -25 -125q0 -213 148 -213zM717 1401q66 0 96 -15l64 -24q75 -27 107 -48t75 -65q57 -49 80 -75q45 -59 71 -115q14 -43 33 -107l25 -73 q26 -85 26 -221t-45 -263q-12 -44 -25 -65t-32 -54q-34 -70 -74 -116t-54 -57t-89 -58q-25 -13 -67 -27t-90 -32q-108 -40 -259 0l-53 12l-70 25q-70 23 -98 40q-59 43 -85 69t-83 104q-91 108 -104 215l-11 55q-25 106 -25 138t9 99q9 192 47 258l24 42q73 137 91 153 t22 21q106 106 199 135l61 22q66 25 111 27l82 -2q6 0 16 2h25z" glyph-name="zero" horiz-adv-x="1325" unicode="0"/><glyph d="M395 364l15 222l-4 110q0 8 6 66v18q0 56 -38 56t-83 -43t-65 -43t-44 18q-10 4 -59 72q-70 66 -86 84q-23 32 -23 56t25 50q2 7 98 62l47 41q75 54 87 66q13 13 33 31t46 46q27 28 72 60t75 36t46 4l133 -10q18 0 90 8h31q118 0 118 -137l-18 -217l10 -203q0 -27 -6 -87 t-6 -126t2 -190v-27q-8 -73 -8 -145t14 -144q4 -38 4 -54t-18 -38q-16 -14 -47 -14h-189l-65 4h-27l-84 -4q-47 0 -74 26q-16 22 -16 46t7 64t7 87l-4 121q-2 10 -2 28z" glyph-name="one" horiz-adv-x="989" unicode="1"/><glyph d="M1149 -4l-264 4h-131l-123 -4l-172 10l-156 -8q-80 0 -123 16q-29 14 -35 34t-6 71v49q-2 41 -2 91t31 81q14 10 56 30t100 57q58 38 72 48q13 10 59 55q16 14 129 99q26 20 62 83q36 64 36 114t-34 82t-89 32t-90 -29q-12 -12 -43 -65q-16 -68 -20 -74q-16 -18 -39 -18 l-101 8l-141 -4q-33 -2 -63 28t-29 56q0 26 6 63q2 76 12 113q29 94 80 156q37 54 61 76t94 65t93 49l61 12l66 15q20 0 55 2l72 4l51 -4q74 -5 120 -17t114 -51q63 -27 83 -43t54 -57l18 -19q87 -96 105 -140t18 -81l4 -80l4 -33l-4 -20q-6 -117 -65 -193q-35 -49 -47 -59 t-53 -46q-41 -37 -70 -56q-61 -37 -62 -56q0 -20 31 -20l151 4q29 2 56 2q71 0 103 -36t32 -77l-2 -168l2 -53q0 -98 -127 -98z" glyph-name="two" horiz-adv-x="1325" unicode="2"/><glyph d="M283 1001l-99 -18q-43 0 -67 33q-6 6 -11 31l-8 38l4 101l-4 82q0 43 22 68q22 26 103 34q82 8 84 8l72 -4l86 4q55 0 137 -8q165 -3 271 -62q106 -58 149 -120q12 -20 31 -66l10 -22q20 -42 20 -96t-2 -68q-6 -59 -61 -123q-10 -10 -62 -51q-6 -4 -6 -14t10 -20t43 -28 q35 -18 71 -68t38 -75l16 -82q14 -45 14 -76t-11 -84q-7 -55 -25 -88t-56 -75t-80 -66q-127 -74 -173 -90q-45 -16 -133 -21l-181 -2q-113 3 -121 5t-112 15t-152 31t-55 52q-4 20 -4 41l8 139l-4 96q1 40 23 62t48 22t87 -26q31 -10 76 -21l106 -6q70 -6 119 -6t82 16 q47 29 47 71t-41 66q-31 17 -131 17h-29q-23 -2 -49 -2q-68 -1 -68 65v125l-4 72q0 33 25 55q27 20 57 21q72 0 137 -13q26 4 46 24t20 48q0 29 -29 45q-18 12 -35 12l-53 2q-41 9 -60 9t-71 -9h-65z" glyph-name="three" horiz-adv-x="1200" unicode="3"/><glyph d="M465 655q0 -41 74 -41h24q74 4 83 16t9 42q8 47 8 56t-6 83v31q6 72 7 78q0 25 -21 24q-12 0 -43 -49l-25 -35q-8 -12 -19 -34t-51 -76t-40 -95zM879 0q-41 0 -181 -8q-43 0 -59 37q-16 27 -16 63l14 92q0 47 -41 58q-4 2 -98 2l-52 -2l-53 2l-90 -4l-123 14 q-100 0 -108 2q-35 12 -52 43t-8 104v27l-4 88v55q0 49 12 70q8 8 52 66l84 104l94 143l80 111l43 55q72 116 83 132t42 52q30 36 54 52q24 14 71 16l176 -2q21 -2 139 -4t135 -12q58 -28 60 -109v-145l2 -33l2 -207l-9 -176q0 -62 14 -76t48 -18q47 -4 47 -41l-2 -123 l6 -133q0 -45 -19 -56t-69 -14q-25 -6 -20 -41v-14l8 -98q0 -25 -32 -52t-85 -26h-49l-88 6h-8z" glyph-name="four" horiz-adv-x="1271" unicode="4"/><glyph d="M47 369q-1 39 19 58t31 19t67 -18l43 -10l37 -15l86 -16q35 -6 95 -6q60 1 103 23t43 59t-14 57q-29 47 -94 47l-64 -2q-80 8 -100 8l-59 -4q-146 0 -146 76l12 182v41l-4 199v59q0 34 1 58t-1 30l-4 84q0 28 24 50t71 22l86 -4l8 2l69 2h66l90 -4l88 4q10 0 25 -2h100 l76 -4l110 8q35 0 47 -24q10 -16 11 -70l-4 -111l2 -69q0 -54 -26 -76t-46 -23l-131 2q-35 -2 -66 -2l-149 7q-37 0 -37 -45q0 -27 9 -42t67 -8h28l201 -28q68 -20 146 -80q111 -78 137 -234l8 -26q8 -31 8 -78q0 -106 -47 -195q-31 -72 -57 -107t-64 -63l-35 -20 q-66 -47 -133 -71t-215 -32l-80 -2q-23 -2 -34 -2l-62 7q-66 6 -129 16l-72 10q-92 12 -127 45q-18 14 -18 58l6 188q0 23 -2 33v39z" glyph-name="five" horiz-adv-x="1134" unicode="5"/><glyph d="M698 590q-10 0 -61 -10t-59 -21q-33 -25 -33 -67t41 -74t102 -31q61 0 106 29q46 30 46 70t-33 67q-7 5 -53 21t-56 16zM1176 1253q0 -14 -7 -82v-57q0 -62 -10 -80t-34 -38t-31 -17l-150 47q-61 12 -63 12h-123q-109 0 -162 -55q-23 -23 -23 -41q0 -27 25 -27 q16 1 60 13t110 12q211 0 348 -98q6 -8 23 -17q47 -27 90 -116t53 -125l8 -88l-6 -50l-4 -71q0 -25 -2 -33t-4 -17t-5 -15l-15 -30t-52 -73q-45 -68 -65 -88q-41 -37 -54 -45l-43 -23q-57 -33 -96 -45q-57 -12 -125 -18q-169 -34 -297 -6q-14 2 -92 36l-47 19l-64 35 q-49 27 -69 45q-69 62 -100 116q-12 31 -48 127q-41 90 -49 140t-8 100l4 74l4 106q9 74 17 104t28 72q32 66 40 91t15 34q7 11 12 21q25 52 150 151q106 92 195 113q20 6 96 18l53 9l62 4l78 2l116 -13l31 -6l27 -4l51 -12q92 -20 122 -43t30 -68z" glyph-name="six" horiz-adv-x="1325" unicode="6"/><glyph d="M573 -8q-86 0 -118 8h-9l-231 -4q-35 0 -63 29q-29 35 -29 71t6 54t59 100q51 82 111 264l33 72l22 53l41 86l21 63q43 88 43 103q1 27 -27 27l-188 -5q-53 -4 -88 -4q-35 -1 -56 13t-39 51t-18 74v79q0 53 -4 123v27q0 45 27 78q18 20 59 20l51 -4q8 -2 33 -2t127 6 l39 -2l160 -14q23 0 79 8t97 8l139 -8q4 0 151 12q35 -16 43 -35q10 -16 11 -43v-184q-4 -66 -94 -231l-41 -92l-17 -52q0 -2 -35 -65q-50 -113 -114 -294t-64 -220l-2 -62q-4 -109 -115 -108z" glyph-name="seven" horiz-adv-x="1079" unicode="7"/><glyph d="M522 954q0 -68 92 -77q51 -10 54 -11q55 0 102 41q23 23 23 63t-39 64q-29 14 -49 19l-50 4l-39 2q-38 -2 -66 -33t-28 -72zM811 492q0 40 -37 67q-23 21 -74 27q-50 6 -66 6t-48 -13t-54 -34q-20 -21 -20 -64t61 -75q31 -16 56 -21h43l41 -2q37 0 67 35q30 34 31 74z M635 1399h57q210 -23 326 -90q55 -29 96 -79t54 -73q14 -23 16 -53t10 -74v-8q0 -74 -57 -168q-14 -20 -58 -55q-8 -9 -8 -17t4 -20q6 -8 42 -26t106 -99q35 -39 49 -109t14 -96t-18 -94t-32 -96t-30 -50q-16 -20 -67 -75l-37 -29q-43 -33 -45 -34t-66 -23q-82 -35 -104 -43 q-126 -19 -174 -19q-49 0 -103 4q-120 2 -198 27q-201 65 -324 252q-20 37 -37 96q-10 61 -10 92t6 60l21 57q18 61 38 86q61 74 132 92q22 11 22 27t-53 57q-39 41 -61 99t-23 90q0 31 13 86q12 54 24 70t41 48l20 29l35 35q47 48 88 68q40 20 148 38t143 17z" glyph-name="eight" horiz-adv-x="1325" unicode="8"/><glyph d="M670 791q53 1 83 31q29 30 29 70t-50 69t-107 29t-91 -35t-34 -77t49 -71q24 -12 65 -16h56zM766 426q0 18 -10 28t-24 11q-14 -1 -62 -19t-107 -18t-137 14q-66 8 -107 23t-133 86q-23 18 -43 49q-20 23 -32 41q-57 117 -65 145t-7 60q0 68 14 168q27 84 76 151 q35 55 47 65t30 24q18 13 62 43t72 41t76 22l55 16l35 4q103 22 130 19q50 -7 128 -10q78 -2 178 -56q67 -27 93 -51t44 -39q51 -39 70 -80l33 -67l26 -70l33 -76l14 -59q20 -74 21 -90l-2 -101l2 -110q0 -32 -18 -106t-33 -103l-33 -55q-4 -10 -35 -82q-10 -18 -51 -60 t-80 -69q-115 -88 -225 -117q-45 -14 -83 -19t-164 -6t-146 5q-22 6 -44 11l-49 11q-101 18 -121 34t-20 42t6 80v20l-8 115q0 47 31 71q23 23 55 23t66 -16l47 -23q27 -12 55 -12l63 2l60 -4q10 -2 26 -2l101 12l31 14q59 27 59 70z" glyph-name="nine" horiz-adv-x="1325" unicode="9"/><glyph d="M334 1065q27 0 53 -2h70q27 0 53 -14q47 -29 47 -93v-51q-2 -23 -2 -83t2 -83v-53q0 -59 -47 -90q-23 -14 -53 -14h-70q-27 -2 -53 -2t-62 2l-133 -2q-41 4 -55 32q-2 6 -11 45t-10 43l7 80l-7 45l7 45l-7 76q0 8 9 43q8 35 12 43q8 27 55 33l133 -2q35 2 62 2zM557 371 v-52q-2 -23 -2 -83t2 -82v-54q0 -57 -47 -92q-27 -10 -51 -10l-72 2l-51 -4q-29 0 -64 2l-133 -2q-41 4 -55 31q-2 6 -11 45t-10 43l7 80l-7 45l7 45l-7 75q0 8 9 43q8 35 12 43q8 23 55 33l133 -4l66 4q139 0 160 -10q59 -29 59 -98z" glyph-name="colon" horiz-adv-x="622" unicode=":"/><glyph d="M457 582h-70q-25 -2 -51 -2t-62 2l-133 -2q-43 4 -55 32q-4 8 -13 45t-7 43l6 80l-6 45l6 45l-6 74q0 6 9 44t11 44q8 27 55 33l133 -2q35 2 62 2t53 -2h68q31 0 53 -14q49 -29 49 -93l-4 -135l4 -135q0 -63 -49 -90q-23 -14 -53 -14zM559 367v-48q-6 -104 -6 -147 l4 -131q0 -59 -8 -76l-14 -31q-20 -57 -50 -94q-23 -41 -30 -49q-23 -20 -53 -20t-87 8q-27 -2 -51 -2q-70 0 -69 37q0 8 12 45l10 32q25 49 25 69t-18 30t-29 10h-60q-13 0 -31 11t-28 30t-10 53t6 135l-6 121q0 57 16 90t59 39l133 -4l66 4q139 0 160 -10q59 -29 59 -102z " glyph-name="semicolon" horiz-adv-x="622" unicode=";"/><glyph d="M457 582h-70q-25 -2 -51 -2t-62 2l-133 -2q-43 4 -55 32q-4 8 -13 45t-7 43l6 80l-6 45l6 45l-6 74q0 6 9 44t11 44q8 27 55 33l133 -2q35 2 62 2t53 -2h68q31 0 53 -14q49 -29 49 -93l-4 -135l4 -135q0 -63 -49 -90q-23 -14 -53 -14zM559 367v-48q-6 -104 -6 -147 l4 -131q0 -59 -8 -76l-14 -31q-20 -57 -50 -94q-23 -41 -30 -49q-23 -20 -53 -20t-87 8q-27 -2 -51 -2q-70 0 -69 37q0 8 12 45l10 32q25 49 25 69t-18 30t-29 10h-60q-13 0 -31 11t-28 30t-10 53t6 135l-6 121q0 57 16 90t59 39l133 -4l66 4q139 0 160 -10q59 -29 59 -102z " glyph-name="semicolon" horiz-adv-x="622" unicode=";"/><glyph d="M954 1391v-445l-413 -254l413 -252v-440l-886 510v371z" glyph-name="less" unicode="&lt;"/><glyph d="M421 612q52 0 103 -2h82q4 0 123 4l78 -2l72 2q45 0 73 -28q16 -20 17 -39l-2 -131q8 -96 8 -123t-12 -47q-25 -41 -74 -41q-4 0 -66 4h-51q-45 0 -151 -4h-52l-129 4q-72 0 -159 2h-101l-30 -2q-50 0 -70 22t-23 48l-4 90l-2 141q0 14 10 43q11 29 25 40t80 21l156 -4 q47 2 99 2zM51 834q0 22 6 129l-2 131q2 31 29 49t68 18l67 -2l78 2q88 -6 121 -6l190 4q47 0 101 -2l151 4q63 -6 84 -26q8 -6 20 -35t11 -45l-4 -142q-4 -94 -8 -106q-18 -53 -86 -53l-54 4h-12q-31 -2 -164 -2l-190 -6q-35 0 -111 6h-145l-66 -4q-49 0 -74 41 q-10 19 -10 41z" glyph-name="equal" unicode="="/><glyph d="M68 0v442l415 254l-415 252v443l888 -510v-373z" glyph-name="greater" unicode=">"/><glyph d="M399 61q0 33 2 66v23q0 37 -2 63v18q1 46 50 58l221 2q8 0 16 -2l23 -4l139 8q18 0 47 -35q8 -14 8 -74l6 -98q0 -45 -28 -74q-23 -16 -62 -16l-172 4l-160 -4q-88 0 -88 65zM610 858q0 63 -67 64q-37 0 -73 -30t-40 -32q-4 -6 -43 -80q-12 -27 -43 -41q-16 -10 -32 -10 q-35 0 -124 84l-98 74q-51 51 -54 61t-3 21q0 33 84 172q57 57 67 71q78 94 197 134q7 2 65 12t136 12l98 2q82 0 147 -26q125 -57 146 -72q82 -57 114 -119q14 -25 38 -91t24 -83l-2 -33l2 -47q0 -55 -55 -143l-23 -41q-13 -31 -69 -79t-82 -89t-31 -101q-4 -60 -15 -80 t-43 -20l-83 2h-72l-43 -2q-51 8 -76 8l-82 -4q-73 0 -73 87q-1 87 26 159q2 2 39 49q25 50 35 58l57 55q51 49 51 98z" glyph-name="question" horiz-adv-x="1193" unicode="?"/><glyph d="M745 729q-37 0 -63 -18q-47 -29 -47 -66q0 -18 22 -45q17 -16 59 -16t66 12q55 27 56 70q0 43 -37 57q-19 6 -56 6zM1133 967q39 0 38 -33q0 -23 -20 -107l-23 -92t-4 -21q-2 -12 -6 -30t-15 -64t-11 -69q0 -25 11 -39t23 -14q50 0 92 90t42 206t-33 184q-33 70 -109 132 q-111 84 -205 102q-103 25 -184 7q-96 -11 -114 -17q-17 -6 -78 -49t-84 -51q-43 -23 -52 -35l-20 -39q-4 -8 -36 -52t-44 -85l-14 -51q-20 -68 -21 -72q-10 -92 -10 -112q0 -85 37 -175l49 -129l33 -26l31 -43q45 -68 149 -105t184 -37q160 1 223 11q62 10 119 25t68 16 q19 0 29 -37l18 -76q4 -20 4 -30t-22 -23q-22 -12 -224 -41q-16 -2 -135 -6l-57 -3h-47q-39 0 -144 27q-131 29 -235 113q-78 59 -105 92t-73 123q-42 76 -54 102t-25 106t-13 112t9 106t12 112t85 164q82 125 109 152q78 78 163 123q8 3 94 33t127 39t161 9t268 -67 q76 -33 129 -84q125 -113 168 -229t43 -166t-14 -130t-21 -106q-51 -133 -209 -229q-70 -41 -170 -41t-141 41q-23 23 -31 23t-24 -12q-16 -10 -69 -32q-52 -22 -128 -22q-135 0 -201 84q-16 18 -24 28t-17 21q-33 39 -33 125q0 127 101 233q77 92 213 136q58 16 124 16 t113 -31q15 -10 25 -10t14 12q8 14 21 15h43l51 -2l53 4h23z" glyph-name="at" horiz-adv-x="1499" unicode="@"/><glyph d="M621 645q0 -53 45 -53h49q84 0 99 18t7 52l-12 53q-31 150 -60 179q-11 11 -27 11t-26 -9q-10 -8 -18 -36t-15 -53t-11 -35t-11 -43q-6 -33 -13 -54t-7 -30zM1464 88v-14q0 -75 -92 -78h-16l-25 2h-22l-125 2q-89 0 -117 -2t-49 0q-37 10 -57 57l-17 35q-25 47 -57 60 q-11 12 -73 6t-79 -4l-69 4q-50 4 -76 4t-38 -16q-11 -16 -13 -17l-33 -57q-27 -49 -40 -62t-44 -8h-16l-97 -4h-43l-121 4h-35q-79 0 -108 27t-29 72t18 94t35 121t37 123q19 50 28 82t34 112q30 97 43 174q12 77 39 151l26 76q6 18 28 100t36 130q14 50 50 76 q35 26 101 28q66 4 76 1t49 1l93 4l63 -2l35 -2q33 -2 133 -2l64 2q75 0 115 -30t67 -130l10 -41q8 -31 33 -92t37 -106l20 -82l7 -31q3 -14 5 -19t2 -10q10 -17 23 -55l8 -22q6 -24 26 -118t48 -175l12 -37q12 -37 33 -132t39 -139q18 -43 18 -61z" glyph-name="A" horiz-adv-x="1435" unicode="A"/><glyph d="M885 924q-1 75 -143 75t-142 -74q0 -69 53 -69l88 4l72 -6q31 0 51 26t21 44zM793 410q14 0 33 -1t34 1t41 17q27 15 27 52t-31 56q-49 29 -97 29t-59 -5q-12 -4 -16 -4h-25q-56 0 -78 -16t-22 -54q0 -80 92 -82q16 0 49 5l21 2h31zM596 1370h166l112 2q158 0 287 -61 q67 -31 137 -122t76 -173v-33q-4 -127 -65 -186q-23 -23 -41 -37t-17 -25v-6l64 -41q20 -14 57 -58t58 -118q20 -72 20 -108t-22 -100q-46 -138 -110 -191q-65 -52 -121 -75t-84 -34t-66 -7q-38 3 -185 3h-41l-90 -2h-41l-41 -2l-131 4h-289q-4 0 -45 -2t-59 10 q-53 35 -51 103q0 18 9 80t9 122l-2 47v31l-4 36v24l6 120q0 35 -1 119t3 138t2 69l-10 221q-2 46 5 106t20 83q35 66 157 65l62 -6h96l84 8q20 2 40 -1t46 -3z" glyph-name="B" horiz-adv-x="1478" unicode="B"/><glyph d="M23 754q0 76 34 180q61 164 125 235q90 95 199 149t350 54q8 0 35 1t44 0t45 -2q124 -4 144 -52q6 -18 7 -41v-29l-9 -110v-52q1 -33 7 -87t3 -82t-23 -51q-20 -22 -56 -21l-76 6l-64 -4q-24 -2 -54 -1t-60 -2t-66 -32q-59 -47 -59 -117q0 -197 219 -194q66 10 133 18h17 q94 0 96 -125l-4 -98v-57l8 -101v-22l2 -13q0 -32 -31 -62t-76 -41t-147 -13h-23q-335 5 -478 132q-26 24 -54 62t-72 94q-44 57 -64 115q-21 59 -37 173q-15 114 -15 190z" glyph-name="C" horiz-adv-x="1054" unicode="C"/><glyph d="M606 588q0 -46 14 -66t48 -24h8q12 2 46 11t62 9q8 4 21 4l12 6h4l15 4q81 23 86 152q0 78 -50 123t-104 45l-90 10q-36 0 -60 -32t-18 -91l6 -75l2 -29l-2 -31v-16zM544 1372q126 0 249 -16t159 -32t70 -37q43 -28 108 -55q66 -26 102 -63t98 -119t75 -108 q45 -90 45 -242t-43 -266q-84 -223 -285 -317q-141 -65 -243 -91t-261 -26l-182 4h-43q-29 0 -57 -2l-80 -4q-115 0 -154 39q-30 37 -28 73t7 64t5 188v101l-12 235v97l8 231l-4 207q0 76 33 104q31 31 75 29l131 -4q39 0 70 5t157 5z" glyph-name="D" horiz-adv-x="1472" unicode="D"/><glyph d="M1053 430q39 0 59 -18q39 -35 39 -103v-22l-2 -14v-27l2 -39q8 -125 -10 -165t-72 -44h-47l-59 6h-31q-29 0 -32 -5t-81 -5l-31 -2l-90 8h-57q-35 -2 -133 -2l-170 2l-162 -8h-10q-92 0 -90 88l2 29q2 16 2 49l6 225l6 98q0 85 -6 143t-4 91t0 53l-8 170l8 123v59l-8 127 q-2 66 35 99t104 32l104 -10l160 4l80 -2h39l53 -2h25l88 -2l88 4h37l104 6q113 0 113 -98l-2 -43v-82l8 -94q0 -98 -82 -96l-61 4h-15l-30 -2h-7q-29 0 -59 4l-27 4q-16 2 -49 -2t-45 -4l-78 4q-59 0 -59 -51q0 -27 18 -40t95 -14h34l56 6h106l94 7q55 0 73 -29t18 -55 l4 -113l6 -82q0 -72 -66 -74h-41q-37 0 -79 -5t-89 -3l-94 2h-20q-10 -1 -38 0q-28 2 -46 -16q-31 -42 8 -68q23 -18 70 -18l206 10h86l33 2h21z" glyph-name="E" horiz-adv-x="1202" unicode="E"/><glyph d="M78 1283q0 29 4 35q4 7 8 20q4 14 11 16t17 11t25 6q14 -3 33 -1l23 -2h18l86 -2q45 0 113 5t146 0t83 -5h150l137 8q121 -6 133 -92v-4l2 -82v-76l6 -76q0 -47 -34 -67t-62 -21l-103 -2l-86 -6q-31 0 -48 4t-23 4l-35 2q-66 0 -68 -49q0 -15 14 -33t31 -18l123 2 q16 0 25 -2h63l80 8l31 2q29 0 48 -19t20 -52l-2 -33v-33l2 -20v-9l8 -147q2 -49 -53 -82q-33 -18 -160 -18h-66q-16 0 -42 1t-44 -1t-53 -23t-35 -104v-41l8 -66l2 -117v-4l2 -22v-12q0 -26 -16 -46t-31 -20l-104 4h-14q-10 -4 -17 -4h-31l-34 -2l-93 4l-102 -4 q-98 0 -96 88l2 102l2 43l-4 115l8 156q0 37 -6 92l-4 43q-6 53 2 177t8 177v41l-4 60l-4 159v32z" glyph-name="F" horiz-adv-x="1095" unicode="F"/><glyph d="M964 901q-40 0 -63 2l-82 6q-90 0 -180 -73q-51 -38 -63 -86t-13 -88q0 -98 90 -175q53 -43 148 -43q33 0 49 14t16 27t-8 23t-20 10h-58q-18 0 -34 16t-15 29v12l2 21v6q0 8 2 28t0 42l-2 47l2 43q1 11 11 19q10 7 22 17t53 11h23q16 0 49 -4l31 -2l90 -2l49 -2l141 4 q37 0 77 -33t40 -106q0 -20 -4 -66l-2 -31v-88l2 -30q2 -35 2 -103v-119l2 -90q0 -80 -37 -113t-88 -32h-47q-18 0 -45 5t-43 3l-131 -8q-23 -2 -42 0q-18 2 -38 2t-54 -2t-71 0q-264 4 -351 76q-10 8 -30 22t-43 32t-45 32q-22 16 -25 18q-53 42 -111 150t-78 172t-19 159 l14 127q1 82 25 161q24 81 60 131t102 116t119 92q52 26 172 60t329 34l96 -2q70 0 96 2l51 2q131 4 166 -63q19 -35 15 -125l-4 -92l8 -107q0 -47 -25 -69t-110 -23l-111 4h-62z" glyph-name="G" horiz-adv-x="1378" unicode="G"/><glyph d="M76 408v165q0 47 5 77t3 79l-2 51v144l2 108q0 14 2 21v49l-12 164q0 42 22 68t54 26h36l95 6q57 2 113 0t79 2l53 4q39 2 65 -19t25 -67l-12 -90v-16l6 -39v-13l-2 -88q0 -41 28 -57t95 -20l57 -5q55 -4 97 37q14 15 16 27t2 61v203q0 40 25 62t55 22l43 -2q4 0 20 -2 t58 1t54 0t30 -2t33 1h45l80 6q41 0 65 -29q20 -20 19 -55l-3 -35l-6 -41q0 -66 -2 -102l-2 -41q-2 -23 4 -89t0 -156t-6 -117v-95q4 -45 4 -85v-50l2 -71q0 -12 2 -35t0 -55t-2 -52v-108l6 -56v-8q-1 -40 -27 -68t-59 -28l-104 2l-68 -2l-94 4q-16 2 -48 0t-46 -2 q-80 0 -82 84l2 68v14l-4 49q-4 16 -2 43t2 35v37q0 66 -64 89q-11 3 -25 1t-17 -2l-58 2q-20 2 -44 -6l-27 -9q-22 0 -38 -14t-16 -41v-160l2 -86v-10q0 -94 -90 -96h-20q-37 4 -60 4h-153l-60 -2h-47q-108 0 -106 88l2 84v39l6 59q2 18 -2 68t-4 72z" glyph-name="H" horiz-adv-x="1503" unicode="H"/><glyph d="M629 1227v-33l-8 -135q-2 -27 4 -97t6 -106l-10 -170v-176l6 -125v-55l-6 -92q0 -8 5 -53t6 -55t3 -9q2 0 2 -17v-18q-6 -49 -31 -70t-74 -20l-38 2h-33l-27 2h-98l-139 -6q-63 -4 -97 29q-18 18 -18 69l6 92q2 27 0 60t-2 57v78q0 6 5 85t0 133t-5 108v274l2 72l-2 65 l-6 154q-2 49 25 76t73 26l125 -10q49 0 86 6l39 4q115 10 158 -24t43 -121z" glyph-name="I" horiz-adv-x="716" unicode="I"/><glyph d="M252 1159l-10 129q0 82 105 82q26 0 70 -1t124 1l65 2q29 -2 66 1q38 3 70 -21t32 -76l-8 -254l4 -74v-180q0 -14 -4 -45t-2 -53t10 -183v-77q-4 -115 -26 -189q-22 -75 -90 -151q-70 -76 -234 -76l-84 6l-45 -2h-74l-100 -8q-133 0 -133 143l6 152l-6 108q0 55 24 88 q25 33 43 38t35 5l72 -12h14q6 0 22 7q58 24 58 134q0 10 -8 168v33q4 33 4 68v36q0 16 -4 52t0 87q4 50 4 62z" glyph-name="J" horiz-adv-x="825" unicode="J"/><glyph d="M88 993v45q0 109 -7 142q-7 34 -7 80t22 75q23 29 62 29l57 -2h72q20 0 70 4t126 2t99 -18q25 -23 24 -60v-10l-6 -37v-65l-4 -97q0 -80 39 -80q20 0 54 40t52 73q19 33 23 38q8 8 14 13q7 5 23 34q16 28 25 41q10 14 14 22l13 25q32 61 56 73q9 4 31 8t215 4h131l68 6 q52 0 72 -12t20 -58t-78 -161q-12 -16 -30 -42q-18 -25 -38 -51t-52 -79t-46 -72l-82 -119q-20 -35 -6 -61q20 -29 43 -56t61 -96q39 -69 51 -82t21 -26l37 -43q66 -89 82 -144q5 -14 23 -34t27 -32t41 -49q32 -36 32 -66q0 -31 -18 -63t-70 -32h-64q-68 0 -129 6h-75 l-117 -8q-66 0 -82 8q-31 16 -86 115l-29 49q-4 6 -7 13q-9 22 -21 34q-11 13 -20 25t-20 24t-45 52t-44 47t-36 7t-42 -30q-23 -37 -23 -88v-66l8 -108q0 -46 -15 -64t-93 -22h-33l-84 6h-131l-78 -6q-37 0 -55 10q-41 23 -41 98v25l8 139l-2 96v146q-6 160 -6 162l4 100 q2 100 2 223z" glyph-name="K" horiz-adv-x="1501" unicode="K"/><glyph d="M604 1051l-8 -213v-19l2 -55v-31l-2 -90q0 -117 88 -117l96 6l51 -6l66 4q31 0 51 -32t23 -72v-25q-4 -111 -4 -163l6 -115q0 -53 -26 -88t-77 -35l-88 6h-24l-238 -6l-82 2h-106q-6 0 -96 -8h-25q-98 7 -119 57q-12 29 -12 65t2 48l2 33v225l-10 203v41l2 86v30l6 136 v36l-4 148q0 174 20 220t107 46l127 -6l63 6q41 4 58 4q93 0 121 -35t30 -96v-190z" glyph-name="L" horiz-adv-x="976" unicode="L"/><glyph d="M516 1372q63 0 94 -31q14 -14 46 -65t70 -93q40 -42 71 -79q31 -31 42 -39t23 -8q39 0 123 137q76 113 80 119q47 57 96 57h13q7 0 65 -4h37l45 2h16l140 4q80 2 112 -37q16 -25 17 -51v-10q0 -16 -7 -62l-4 -53l-2 -69v-21l2 -47v-16l2 -105q2 -37 -5 -130t-3 -208 l8 -217v-100l7 -123q4 -81 -27 -105t-82 -24h-22l-123 6h-31l-141 -8q-59 -2 -85 20t-26 56l2 102q0 20 -6 70v22l2 19v8l2 45q2 16 0 49t0 49l2 51q2 51 -29 52q-20 0 -49 -31q-30 -31 -39 -39l-24 -23q-68 -63 -86 -63t-56 24l-32 21q-12 8 -60 61q-27 27 -47 27 q-31 0 -31 -35l9 -59v-107l2 -84q0 -29 -4 -36t-5 -25l5 -113q0 -53 -66 -53l-119 2l-37 -2h-41l-47 2h-55l-80 -2q-106 0 -104 117l12 125l4 53q8 103 8 111t-6 94l-2 94l8 188v174l2 45v39q-2 59 -6 85t-6 69l-2 45q-4 86 37 119q27 25 82 20l106 -6q117 -4 151 -2t54 2z " glyph-name="M" horiz-adv-x="1679" unicode="M"/><glyph d="M74 84q0 32 8 110q8 76 8 177l-2 231q0 95 8 283l8 176q2 37 -9 94t-11 92q0 80 32 108t138 15q88 -4 143 1t110 5t80 -18t50 -55t41 -65t24 -40l54 -76q26 -39 28 -50t37 -58l49 -66q10 -14 33 -14q29 0 29 41v29l-2 14v149l-6 97v14q3 94 106 94h35q25 0 70 -4l30 -2 h33l33 2q41 2 74 2h22q131 0 131 -135l-12 -199v-43l4 -100l-2 -51v-35l-8 -109q0 -6 6 -86l4 -94v-10l-4 -197v-114l2 -43l8 -66v-20q-2 -33 -29 -56q-31 -18 -55 -18h-4l-37 2l-33 4h-38l-140 -6h-16q-74 0 -95 11t-47 42q-26 30 -44 48q-18 17 -62 87q-45 70 -74 103 t-38 51t-23 37l-14 18q-6 8 -22 34t-46 28q-15 0 -25 -27t-6 -76l4 -61q0 -14 -2 -60l-2 -32v-52l8 -79q0 -68 -90 -68l-209 4l-161 -2q-38 0 -60 26t-22 58z" glyph-name="N" horiz-adv-x="1531" unicode="N"/><glyph d="M1034 680q0 60 -28 110t-70 72q-94 49 -147 49t-87 -18q-36 -17 -40 -21t-28 -12t-45 -27q-19 -18 -41 -69t-22 -92q0 -42 31 -88t43 -60t51 -38t71 -23q32 0 101 6l35 2q39 0 70 31q106 95 106 178zM840 -33q-289 1 -421 63t-212 158q-29 37 -78 95t-57 70t-9 25 q-2 14 -23 87q-20 71 -20 141t13 175t23 130q9 25 20 45q10 20 22 47t25 52q12 25 20 42t22 32t29 27q16 10 78 68t97 76q176 95 401 99q164 0 282 -49q24 -10 76 -33t102 -43q48 -20 68 -34q20 -15 48 -46q125 -152 155 -223q55 -129 55 -256l-10 -107q-2 -20 -3 -62 t-9 -67t-30 -73t-46 -114q-25 -67 -51 -92q-26 -26 -102 -80q-77 -54 -95 -62t-58 -22q-40 -13 -103 -36q-115 -33 -209 -33z" glyph-name="O" horiz-adv-x="1579" unicode="O"/><glyph d="M897 814q0 92 -143 116q-33 4 -47 4q-65 0 -81 -24t-16 -53l2 -46l-4 -59q0 -29 15 -39q30 -30 151 0q6 2 18 3q53 4 79 33q26 27 26 65zM90 446v9l-10 157v13l6 157l-2 146q0 18 3 65t1 74l-4 104q-2 19 -6 53t-4 42q0 53 31 80t85 26l95 -6l131 8h55l139 4 q138 0 198 -11t160 -37t129 -37t109 -75t103 -90q31 -31 41 -59l16 -43q29 -80 31 -94l6 -80q2 -16 -12 -112t-17 -103q-18 -72 -69 -123l-82 -82q-94 -94 -258 -135q-100 -23 -205 -18l-33 2q-43 3 -76 -15t-33 -55t3 -55l4 -27l10 -53v-10q-2 -33 -23 -46q-29 -23 -80 -22 l-71 2l-101 -6l-57 6h-55l-90 -6q-40 0 -62 22t-22 60l10 147l-2 107l6 78q2 12 2 38z" glyph-name="P" horiz-adv-x="1406" unicode="P"/><glyph d="M770 565q0 55 70 97q36 20 66 20t85 -59q12 -12 21 -13q12 0 24 33q29 81 -7 139q-36 57 -40 62q-23 20 -51 26l-53 13q-59 20 -121 20t-160 -69q-18 -18 -42 -53t-23 -53q0 -19 2 -30v-24q0 -23 17 -68t28 -53l35 -27q27 -25 51 -39q41 -18 74 -18t49 12q8 9 8 11 l-25 43q-8 14 -8 30zM1565 700q-1 -66 -21 -138t-26 -79l-43 -59q-9 -8 -9 -31t19 -22l82 2q7 0 29 -17t22 -47l2 -76l2 -45l-2 -65l4 -64q0 -41 -20 -60t-43 -19l-117 2l-141 -2q-44 0 -127 65q-16 10 -28 10q-12 1 -70 -25q-60 -26 -130 -34l-80 -14q-88 -8 -95 -8t-105 6 q-98 8 -132 18q-35 10 -65 27l-104 67q-76 41 -136 93t-115 147q-54 96 -61 123q-33 137 -33 191t7 138q8 41 22 97q18 113 139 245l31 37l37 31q124 124 246 165q74 26 201 32l106 6l4 2q4 1 95 -11t143 -22q117 -34 164 -68q2 -2 11 -8t22 -16t54 -40t91 -87 q37 -49 51 -69t45 -81q29 -49 39 -82q35 -149 35 -215z" glyph-name="Q" horiz-adv-x="1603" unicode="Q"/><glyph d="M610 821q0 -41 4 -65v-17q7 -37 56 -38t116 24q82 35 82 102q0 47 -33 71t-40 24l-70 6l-43 8q-40 0 -56 -20t-16 -35v-60zM1395 96q0 -96 -90 -96h-146q-111 0 -170 28t-142 87t-119 89q-37 29 -64 29q-49 0 -50 -63q0 -23 4 -35l7 -22q2 -2 2 -9l6 -26v-15 q-8 -67 -74 -67h-8l-70 4l-104 -4q-20 -2 -53 3t-66 5h-8l-55 -6h-25q-45 0 -71 26t-21 62l4 35q6 49 6 160l-6 90q-2 0 0 30v29q10 197 8 268l-2 183v45q0 4 -4 41l-6 106v74l-4 86q0 93 56 116t177 23h33l166 -6l135 10l94 -8h119q220 -4 348 -121q51 -45 85 -109t47 -86 q43 -72 43 -175q-1 -103 -50 -191l-41 -74q-29 -53 -117 -94l-49 -24q-14 -4 -14 -22q0 -48 90 -48q54 0 70 5t43 5q86 0 86 -96v-37q-4 -40 -4 -57l-5 -49q-4 -43 2 -53t7 -46z" glyph-name="R" horiz-adv-x="1419" unicode="R"/><glyph d="M905 970q-35 -30 -66 -30t-75 12q-43 12 -69 13q-25 0 -53 8t-40 8t-36 -10q-22 -10 -21 -23q0 -10 12 -24t26 -18t24 -9q11 -6 46 -15l42 -12t89 -48t113 -68q63 -50 85 -78t40 -66q16 -38 29 -62t21 -61q9 -35 9 -53t-3 -38t-8 -80q-5 -58 -7 -64q-14 -68 -98 -137 q-85 -70 -151 -104t-204 -34q-26 -1 -55 1t-80 0t-163 11t-158 17t-64 20t-28 26q-10 11 -11 59l2 129v34l-4 33q-8 66 20 102q28 35 57 35q30 0 70 -11t64 -13t52 -9q30 -7 99 -20l44 -8q25 -4 34 -4q55 0 56 41q0 20 -25 29l-53 18q-85 28 -157 74q-71 47 -93 61t-45 34 t-60 66q-36 45 -38 50q-54 111 -56 237q0 45 18 92t36 86t59 83t82 69q123 80 399 80l84 -8l60 -2q41 0 96 -21q92 -31 92 -90l-4 -74l-2 -63l2 -100q0 -41 -35 -71z" glyph-name="S" horiz-adv-x="1099" unicode="S"/><glyph d="M266 1364h35q35 0 71 3t72 1l281 -6q47 0 81 5t118 5t118 -23t33 -75q0 -10 -8 -100v-54l6 -127q0 -67 -76 -67l-77 6q-62 0 -98 -27t-36 -118t5 -111q1 -30 -5 -64t-6 -202v-195q0 -33 7 -70t7 -63t-22 -50q-24 -26 -42 -31t-77 -5l-133 4h-88l-74 -2q-55 0 -82 29 q-26 29 -26 71t4 70q4 27 2 108l-2 115q0 11 -3 37t4 91q7 66 7 102l-4 67l6 137q4 53 -28 82q-14 14 -60 19l-47 4q-66 6 -85 12q-51 16 -48 96l4 103v39l-6 94q0 59 26 81t86 21l99 -8q41 -4 61 -4z" glyph-name="T" horiz-adv-x="1067" unicode="T"/><glyph d="M420 1368q2 0 63 2q109 3 109 -106v-15l-8 -129l6 -41v-35l-8 -63q-2 -14 -1 -62t-5 -87q-7 -40 -7 -68l4 -64v-18q0 -97 5 -102v-11q0 -20 17 -50q36 -64 171 -64q42 0 104 52q23 19 23 68v91l4 225l-10 59v109l4 59v123q-20 69 0 99t84 34h6l51 -2q20 -2 62 -2l84 -4 l129 10h20q104 -4 105 -125l-2 -67l2 -105q0 -39 -10 -88t-9 -108l6 -135v-72q-4 -238 -14 -281t-16 -55l-13 -31q-2 -6 -5 -18q-3 -11 -6 -21t-25 -44t-40 -68t-42 -57q-143 -131 -355 -126l-145 -8l-84 8h-17l-55 -4q-160 0 -250 67q-26 20 -72 48t-80 55t-63 80t-38 67 t-27 81t-15 135v86l4 67q0 2 -4 78t-2 158t-1 133t-3 84l4 104l-2 39v25q2 90 84 90l150 -2l49 2h84z" glyph-name="U" horiz-adv-x="1482" unicode="U"/><glyph d="M-16 1286q0 44 28 62t82 18l88 -4l86 2q66 -6 79 -6t71 6h10q43 0 73 -34t42 -85l12 -47q37 -105 53 -219l49 -176q19 -113 25 -121t16 -8t14 14t7 31q4 17 7 31t4 20t2 10t1 6l41 111q24 105 46 167t23 74t7 66q18 90 28 110t33 36q29 16 47 16l111 -2l72 8l88 -4l57 2 h37q41 -2 63 -31q29 -29 5 -102l-50 -145q-6 -33 -12 -79t-51 -171l-27 -86l-53 -146l-22 -78q-40 -84 -46 -100t-16 -84t-45 -145q-25 -70 -47 -148q-16 -43 -40 -50t-40 -7l-96 -2q-49 -6 -84 -6t-148 10h-30l-101 -8q-77 0 -101 30t-40 74l-20 74l-21 45l-20 86 q-38 99 -41 112q-2 13 -6 35t-13 59q-8 38 -46 123t-54 142t-53 232q-23 93 -37 126l-35 82q-12 29 -12 74z" glyph-name="V" horiz-adv-x="1382" unicode="V"/><glyph d="M16 1366q16 0 23 -2h12l193 4l118 2q84 -2 103 -10q31 -16 43 -56t20 -102l50 -147q0 -12 14 -82l49 -144q8 -38 15 -62q6 -25 10 -39t6 -18t4 -12q10 -36 35 -38q18 -1 32 26q61 133 62 199q0 25 -27 110q-14 70 -19 85t-28 63l-22 86q-27 75 -27 99t18 31t113 11l45 -2 l14 2l74 -4q43 2 116 2q72 0 102 -6t46 -37q4 -10 31 -182q2 -14 35 -94q6 -20 24 -123q25 -104 27 -117q18 -115 57 -115q14 0 20 8t20 66q12 57 42 150q4 20 10 51t17 79q10 48 47 162q0 128 39 146q29 16 213 16l43 -4l166 2q37 0 57 -27q44 -44 -8 -185q-30 -79 -33 -81 l-18 -98q-4 -20 -33 -99t-37 -108l-12 -43q-2 -14 -21 -104q-4 -10 -49 -129q-33 -122 -39 -136t-13 -35t-34 -85q-59 -162 -79 -194t-42 -40t-62 -8t-87 2h-76q-11 -2 -33 -2t-45 2h-51l-92 -4q-48 0 -62 14t-42 86l-23 64q-8 18 -16 68t-29 71q-4 4 -8 4q-12 0 -23 -24 q-6 -23 -16 -49q-9 -26 -23 -72q-14 -45 -39 -90q-25 -46 -37 -58t-73 -12l-160 8l-170 -10q-96 0 -129 57q-12 31 -35 99q-25 125 -27 134q-2 10 -39 116q-38 106 -65 216t-35 125l-43 115q-68 257 -99 331t-31 107q-1 33 22 56q8 14 24 14z" glyph-name="W" horiz-adv-x="2048" unicode="W"/><glyph d="M930 1372q60 0 104 -4h47l47 -2q48 -2 92 4t72 6t52 -22q22 -22 22 -66q0 -43 -55 -123l-18 -24q-11 -17 -37 -63t-37 -62l-35 -49q-6 -10 -24 -32q-70 -89 -70 -110q-6 -12 -37 -54t-35 -77v-12q4 -43 41 -93t59 -81l29 -37l45 -76q24 -43 50 -75t40 -62q14 -31 27 -49 l37 -57q41 -68 40 -99q0 -53 -65 -53h-150l-141 4q-20 2 -62 -2t-76 -4q-67 0 -98 69q-9 19 -12 21l-30 49q-6 19 -35 78q-29 60 -53 59q-16 0 -91 -110q-14 -20 -22 -33l-64 -94q-10 -18 -34 -33q-27 -10 -47 -10l-103 6l-65 -4l-43 2h-35l-94 -6q-42 0 -64 32t-22 78 t49 117l174 254q18 29 39 64q20 35 64 97t42 78q-1 44 -93 165q-13 17 -31 41t-34 45l-34 43q-14 16 -39 60t-49 83l-35 53q-35 35 -35 80q0 46 20 66t80 20l78 -2l66 2h57l61 -2h23l92 2q51 0 72 -15t41 -61l33 -78q33 -74 51 -84l10 -4q14 0 35 41q2 2 35 52l16 22 q8 10 28 48t47 61q27 22 87 22z" glyph-name="X" horiz-adv-x="1366" unicode="X"/><glyph d="M420 259q0 85 -4 131q-9 105 -125 294l-139 227q-82 131 -102 189t-57 111q-36 54 -36 89q1 34 21 54t79 20h27l66 -8l49 4l22 -2q23 -2 70 -2h35l108 6q10 0 43 -22q29 -29 43 -90q6 -16 13 -28t61 -116q54 -106 68 -115q12 -6 20 -6q23 0 94 113q12 20 44 64t60 94 t36 62q9 12 42 26q34 16 54 16t38 -2t124 0h45q45 -2 82 2t38 4q66 0 87 -26t8 -82q-4 -12 -20 -37t-23 -46q-8 -21 -36 -57q-29 -35 -55 -91t-142 -224q-181 -261 -200 -365q-10 -78 -10 -184t6 -130q19 -78 -6 -109q-26 -32 -76 -31l-67 8q-19 4 -67 0t-64 -4l-94 2 l-80 -4q-94 0 -94 88l12 80q2 12 2 97z" glyph-name="Y" horiz-adv-x="1392" unicode="Y"/><glyph d="M39 122q0 40 2 100t-1 105q-3 44 -3 56q-1 13 25 55t48 64t32 42t16 27l53 68q12 18 49 87t51 93l25 49q0 23 -4 29q-13 32 -68 16h-16q-22 0 -44 -8t-73 -8t-69 14t-21 60v164l-2 65v43q4 53 22 80q33 45 127 49h31l162 -10l201 8l92 -4l225 2q55 0 92 -33 q38 -29 27 -171q-6 -79 -8 -120q-2 -42 -27 -72t-43 -48t-28 -30t-27 -48q-18 -35 -57 -85q-50 -64 -50 -73q0 -22 -84 -144q-38 -55 -4 -69q12 -4 70 -4l61 2l27 -2q44 -6 92 -2h12q6 0 8 -1t21 -5q17 -4 33 -27t18 -37v-14q0 -8 5 -49t5 -142q0 -100 -7 -130 q-11 -47 -58 -62q-14 -6 -41 -6t-66 3q-40 3 -104 2t-104 -1l-70 2l-260 -2l-86 4l-43 -2l-35 2l-51 -2q-58 0 -72 53q-6 27 -6 67z" glyph-name="Z" horiz-adv-x="1073" unicode="Z"/><glyph d="M76 1260q0 106 127 106h90q43 0 94 2h29q33 0 76 -2l170 2q68 0 86 -68q10 -35 10 -213q0 -72 -37 -100q-27 -16 -82 -16h-51q-55 0 -64 -70q-6 -49 -6 -174v-207l-2 -74q0 -113 8 -159q8 -70 64 -70h12q16 2 58 2q100 0 100 -119q0 -194 -15 -223q-23 -53 -81 -53 l-170 2q-41 -2 -84 -2t-115 2h-90q-127 0 -127 106v111l4 96q0 39 -2 90v199q0 37 2 88l-2 59q-2 57 -2 95l4 125q0 45 -2 73v74q0 35 2 86v21l-4 98v113z" glyph-name="bracketleft" horiz-adv-x="808" unicode="["/><glyph d="M45 1313q0 57 80 57q44 0 78 -4q133 6 171 6t56 -18t40 -68t28 -61q8 -12 20 -34t27 -44q12 -4 162 -326q69 -143 161 -328t140 -285t141 -271q16 -29 16 -56q1 -55 -73 -55l-109 2l-154 -8q-33 0 -55 14t-57 98q-3 8 -15 28t-30 54q-18 35 -36 63t-42 85l-117 233 q-12 25 -39 76q-28 51 -46 88l-41 83q-24 46 -35 70t-15 29l-158 346l-88 181q-10 25 -10 45z" glyph-name="backslash" horiz-adv-x="1171" unicode="\"/><glyph d="M727 141q0 -14 6 -98v-111q0 -106 -129 -106h-88q-74 -2 -117 -2t-84 2l-168 -2q-70 0 -88 65q-6 33 -8 142v71q0 74 37 101q26 16 62 16t57 -2h14q43 0 56 42t14 267v41q0 35 -2 68l2 35v57q0 133 -8 174q-8 70 -64 70h-55q-55 1 -84 25t-29 91v70q4 133 12 158 q23 53 84 53l168 -2q43 2 78 2h29q51 -2 94 -2h88q129 0 129 -106v-113q-6 -82 -6 -98l4 -88v-23q0 -43 -2 -70v-71l4 -129l-4 -148l2 -94v-176l-4 -90v-19z" glyph-name="bracketright" horiz-adv-x="808" unicode="]"/><glyph d="M387 672h-387l264 704h496l264 -704h-385l-127 403z" glyph-name="asciicircum" unicode="^"/><glyph d="M0 -84h1024v-258h-1024v258z" glyph-name="underscore" unicode="_"/><glyph d="M594 1444q35 0 70 -48q10 -15 42 -71t31 -70q0 -25 -32 -24l-54 2l-49 -2q-67 1 -107 17t-67 24l-86 24q-14 4 -46 16t-81 25q-49 14 -63 25q-14 12 -15 37q0 45 49 47h21l67 -2h86l58 -2q49 -4 164 2h12z" glyph-name="grave" unicode="`"/><glyph d="M645 311q37 -1 59 21t21 50q1 28 -23 43t-47 15l-75 4q-38 4 -62 -22t-24 -51q0 -64 67 -66l45 6h39zM791 43v12q-1 9 -7 17t-19 -1t-21 -13t-37 -21l-19 -10q-85 -47 -188 -47t-118 5t-30 11t-81 25q-66 20 -85 32q-159 129 -159 301q0 64 39 148q37 84 85 128t97 54 l55 14q41 10 64 22t107 11q100 0 160 -12t86 -12q26 1 26 27q-1 37 -74 69q-16 6 -74 8l-80 4q-58 0 -117 -10l-82 -14q-20 -5 -35 -9t-38 -4t-39 14q-17 14 -23 29q-6 14 -6 88v39l-2 25v12l-2 39q0 41 29 57q29 15 87 23t210 16l43 2q6 0 23 2t40 -1t45 -3l51 -2h50 q40 0 112 -9t110 -25t98 -61t80 -69t46 -88t23 -139l-7 -119q-2 -35 1 -85t4 -97v-78l-11 -178l11 -84q0 -51 -29 -74q-25 -16 -53 -16l-58 4h-94q-51 0 -100 -4l-56 -4q-38 0 -38 51z" glyph-name="a" horiz-adv-x="1277" unicode="a"/><glyph d="M712 688q-34 0 -83 -24q-63 -30 -63 -86t9 -78q11 -22 45 -42q34 -22 85 -20l32 2q37 2 54 11q77 35 77 113t-84 110q-38 14 -72 14zM502 1374q29 0 47 -19t18 -46l-4 -62q-2 -14 0 -43t0 -43l-4 -55q0 -33 23 -33q6 0 19 5l39 15q90 31 147 31t157 -15t189 -85 q20 -16 40 -30t39 -33q20 -25 64 -101q12 -25 32 -81t32 -83t20 -53t8 -89q0 -62 -25 -144t-54 -118t-41 -60t-50 -76q-37 -52 -120 -96t-134 -60t-78 -18t-82 -2q-56 0 -126 15t-107 46l-23 18q-16 16 -26 7q-6 -12 -10 -25l-9 -29q-12 -35 -92 -18l-33 6l-47 -4l-172 -8 q-76 0 -76 75l3 52l4 288l10 152v41q0 68 -7 88t-7 100v86l8 160v19q0 43 -2 81l-6 130v18q0 64 26 80t68 16l147 -8h37l86 6h45l14 2h13z" glyph-name="b" horiz-adv-x="1384" unicode="b"/><glyph d="M872 770q0 -66 -24 -90q-13 -16 -31 -16l-184 -5q-67 1 -97 -35t-30 -91q0 -92 106 -99l60 -2l65 -4l64 6q31 0 50 -22t19 -54l-8 -137q-2 -18 6 -80l4 -41q6 -68 -79 -102q-37 -12 -144 -12t-139 7q-34 7 -56 9t-82 20t-118 66q-25 18 -39 36t-61 57q-114 97 -134 286 q-6 68 -6 125t25 119t31 82l14 28q16 29 64 91t80 92q30 30 83 57q96 53 281 53h160q118 0 116 -78l-2 -168l6 -75v-23z" glyph-name="c" horiz-adv-x="903" unicode="c"/><glyph d="M518 550q0 -58 60 -91q49 -31 99 -31t106 25q57 25 57 89t-31 95t-66 35l-73 12q-52 0 -102 -38t-50 -96zM823 1075q29 0 29 35v94l-8 80q0 40 25 66t75 26l100 -6h46l61 4h70l49 2q35 0 54 -26t19 -64v-31q0 -29 -7 -86t-7 -125v-24l6 -80l4 -47v-37l-2 -29l-2 -55 q-2 -62 -2 -106t-2 -76v-19l4 -67q2 -51 -1 -75q-3 -23 -1 -61t2 -60t-2 -69q-2 -46 0 -71l2 -33v-12l2 -43q0 -90 -80 -90l-55 4q-78 0 -102 2l-53 4q-25 2 -45 -4t-58 -6h-6q-56 0 -69 26q-3 8 -3 23v12q0 25 -18 25q-8 0 -60 -47l-10 -4q-48 -27 -64 -29t-34 -3t-35 -3 l-29 -4q-86 -12 -190 18l-41 12q-72 23 -90 41l-62 60q-4 4 -32 26t-74 90l-57 93q-56 96 -56 189q0 163 72 319q29 58 93 122q121 122 243 150q16 4 147 14l62 4q12 0 88 -14l35 -8q20 -4 40 -16t29 -11z" glyph-name="d" horiz-adv-x="1406" unicode="d"/><glyph d="M610 805q-129 1 -129 -45q0 -50 51 -51l70 2l66 4l32 -4h17q17 0 35 11q18 12 18 28t-26 36t-91 23h-6l-14 -2h-4zM1200 688q0 -24 6 -61l6 -49q4 -25 -5 -59q-19 -73 -87 -73l-92 -2l-147 -8h-19q-53 0 -80 4t-39 4l-36 -4h-58l-76 2q-66 2 -65 -41q0 -19 35 -41t94 -22 h65l99 -8h133q51 0 92 10l45 10q41 10 61 -12t19 -40q0 -18 -4 -53q-4 -34 -2 -61l6 -78q6 -74 -31 -92q-47 -27 -153 -32l-72 -5l-158 -8q-47 0 -129 15l-39 6q-98 16 -148 34t-124 56q-133 72 -225 244q-57 106 -58 237q0 37 12 86q16 67 26 117q11 51 38 92q26 41 74 99 q48 59 76 74t58 25t51 23q21 12 45 21q24 8 34 10t21 6l22 6q51 14 131 14t277 -44q49 -10 151 -86q31 -23 81 -82q49 -59 69 -135q20 -75 20 -99z" glyph-name="e" horiz-adv-x="1226" unicode="e"/><glyph d="M66 662v192q0 43 -5 113v59q4 123 35 174q12 20 49 62t61 60q24 20 52 28t52 12t71 14t84 10l67 -4h72q52 0 94 -14q72 -14 84 -68v-4q4 -8 4 -28l2 -62v-37q0 -145 -88 -145q-24 0 -60 10t-48 10t-24 -14q-11 -14 -11 -29q0 -55 66 -51l24 2l33 2q43 0 58 -14t18 -43 l12 -186q6 -86 -37 -129q-14 -16 -24 -19h-9l-18 -2l-72 4q-20 0 -35 -10q-20 -16 -20 -39l4 -186q0 -28 -5 -94t1 -115l4 -53q0 -35 -18 -54q-23 -18 -39 -18l-199 4l-18 -2h-13l-32 -2h-23l-53 -2q-66 0 -85 28t-20 117v25l6 137l-2 129l7 88v25q-2 56 -2 119z" glyph-name="f" horiz-adv-x="788" unicode="f"/><glyph d="M661 549q81 0 115 39q18 20 18 52t-45 56q-46 24 -69 25l-86 4q-55 0 -78 -29t-22 -57q0 -55 43 -73t124 -17zM805 -176l-71 -8q-29 0 -59 2t-115 5t-152 13l-70 12q-28 4 -34 6l-8 4q-3 1 -8 4t-62 17q-56 13 -82 39t-27 46q0 20 7 79q7 60 6 76t-1 28t13 32 q14 20 48 20t74 -15l90 -30q63 -23 97 -25l67 -4l84 -8l76 8q70 6 83 17t13 24q0 33 -35 35h-10q-6 0 -11 -1t-39 -4t-53 -6q-18 -4 -46 3l-45 2q-70 3 -168 31q-211 61 -293 192q-60 94 -60 182t6 131t8 65q0 22 26 71t44 67l39 41q58 60 94 84q14 6 42 14t75 31 q25 10 149 10q125 0 155 -5t67 -24l35 -18q14 -7 38 -29t32 -22q10 0 14 24t6 27q16 35 74 35h8l114 -8h23l55 6q25 4 45 4q74 0 101 -39q23 -29 22 -59l-6 -129q-2 -17 2 -61t4 -64l2 -41q2 -41 -3 -77t-5 -63v-28q0 -14 2 -42t4 -65l2 -51l-4 -127v-45q0 -90 -8 -126 q-8 -37 -24 -63t-40 -58q-23 -32 -26 -38q-36 -44 -89 -66q-57 -24 -97 -26q-40 -3 -140 -8z" glyph-name="g" horiz-adv-x="1345" unicode="g"/><glyph d="M229 1376q49 0 87 -5t59 -3l94 8q53 4 73 -28t19 -64l-2 -45l2 -35q0 -10 -3 -28t-2 -30t1 -28l-4 -53q0 -31 22 -31q12 0 34 16q21 16 43 25t40 19q39 22 105 22l28 -2q106 0 142 -14t51 -21q14 -8 18 -10t14 -8t22 -20q13 -13 29 -24q15 -11 49 -83t45 -138t13 -212 l2 -90l2 -56l-8 -53v-94l-6 -70v-14l12 -96l2 -25q6 -45 -22 -70t-72 -24l-108 8h-35l-103 -6q-158 0 -159 74v4l6 41v82l6 69v23l-8 55l2 141q0 66 -39 107q-18 22 -55 22t-49 -24t-20 -68q-7 -44 -5 -59l4 -39l2 -64q0 -14 -7 -87t1 -115l4 -31q-2 -25 3 -42t-3 -31 t-9 -22q-2 -10 -14 -16t-19 -10t-27 -4h-39h-218l-30 -2h-19l-24 -2q-55 0 -74 33q-20 41 -14 143l4 61q2 35 2 56l-2 51v10l-4 96q0 27 4 65t2 56l-8 172q-2 43 6 123v70l4 108l-2 103l-2 35l2 47v35l-2 34q0 35 18 59t78 23h61z" glyph-name="h" horiz-adv-x="1275" unicode="h"/><glyph d="M481 1407q79 0 82 -59l4 -95q4 -79 -63 -79l-27 2l-33 2q-26 2 -54 0t-62 -2l-72 4l-39 -2l-70 -2q-39 0 -50 18t-11 70l2 77q0 35 15 51t38 13l27 -2l65 4q39 0 70 -4t42 -2t17 2l93 4h26zM479 1114q96 0 88 -131l-8 -233l4 -148v-20l-6 -111v-127l-2 -135v-27l6 -69 q4 -55 -28 -87t-91 -32l-75 6h-33q-78 0 -170 -6h-25q-27 2 -51 31t-25 90l7 141l-7 117v12q0 16 7 81t4 193l-4 80l8 236v16l-2 29v22q0 70 98 70h6l29 -2q19 -2 27 -1t20 1l96 -4l117 8h10z" glyph-name="i" horiz-adv-x="632" unicode="i"/><glyph d="M147 1178q-43 0 -55 20t-12 78v65q0 31 26 48t70 16l135 -8q27 0 43 2t68 4l49 2h6l12 2h3q53 0 65 -31q8 -18 8 -73v-35q0 -56 -14 -70t-53 -16h-70l-51 -4l-39 -2l-88 4l-57 -2h-46zM88 877q0 18 -3 25t-5 46l-2 47q0 51 34 85t76 34l70 -10l53 -6h27l156 6 q77 0 75 -133l-10 -269q-2 -28 2 -66t4 -63l-4 -180q0 -91 6 -127l2 -22v-15l2 -24l-4 -43q-2 -14 -3 -47t-5 -54l-6 -26q-52 -170 -356 -170l-81 8q-28 0 -71 18t-57 41t-15 88v146l-4 45v18q0 83 45 93h9q14 0 14 -4t18 -3h4q12 0 17 11q4 12 4 53l-2 59l4 166l-6 78v25 l12 157v13z" glyph-name="j" horiz-adv-x="628" unicode="j"/><glyph d="M565 862q0 -59 34 -59t68 45t50 135t55 113q20 10 51 10h35q31 0 45 2l47 6l62 -8q25 -2 49 -2h22l33 4l33 2q35 0 57 -28t22 -52t-16 -74l-28 -75q-2 -7 -10 -25t-29 -74t-38 -81t-21 -31t-16 -23q-13 -17 -21 -33q-29 -43 -29 -67t28 -60q28 -35 31 -41l56 -84 q18 -29 28 -53l13 -30q12 -33 58 -103t46 -98q0 -88 -123 -82l-164 4q-67 2 -109 -4t-56 -6q-43 0 -77 49q-33 49 -71 100l-47 82q-14 27 -37 27q-43 0 -43 -47v-17l2 -39v-30l2 -21v-8l2 -16q1 -30 -23 -52t-71 -22l-33 2l-102 4l-47 -2l-62 -4l-28 -2h-25q-53 0 -78 27 t-24 71l4 96q0 23 -2 35t0 45l2 56q0 55 -5 108t3 100l2 31l4 119q0 2 -6 168v37l12 192v60l-6 98q0 55 12 86q23 51 92 51l96 -6l109 4q69 6 107 4t60 -26t21 -121v-12l-6 -66l4 -70l2 -80l-6 -106v-33z" glyph-name="k" horiz-adv-x="1247" unicode="k"/><glyph d="M72 1207q-6 46 -6 78q0 31 28 59t58 28h96l69 2l70 -6l88 8q61 0 80 -28t18 -68l-6 -82v-108l6 -132l-10 -184l8 -158l-6 -61l6 -119l-2 -22v-8l-2 -58v-39q0 -55 7 -101t8 -56l2 -46q2 -28 -14 -60t-35 -41q-20 -9 -74 -9h-10l-35 2l-29 2l-47 -2l-107 -6h-32 q-138 0 -138 131q0 2 7 131l2 39q4 88 2 168l-2 125l2 41l2 73l2 31v19l-6 104v74l4 196q2 37 -4 83z" glyph-name="l" horiz-adv-x="649" unicode="l"/><glyph d="M1165 80q0 -96 -108 -90l-41 2l-43 4q-43 4 -76 4l-100 -8h-31q-84 0 -84 67l2 56l-6 55l6 262v17q4 12 4 32q0 133 -78 133q-23 0 -42 -22t-19 -68v-53q0 -37 4 -111v-26l-12 -135l6 -47q0 -92 -14 -123t-64 -31l-129 8l-162 -8h-20q-61 0 -82 33q-12 18 -13 67v31 q4 41 5 61l-5 314l5 123l8 86q0 51 -5 75t-5 54v193q0 27 16 48q18 33 80 33h12l145 -6l105 6q41 0 68 -14q12 -7 24 -64q4 -18 21 -22q18 8 33 27q16 19 24 25t30 16t38 19q14 9 22 11l23 2q53 4 69 10l10 9q33 -3 111 -25q77 -22 103 -36t65 -48q29 -20 49 -4l37 29 q66 51 139 65l27 6q12 4 35 4l20 9q88 -4 182 -48q42 -18 94 -63t66 -64t45 -110l25 -68q16 -47 16 -133v-14l-2 -31v-10l-2 -43q-2 -47 0 -109t2 -103q0 -42 -2 -67l-4 -61q-2 -25 7 -72t9 -88q0 -68 -71 -63l-31 2l-55 6l-82 -6l-105 6h-8l-92 -8h-12q-16 4 -35 22 q-20 25 -19 76l7 111v28q-1 23 -5 98q-4 76 -1 145t-23 107q-18 23 -43 23t-43 -25t-24 -39t-2 -46q3 -34 3 -46v-92q0 -57 -14 -127l6 -53l4 -29q2 -16 2 -61z" glyph-name="m" horiz-adv-x="1869" unicode="m"/><glyph d="M84 684q0 51 -8 125t-10 104l-3 35q-4 82 46 135q30 35 114 31l45 -2q20 0 38 -4t48 -2l64 4q16 2 25 -1t14 -3h16q48 0 57 -39l9 -41q4 -23 10 -25h2q6 0 29 26t28 30q29 25 109 51t112 27l74 -19h33q26 0 46 -3t71 -36t71 -57t55 -83t36 -72q2 -13 9 -57t7 -108v-65 l8 -96l4 -125q0 -6 -1 -16t-2 -32q-1 -24 -6 -95t-3 -93l8 -88q6 -55 -27 -84q-16 -16 -44 -16l-38 2l-55 2l-88 -6l-90 8l-76 -2q-47 -2 -76 26q-18 24 -18 46t4 43l6 49q4 40 4 135v24q4 41 4 51t-4 19l-4 27q-2 14 -2 46t-3 40t-5 25t-14 41t-33 36q-25 12 -35 12 q-51 0 -63 -69l-4 -41l-5 -25q-6 -49 -6 -57l8 -80l-6 -137v-45l17 -92q0 -35 -28 -55t-60 -19l-56 6l-67 6q-12 2 -35 -2t-33 -4h-20q-16 2 -45 2l-115 -2q-25 0 -45 25q-18 25 -19 57v27l11 132l6 97v70l-6 122l10 134v20z" glyph-name="n" horiz-adv-x="1306" unicode="n"/><glyph d="M862 545q0 51 -48 93t-101 44l-31 -2l-47 2q-1 0 -23 -6t-39 -21q-66 -51 -65 -106q0 -35 17 -62t35 -35q90 -36 120 -36l31 6l32 4q39 8 60 21q19 13 39 45t20 53zM28 456q-14 42 -14 89t9 82q37 154 75 211q98 147 181 190q94 54 140 68q47 14 131 26t147 12t120 -12 q57 -14 79 -19t36 -5q34 0 72 -25q115 -68 157 -115l76 -84q30 -33 34 -56q7 -35 25 -57q17 -21 33 -90q33 -142 4 -231l-16 -55q-25 -83 -53 -121t-45 -67q-18 -29 -31 -41q-4 -8 -6 -10t-105 -76l-67 -50q-8 -6 -95 -28t-147 -23l-57 -2l-56 2q-88 0 -100 2l-51 9 q-68 10 -150 50t-98 54l-88 88q-85 82 -119 179q-6 17 -6 40q-1 23 -15 65z" glyph-name="o" horiz-adv-x="1359" unicode="o"/><glyph d="M885 565q0 45 -64 90q-23 13 -36 17t-50 4l-45 2q-51 2 -100 -47q-31 -37 -31 -88t34 -77t73 -28l32 -2l54 -8q66 0 110 61q22 31 23 76zM543 1034q10 0 18 5l24 15q15 9 33 17l46 19q60 24 166 24q178 -1 276 -70l86 -57l31 -35q73 -79 87 -106q15 -27 22 -47t16 -37 l14 -31q31 -63 31 -158t-21 -163q-18 -76 -72 -165t-61 -102q-35 -47 -137 -98q-111 -51 -147 -59q-37 -8 -149 -8t-154 15q-58 23 -86 23q-23 0 -23 -28l4 -49q2 -19 4 -29t2 -29q-1 -19 -21 -38t-63 -19l-129 6l-49 -2h-51l-35 2l-70 -2q-37 0 -41 2q-25 8 -28 74v16l8 76 v18l-4 72l4 152q2 34 -1 80t-3 55l2 24v13l2 51v71l-2 70l2 254v23l-8 90l-3 24q-4 61 28 88t83 27l45 -2q28 -4 37 -4l76 4h63l47 2q46 0 78 -52q13 -22 23 -22z" glyph-name="p" horiz-adv-x="1406" unicode="p"/><glyph d="M706 659q-85 0 -133 -28q-49 -41 -49 -96t43 -91q45 -35 105 -34q4 0 39 6q61 4 92 22q59 41 59 105q0 35 -31 65q-20 25 -40 31l-27 6q-44 14 -58 14zM859 1026q7 0 9 2l25 53q16 31 127 31q35 0 82 -2h74q86 4 92 4q89 0 92 -80q0 -16 -8 -71v-33l-6 -88q0 -8 3 -40 t7 -208l2 -39v-131l2 -111l-6 -73l-2 -39q-4 -111 -4 -141t4 -60l14 -70q2 -4 2 -14q0 -84 -82 -84l-80 2l-51 -2l-111 2q-60 -2 -122 -2t-62 53l6 90q0 25 -15 37t-27 12t-76 -24t-168 -24t-181 28q-76 29 -149 92q-74 53 -121 119q-51 59 -59 92q-48 147 -52 163t-4 50 t3 79q3 44 36 134q36 122 72 152l35 41q59 78 164 127q119 68 225 67q16 2 49 -6q74 0 126 -10t90 -44t45 -34z" glyph-name="q" horiz-adv-x="1431" unicode="q"/><glyph d="M428 1114q72 0 77 -60q1 -11 3 -18q0 -18 17 -18t54 40t91 48q53 8 104 10h51q47 -4 69 -33t21 -61l-2 -33v-20q0 -27 -3 -53t-1 -99v-67q0 -70 -32 -97q-31 -27 -67 -27t-75 12q-39 11 -79 11t-64 -26q-25 -26 -25 -50l2 -51v-184q-4 -29 -4 -55l8 -90l2 -21 q4 -25 5 -47q0 -127 -78 -131h-15l-159 8l-144 -12q-70 0 -94 28t-27 78v15q0 2 7 69l8 94v43l-6 207q0 54 6 156l2 35q2 31 -5 91t-9 144v47q2 72 30 94q29 22 78 21l100 -4h29l96 6h29z" glyph-name="r" horiz-adv-x="905" unicode="r"/><glyph d="M834 844q0 -88 -16 -109q-39 -50 -210 19q-45 18 -64 9t-20 -28v-6q4 -12 27 -23t83 -33t114 -50t64 -39q8 -12 26 -32t40 -46t29 -50q5 -24 15 -60t10 -60q0 -128 -107 -247q-8 -9 -21 -18t-17 -13t-38 -19q-150 -68 -321 -68q-104 -1 -166 13t-96 22t-56 12 q-24 4 -53 20t-35 32q-6 18 -2 57t0 119l-2 78q0 29 11 47q10 25 32 41q25 16 35 16t140 -39t150 -39q42 0 28 43q-6 15 -46 27t-50 16q-9 4 -16 7t-17 9q-9 6 -57 26t-68 34t-67 64q-46 50 -56 109t-11 70t-2 18t-1 13q0 199 168 279q21 9 55 27q78 41 217 42 q138 1 227 -22q94 -20 120 -42t28 -65l-4 -94v-67z" glyph-name="s" horiz-adv-x="950" unicode="s"/><glyph d="M102 702q0 45 -12 53q-12 9 -14 11t-25 6q-37 12 -39 45v8q6 78 4 101l-2 73q-4 84 15 107t67 41q48 19 67 35t47 40t54 44t62 55q51 49 88 53h57l27 2h22q41 -2 50 -14t10 -55l-2 -131q0 -61 38 -62l105 8q29 0 35 -55q2 -21 1 -73t1 -95t2 -78q0 -68 -66 -67h-10l-53 4 q-43 0 -48 -45t-1 -119v-131q0 -70 34 -70l56 6q68 0 84 -55v-12q-4 -25 -4 -39v-107l8 -63v-12q-2 -33 -20 -63t-44 -40q-72 -27 -254 -26q-40 0 -122 13q-174 27 -205 118q-18 51 -19 163l6 89l-6 77q-2 16 -2 47l8 181v32z" glyph-name="t" horiz-adv-x="784" unicode="t"/><glyph d="M422 1110q11 0 51 4q104 0 102 -121v-6l-6 -88l2 -108l-10 -146q-1 -57 13 -101t26 -57q12 -12 39 -12q45 0 61 68l11 100q2 25 2 53l-2 119l6 96l-6 129q0 39 21 58q22 18 48 18l74 -6q14 0 60 4t58 2t17 -2l37 2l25 -2l69 4q41 0 73 -24t32 -68q0 -14 -2 -34t-6 -65 q-3 -46 -7 -81t-4 -84t4 -129t2 -111l-6 -73l2 -105q0 -6 -5 -85t-2 -87q19 -50 20 -113q0 -19 -27 -41t-72 -22l-166 4q-18 0 -51 -4l-24 -2q-92 -2 -105 29q0 2 -5 8t-10 18t-13 29q-4 4 -13 4t-28 -22t-40 -41q-21 -20 -102 -32q-81 -13 -111 -13t-100 11q-70 12 -114 35 q-47 20 -71 39t-50 59q-27 40 -35 72t-14 174q-6 144 -7 148l5 74l4 32l-2 50v63l-2 98l4 54q-11 196 34 221q20 10 70 10l80 -4q26 -2 54 0t40 2l64 -2h8z" glyph-name="u" horiz-adv-x="1286" unicode="u"/><glyph d="M-39 1053q0 51 55 55h123l64 2l73 -4h7l96 8q47 0 77 -34t47 -167q4 -37 14 -77q9 -39 12 -67t18 -82t24 -111q7 -56 23 -56t16 37q0 7 3 23t9 78t19 114q22 91 29 134q21 146 59 184q23 23 68 26h26l47 -2h93q37 -4 57 -4l86 6q42 0 64 -26t22 -69q0 -42 -28 -109 q-28 -66 -39 -134t-30 -115t-26 -89q-7 -41 -16 -56q-11 -36 -22 -80q-11 -43 -33 -88t-50 -129t-33 -94q-23 -98 -63 -121q-23 -12 -51 -12l-51 2q-37 6 -113 4l-98 -2h-72l-61 -2q-76 0 -101 43q-9 15 -27 66t-42 113t-32 109q-9 46 -31 94q-21 48 -54 138l-37 103l-13 32 q-9 22 -13 34q-4 11 -12 38q-7 27 -12 40t-13 37t-16 62q-9 39 -19 61q-24 56 -23 87z" glyph-name="v" horiz-adv-x="1159" unicode="v"/><glyph d="M715 -8l-118 8q-40 0 -99 -6q-90 0 -99 2q-39 2 -61 29q-18 18 -35 67l-24 80l-23 53q-65 192 -75 237q-11 46 -48 116l-37 90l-30 63l-39 109q-57 114 -67 146t-9 62q0 30 35 54q20 10 47 10l127 -6q63 0 121 8h32q76 0 103 -57l28 -84l11 -21l14 -39l10 -20l41 -113 q53 -160 66 -180q10 -10 22 -10t29 16q18 28 18 48t-12 63l-10 41l-23 65l-30 117q-6 16 -14 36q-20 49 -21 60l-2 35q0 23 12 35q16 12 23 10l73 -2l8 -2h140l119 4q44 0 70 -36t28 -56l10 -68l10 -49l4 -22q31 -88 44 -166t40 -78q14 1 16 19t6 39q3 21 4 38t5 64l4 41 l4 63l11 37q12 96 16 117q23 53 65 53h105l51 4l84 -4h107q70 0 69 -72q0 -29 -10 -55l-27 -57q-10 -39 -26 -121q-12 -98 -24 -141t-18 -66q-5 -23 -7 -35q-1 -12 -5 -20t-58 -170t-62 -188t-33 -132q-14 -63 -92 -63l-45 4l-74 -2l-86 2q-76 -6 -88 -6q-74 0 -111 39 q-14 18 -16 26l-27 80q-10 25 -21 25t-22 -10q-12 -35 -37 -111q-16 -47 -67 -47z" glyph-name="w" horiz-adv-x="1642" unicode="w"/><glyph d="M166 -4q-10 0 -30 2t-47 -1q-25 -3 -59 -3t-47 18q-36 50 12 115q9 12 11 16q2 5 10 17t20 35t32 51l36 57q16 25 37 65t49 83l29 43q18 27 23 44q4 17 10 27q4 4 4 13v10q-4 23 -25 51l-24 37q-37 56 -83 110t-77 113l-61 123q-23 37 6 65q2 1 6 9q9 18 35 18l65 -2 l127 2h56q18 -2 53 -2l65 2q37 0 51 -12t27 -38q12 -26 17 -30l22 -35q4 -6 17 -35t26 -42q16 -11 31 31q4 11 6 15t7 16q5 13 19 31q15 18 36 51t37 42q17 8 49 8l92 -4l143 -2l100 6q55 0 78 -29q25 -25 25 -63t-54 -104q-8 -10 -16 -24t-50 -88q-42 -73 -71 -104l-35 -40 t-28 -52l-37 -73v-2l-2 -2v-11q2 -6 22 -37l35 -49q51 -72 74 -98l20 -29q25 -28 42 -72q18 -43 34 -63t20 -24q4 -2 7 -10q5 -8 21 -31q16 -22 16 -49q0 -26 -20 -46t-60 -20l-92 4l-76 -4l-23 2l-133 -2h-18q-61 0 -74 24q-4 6 -9 14t-11 18q-6 9 -15 24l-14 28 q-23 39 -29 56q-6 18 -12 26t-6 12t-5 10q-5 5 -11 5q-14 0 -28 -26q-14 -25 -18 -31t-10 -14t-11 -16q-5 -9 -13 -22l-13 -20q-6 -12 -11 -28t-9 -23q-16 -39 -76 -39l-94 4q-12 0 -62 -4h-20l-33 2h-8z" glyph-name="x" horiz-adv-x="1148" unicode="x"/><glyph d="M554 662q11 0 14 5t8 52t16 82l20 78q4 16 15 45q13 38 15 50q1 11 3 17l8 45q0 33 13 46q26 28 90 28h10l86 -8h41l129 10q46 0 72 -26t26 -44t-12 -61l-12 -43q-10 -20 -29 -94t-29 -109l-43 -133l-57 -139q-45 -112 -45 -116q0 -5 -3 -12t-9 -34t-11 -41l-49 -147 q-29 -89 -55 -129q-92 -146 -268 -154h-31q-14 0 -49 2t-51 0l-93 -4q-74 0 -124 10q-78 16 -78 111q0 10 3 53t1 61l-4 64q-6 91 46 125q18 12 27 12h9q31 -2 45 -10t32 -8q27 0 27 26v4q-2 25 -17 56t-49 119t-55 126q-23 39 -37 77t-38 94t-33 86q-8 29 -38 94t-30 100 q0 79 119 86h26l82 -8l54 -2l131 6q35 0 52 -20t41 -83q24 -62 23 -85l19 -66q14 -43 17 -76t10 -49l8 -45q0 -24 11 -24z" glyph-name="y" horiz-adv-x="1079" unicode="y"/><glyph d="M913 382l-6 -138v-47l6 -80q0 -121 -75 -121l-58 2l-51 -2h-16l-47 -2l-129 6h-322q-35 -2 -99 -2t-87 41q-7 14 -7 37t1 98l-5 64q0 66 43 108q11 12 43 39t46 45l63 82q94 123 94 141q0 29 -28 29l-39 -2q-2 0 -58 6h-35q-16 -2 -47 -2q-49 0 -53 100v52l2 47v135 q2 45 27 72t65 26l123 -10h37l150 8h43q41 0 155 -8h37l70 6h39l43 2q63 0 51 -131q-4 -29 0 -51t4 -33q0 -115 -31 -153q-30 -38 -54 -78t-34 -54t-34 -45t-50 -67t-26 -62t30 -24l33 2h31l96 8q20 0 40 -14t19 -30z" glyph-name="z" horiz-adv-x="937" unicode="z"/><glyph d="M649 1370q158 0 191 -12q51 -21 51 -127v-76l4 -70q0 -74 -39 -100q-26 -20 -106 -20q-80 1 -94 -23t-13 -70l8 -133q0 -47 -13 -66t-49 -35t-36 -42q0 -27 39 -44t49 -38t10 -61l-8 -136q0 -47 14 -67q14 -25 68 -25q111 1 141 -27t29 -92l-4 -71v-72q0 -106 -51 -127 q-33 -12 -203 -12t-287 35q-96 31 -123 112q-20 76 -20 135l4 148q0 139 -37 164q-4 4 -39 20q-59 35 -59 117v84q0 57 30 92q8 8 60 37q45 22 45 170l-4 145q0 127 51 193q76 94 391 94z" glyph-name="braceleft" horiz-adv-x="942" unicode="{"/><glyph d="M287 1366h450v-1706h-450v1706z" glyph-name="bar" unicode="|"/><glyph d="M51 1231q0 106 51 127q35 12 206 12q172 0 274 -32t133 -117q20 -66 20 -138l-4 -145q0 -141 37 -166l6 -2q9 -9 33 -18q59 -31 59 -113v-84q0 -59 -30 -94q-10 -10 -58 -34t-47 -173l4 -145q2 -49 -13 -105t-38 -86q-76 -94 -391 -94q-158 0 -191 12q-51 20 -51 127v72 l-4 71q0 72 33 96q34 24 112 23q78 1 92 25t15 67l-8 136q0 47 11 63t44 35q43 18 43 45t-39 44t-49 37t-10 62l8 133q0 49 -15 71t-67 22q-113 1 -141 29t-29 91l4 70v76z" glyph-name="braceright" horiz-adv-x="942" unicode="}"/><glyph d="M1159 1321q0 -75 -112 -162q-33 -27 -87 -53t-104 -29h-12q-41 2 -107 32q-67 30 -104 57q-37 26 -89 42t-84 17t-79 -73q-25 -40 -54 -40q-35 0 -61 65q-8 22 -16 37l-21 41q-43 85 -43 129q0 76 113 162q23 20 81 51t98 31t75 -14t69 -26t64 -30q132 -77 179 -77 q46 0 77 41q8 10 29 40t48 31q37 0 60 -64q9 -22 17 -38l20 -41q43 -86 43 -129z" glyph-name="asciitilde" horiz-adv-x="1345" unicode="~"/><glyph d="M420 1083h-27q-43 -2 -82 -2h-16q-23 2 -37 2l-76 -4q-6 -1 -18 9t-18 23t-5 75l-2 98q0 51 33 72q27 14 41 14h117l37 2h6q27 -2 142 -2t116 -76v-47q2 -41 2 -81t-8 -54q-7 -14 -23 -26t-27 -11q-124 8 -155 8zM340 -2q-32 0 -51 -2h-49q-72 0 -107 37q-25 31 -43 67 q-34 71 -4 265q4 16 31 116q6 31 10 154l2 61l-2 37l8 113q5 104 21 138t90 34q35 0 61 -2l60 -4h149q30 2 56 2t41 -29t16 -53l4 -98q4 -76 22 -205l19 -281l20 -184q0 -100 -71 -150q-37 -24 -68 -24l-154 6q-29 2 -61 2z" glyph-name="exclamdown" horiz-adv-x="765" unicode="¡"/><glyph d="M365 27v116q0 12 -33 21q-78 35 -127 94q-8 8 -19 16q-86 74 -104 117q-41 87 -54 153q-14 66 -14 142t39 180q27 88 142 224q63 68 155 108q25 10 29 16q0 41 2 117q0 39 45 39q6 0 14 -2h129q55 0 67 -11t15 -24v-88q-2 -4 1 -6t28 -3t84 -2q58 -2 82 -26t24 -53 l-2 -119l2 -166q-2 -88 -73 -88l-101 4q-102 0 -143 -22q-49 -31 -49 -98t47 -97q25 -10 41 -10l53 -2h8q16 -4 60 -4h26l54 4q33 1 54 -21t21 -51l-8 -100v-37l8 -125q0 -109 -158 -114q-58 -1 -63 -7q-4 -6 -4 -10l2 -78q0 -12 -14 -26t-31 -15l-59 4q-135 2 -152 9 q-24 21 -24 41z" glyph-name="cent" horiz-adv-x="901" unicode="¢"/><glyph d="M1008 1278q0 -50 -8 -100q-8 -48 -13 -105q0 -82 -18 -98q-19 -17 -37 -17t-127 13q-39 2 -77 2q-38 1 -71 -19t-33 -69t9 -59q8 -10 106 -9l54 2q35 -4 45 -53v-203q-6 -37 -39 -39q-11 0 -31 1t-57 -3l-33 -4q-6 -6 -6 -14q4 -70 2 -78l-8 -66q0 -6 7 -12t13 -6h59 l5 -2l28 -2q10 -2 42 -2t153 14h12q76 0 76 -86l-2 -100q2 -26 2 -82t-39 -74q-68 -26 -165 -26t-259 11t-213 11t-154 -4l-120 -18q-43 0 -54 34q-10 40 -10 94t2 95l-2 80q0 20 9 27t76 35t67 110q0 45 -17 55q-2 2 -86 2q-31 0 -30 43v10q0 39 4 51v9l-11 135q0 33 25 49 q10 4 32 5t21 10q0 10 -3 16t-11 133q0 172 90 274q25 29 80 61t127 52t203 22l94 2q12 -4 33 -4q36 -6 65 -6q152 -27 162 -30q31 -18 31 -68z" glyph-name="sterling" horiz-adv-x="1107" unicode="£"/><glyph d="M944 690q-6 59 -6 77t-37 71t-73 74t-99 26q-88 -6 -106 -10q-55 -23 -87 -62t-38 -51l-13 -35q-20 -43 -21 -50t-1 -44l-6 -27l8 -43l2 -26l20 -37q12 -35 21 -43q71 -82 165 -82q95 0 146 24t109 113q10 16 14 86zM994 168q-18 0 -98 -37q-81 -37 -159 -37 q-177 0 -245 38t-85 38t-38 -20t-88 -93q-31 -33 -60 -33t-40 11q-11 10 -18 18l-21 21t-25 28q-53 48 -65 64t-13 43q0 27 35 57q80 80 98 96q31 29 -3 94q-34 66 -45 102t-11 101q0 162 69 287q6 16 6 30t-28 36q-28 20 -66 62q-39 42 -43 44q-14 20 -14 43t18 43l11 8 q24 30 64 68q40 39 54 49t36 10t44 -16q2 -4 86 -84q35 -47 56 -47q22 0 59 20t109 36q135 29 262 -1q59 -13 96 -33q38 -20 58 -20t61 47q86 98 129 98q25 0 57 -32l47 -41q47 -55 60 -72q33 -44 -7 -82q-23 -27 -74 -72t-51 -75q0 -12 38 -85q38 -74 38 -170 q0 -176 -49 -255q-20 -39 -20 -55t9 -28q8 -14 26 -28t56 -54t46 -51t8 -35t-16 -40t-56 -64q-60 -57 -74 -66t-38 -9t-58 34l-67 62l-35 39q-8 8 -26 8z" glyph-name="currency" horiz-adv-x="1400" unicode="¤"/><glyph d="M94 397q-78 0 -86 64q0 29 -2 80l-4 121q0 16 10 42t18 31q8 7 36 17q29 10 36 10l74 -4q4 0 13 11t9 22t-20 39t-39 69l-98 219q-70 131 -74 152q-8 16 -8 30q0 51 41 68q6 4 76 6l57 -8l45 4l21 -2q63 -2 87 -2t105 6q31 -14 49 -33q6 -8 29 -79q2 -20 55 -125 q54 -117 64 -128t24 -12q29 0 86 113q20 37 70 113q49 100 59 110q40 39 93 39l26 -2l17 -2l94 2h80q49 6 67 6q90 0 90 -69q0 -29 -10 -54l-24 -45l-21 -49q-49 -73 -69 -121t-80 -149q-62 -101 -62 -109q0 -20 29 -20h24q6 2 25 2q113 0 113 -62l-2 -116q6 -98 6 -115 t-11 -37q-20 -37 -65 -37l-57 4h-138q-70 0 -82 -12q-16 -23 -16 -170l14 -115q0 -45 -16 -77t-68 -31l-92 8l-88 -4h-6q-8 4 -35 4h-18l-74 -4q-8 -2 -22 -2q-45 0 -68 29t-23 57l21 98q0 182 -8 201q-9 19 -71 19t-134 1h-25q-16 0 -22 -2h-25z" glyph-name="yen" horiz-adv-x="1253" unicode="¥"/><glyph d="M287 313h450v-653h-450v653zM287 1366h450v-756h-450v756z" glyph-name="brokenbar" unicode="¦"/><glyph d="M657 539q0 43 -83 82t-112 56q-28 17 -38 17t-27 -24q-10 -16 -10 -42q0 -49 125 -96q34 -16 62 -32t44 -17q16 1 28 19q11 18 11 37zM820 1038q-27 0 -75 9l-49 8q-94 20 -122 20q-57 0 -60 -41q0 -27 59 -57q1 0 11 -4l29 -12q19 -8 38 -17l51 -22q150 -61 228 -145 q78 -83 78 -210q0 -66 -20 -115t-42 -73q-2 -4 -35 -38t-33 -43t7 -22q39 -80 39 -172t-35 -153q-78 -129 -180 -168q-45 -18 -168 -35q-57 -4 -113 -4t-168 22q-110 22 -138 51t-28 69t6 114v66q0 31 18 48t36 17t43 -6q175 -55 237 -55t89 24t-1 41q-22 22 -167 86 q-146 65 -181 98q-129 131 -129 271q1 58 25 118t44 89t56 61q20 20 20 30t-8 25q-47 78 -47 154q0 127 90 211q121 115 367 115q117 1 202 -29t95 -40t10 -24l-10 -159q0 -45 -21 -74t-48 -29z" glyph-name="section" horiz-adv-x="1054" unicode="§"/><glyph d="M905 1231l-71 6h-37l-72 -2q-31 -2 -48 -1t-38 1l-29 -2q-26 0 -48 18t-17 66l2 41q4 68 15 84q20 29 128 16h137l29 2h23q61 -2 73 -21t17 -102v-32q-2 -74 -64 -74zM88 1239q-8 0 -20 12t-17 33v16l6 80q0 51 17 64q35 20 86 20l67 -4h56l88 -4l22 2q47 0 65 -14 t19 -74v-63q0 -43 -29 -58q-29 -16 -75 -16l-43 4h-45l-66 4q-13 2 -31 -2t-32 -4l-62 4h-6z" glyph-name="dieresis" horiz-adv-x="1021" unicode="¨"/><glyph d="M780 264q-16 0 -106 11t-142 41t-67 46q-88 110 -100 136q-13 26 -23 100t-10 133q0 60 20 103l21 45q42 113 196 190q86 33 225 33t160 -35q14 -14 2 -115v-10l9 -100q0 -70 -58 -70l-49 4l-39 -4q-59 0 -83 -5t-40 -26q-23 -23 -22 -51q0 -106 133 -106l8 2l64 8h12 q78 0 78 -80l-4 -80l8 -94q0 -76 -193 -76zM855 145q36 0 48 5l47 26l47 21l43 30l45 25l33 43l43 33l25 51l28 43l21 51l22 47q7 12 9 54t5 74t3 46q0 76 -41 199l-14 51q-3 8 -21 28t-49 62q-31 41 -111 105l-39 35q-18 10 -49 16q-37 2 -53 8l-45 23h-53q-61 12 -87 12 t-116 -29l-49 -14l-45 -33q-2 0 -8 -3t-42 -13t-45 -22q-9 -11 -29 -42t-45 -55q-24 -24 -26 -33l-18 -51q-39 -56 -41 -64q-35 -149 -35 -159v-4q4 -7 5 -27t3 -55q10 -121 64 -203q8 -8 22 -48t27 -48l41 -37l37 -37l84 -63q8 -4 51 -19l49 -16q104 -29 149 -25 q74 12 110 12zM793 -33q-16 0 -58 12t-51 9h-70q-66 4 -171 60t-133 76t-85 90t-78 108q-43 86 -57 112q-10 27 -27 111l-16 78l2 59q2 88 5 104t34 101q14 75 34 113t38 67q29 39 55 63l41 58l55 39q53 51 109 83t63 29q69 25 95 31t78 8t86 12q33 10 38 11l107 -23l67 -8 l62 -33q68 -29 94 -49q44 -27 80 -60q36 -34 62 -54t37 -31t34 -67t59 -112t37 -73l8 -70l19 -69l-4 -70l4 -72q0 -12 -12 -48t-23 -84q-10 -46 -22 -66l-35 -60q-27 -65 -38 -80q-65 -85 -111 -122q-46 -38 -126 -101q-3 1 -21 -7t-108 -38q-141 -37 -157 -37z" glyph-name="copyright" horiz-adv-x="1492" unicode="©"/><glyph d="M401 719q0 20 -45 22h-18q-16 0 -26 -9t-9 -19q0 -27 23 -23l24 2q51 0 51 27zM311 909q-18 0 -55 -4l-76 -12q-16 0 -33 16q-6 8 -6 68l-2 35q0 29 58 39l22 4l10 2l23 2h47q14 2 33 2h30q76 -4 119 -8t82 -29q39 -24 63 -58t24 -78t-3 -67l2 -80l-4 -90q-2 -14 -2 -28 v-5q6 -12 6 -36t-15 -34q-15 -11 -28 -11l-33 2h-81q-16 -2 -33 -2q-25 0 -29 36h-4l-25 -16q-63 -31 -94 -27l-43 2q-37 4 -71 17q-43 10 -66 35q-59 58 -59 122t49 115q15 19 31 27t63 20t76 15h20l19 -2h22q36 -6 51 -11q12 0 13 9q0 30 -101 30z" glyph-name="ordfeminine" horiz-adv-x="737" unicode="ª"/><glyph d="M334 125q-27 0 -121 94l-12 10l-23 23q-4 4 -13 11t-13 11t-8 6t-8 8q-6 6 -36 30t-38 40t-7 97v90l-4 157q0 33 21 54q2 4 91 86t115 108q26 25 50 25q41 0 41 -37l-2 -49l2 -51v-27l-2 -25l-2 -67l2 -64q1 -31 -9 -40t-94 -48q-14 -8 -14 -23q0 -14 47 -36t59 -31 t13 -33l-4 -125l4 -137q-1 -25 -11 -41t-24 -16zM717 125q-27 0 -121 94q-25 25 -84 74t-68 63q-6 19 -6 99v90q0 57 -4 119v38q0 32 12 46t172 161l31 31q35 35 62 35q39 0 39 -37v-49l2 -51l-2 -27v-25l-5 -67l5 -64q0 -31 -13 -43q-63 -31 -92 -45q-14 -8 -14 -23 q0 -16 46 -36t54 -26q17 -12 19 -38v-28q-4 -57 -5 -97l7 -137q0 -25 -10 -41t-25 -16z" glyph-name="guillemotleft" horiz-adv-x="831" unicode="«"/><glyph d="M518 0v229h-450v392h886v-621h-436z" glyph-name="logicalnot" unicode="¬"/><glyph d="M676 766v-39q0 -27 26 -27q50 0 72 22t22 48q0 25 -12 37q-14 12 -42 15t-41 3t-19 -9t-6 -50zM403 734q0 58 -10 177v60q-2 18 -2 37q0 59 39 73q37 17 135 17h121q147 0 184 -11q121 -23 177 -139q43 -76 43 -146t-18 -120t-30 -68q-14 -18 -34 -36t-21 -21 q0 -16 60 -20q27 -4 26 -58v-8q-4 -20 -4 -76l4 -57q0 -20 -9 -38t-22 -21q-72 -11 -87 -9t-79 36t-110 70q-45 36 -66 36t-20 -31l10 -59q0 -14 -12 -33t-37 -19h-88l-49 4l-43 -4q-66 0 -66 60l6 92q0 14 -2 45l-4 55q0 16 2 35l2 57q4 62 4 120zM1274 715q0 14 -18 90 t-27 90l-31 43l-18 51q-8 16 -34 43q-26 28 -42 54t-25 30q-8 12 -48 24t-48 19l-43 33l-49 12q-85 31 -115 31t-90 -14h-51l-47 -21q-14 -4 -40 -8q-62 -10 -61 -18l-38 -33q-66 -51 -128 -130q-13 -19 -33 -41t-20 -26l-14 -51q-41 -123 -41 -199l8 -90q0 -69 8 -82 l25 -49l18 -51l29 -43l25 -51l43 -33l30 -43l47 -25l43 -30l48 -21l47 -26q16 -4 52 -4t103 -13q114 11 155 26q42 15 66 22t31 12l39 32l45 31l37 37l41 37q9 8 21 38t55 103q35 84 37 158l4 53q0 19 4 29v4zM792 -35l-110 21h-68q-53 14 -104 28q-111 41 -199 121l-55 41 l-41 57q-51 55 -73 93t-36 67l-10 43l-8 41q-33 79 -34 93t-5 110l-2 61l16 78q17 85 25 103t28 56l31 62q27 40 41 58t50 65t60 67t185 107q80 41 149 41q68 0 108 10t54 11q16 0 122 -32t163 -54q117 -88 156 -127t74 -88q12 -12 45 -88l35 -58q12 -20 20 -67 q14 -51 18 -66q23 -55 19 -67l-4 -72l4 -70l-19 -67l-8 -70q3 -11 -35 -71t-61 -115t-39 -71t-50 -42t-48 -43q-48 -41 -76 -59t-94 -47l-62 -29l-67 -8q-79 -23 -95 -23z" glyph-name="registered" horiz-adv-x="1492" unicode="®"/><glyph d="M844 1454q35 0 44 -10t9 -47l-6 -60l4 -55q0 -42 -28 -47q-11 -2 -36 -2h-69l-111 -2l-73 6l-66 -4l-94 2l-56 -4l-106 6l-84 -4q-47 0 -47 29v2q0 8 4 20v49l2 35l-2 31v22q4 33 51 33l107 -4q43 0 63 3t72 1l164 -4l221 4h37z" glyph-name="macron" unicode="¯"/><glyph d="M844 1454q35 0 44 -10t9 -47l-6 -60l4 -55q0 -42 -28 -47q-11 -2 -36 -2h-69l-111 -2l-73 6l-66 -4l-94 2l-56 -4l-106 6l-84 -4q-47 0 -47 29v2q0 8 4 20v49l2 35l-2 31v22q4 33 51 33l107 -4q43 0 63 3t72 1l164 -4l221 4h37z" glyph-name="macron" unicode="ˉ"/><glyph d="M492 940q58 0 80 18q44 37 44 86l2 17l-4 33q0 8 -8 22q-8 6 -10 17q-31 43 -76 42q-82 -2 -106 -73q-8 -18 -8 -41l-3 -12q2 -12 3 -27l10 -23q18 -59 76 -59zM476 719q-50 0 -143 39t-134 131q-35 75 -35 149t18 127t29 73q10 20 51 62t45 46q89 55 213 55q32 0 81 -9 q50 -9 74 -23t36 -22t20 -15t29 -25l16 -17q8 -10 18 -21t13 -17q4 -6 4 -7q0 -2 2 -7t6 -13t8 -17l13 -22q14 -49 14 -74q6 -39 6 -49l-2 -33q0 -68 -35 -141q-35 -78 -129 -127q-39 -23 -90 -33q-78 -10 -128 -10z" glyph-name="degree" unicode="°"/><glyph d="M418 406q55 0 106 -3h82q4 0 123 5l78 -2l67 2q49 0 78 -29q16 -20 17 -39l-2 -131q8 -98 8 -125t-12 -45q-25 -39 -72 -39h-68q-9 2 -79 2t-123 -2h-181q-68 0 -159 2h-101q-18 -2 -50 -2t-50 22q-20 22 -23 50l-4 90l-2 139q0 18 10 46q11 27 25 39t80 22l149 -5 q25 0 64 3h39zM315 717q0 8 -59 12h-53l-72 -2q-78 0 -78 100l4 113l-2 98q0 55 35 72q23 14 60 16h75l41 2l33 -2l6 -2q14 0 17 15v53q0 16 8 51q0 73 10 93t39 20l55 -4l60 2h22q10 -2 33 -2h24q27 2 75 2q77 0 77 -94l-14 -120q0 -22 14 -22h184q25 0 43 -24t19 -58 q0 -35 -8 -100v-4l6 -119q1 -47 -19 -64t-61 -18h-31q-22 2 -48 2t-65 -1t-38 -13l4 -156q0 -23 -29 -45t-61 -22h-9q-16 4 -65 4h-72l-37 2q-51 0 -71 4q-41 8 -52 59q-4 37 -4 117z" glyph-name="plusminus" unicode="±"/><glyph d="M197 995q-37 0 -81 -3q-44 -4 -66 18q-21 22 -21 49l4 28q9 110 65 162q33 39 54 54q59 37 88 49t75 18l45 10q48 0 56 2h35q16 0 34 -2q84 0 164 -39q65 -21 96 -61q6 -4 40 -36q59 -54 61 -109l6 -68l-2 -12q-6 -72 -49 -117q-11 -11 -21 -24q-21 -25 -137 -99l29 -6 q12 0 24 2h66q18 2 56 2t60 -24t21 -48l-2 -100l2 -35q0 -63 -94 -63q-12 0 -141 6l-39 -4l-90 2l-86 -4q-98 8 -121 8h-29q-67 -6 -99 -6t-67 10q-23 10 -29 33q-2 6 -2 35v28q-2 31 -2 59t25 50q6 4 42 18q35 14 73 38t49 26q19 18 31 28t92 60q23 14 44 50q42 69 -1 105 q-23 17 -57 17t-49 -10t-36 -43q-2 -8 -14 -45q-12 -12 -33 -13l-47 4h-22z" glyph-name="uni00B2" horiz-adv-x="940" unicode="²"/><glyph d="M82 766q0 25 18 38t34 13t43 -9q28 -9 75 -20l72 -4q62 -4 86 -4t51 14t27 34t-25 32q-48 8 -88 8h-19q-14 -2 -34 -2q-54 0 -54 45v76l-4 43q0 23 18 37t46 14q27 0 37 -2l57 -6q14 2 28 12q13 11 13 23q0 28 -76 29q-33 6 -41 6l-47 -4q-35 -1 -69 -7t-46 -6 q-55 0 -61 43l-4 23l2 61l-2 47q0 32 16 46t65 20t70 6h19q16 -2 29 -2t34 2h25q144 0 207 -14q64 -14 141 -62q86 -62 86 -158q0 -42 -6 -58q-7 -16 -25 -37t-38 -33t-19 -20q0 -8 37 -21q14 -10 43 -37q29 -35 31 -47l12 -49q8 -28 8 -48q0 -76 -29 -106q-57 -73 -116 -95 q-7 -3 -51 -25t-72 -26t-189 -8q-99 2 -133 8t-99 14q-65 10 -75 28t-10 43l4 84v16q-2 20 -2 45z" glyph-name="uni00B3" horiz-adv-x="940" unicode="³"/><glyph d="M743 1444l68 2h20q49 -2 50 -47q1 -25 -13 -35t-40 -18t-50 -16q-24 -6 -56 -18t-46 -16l-86 -24q-2 0 -64 -22t-98 -21l-61 4l-54 -2q-33 0 -32 24q0 24 73 141q31 46 70 48h12q115 -6 164 -2l57 2h86z" glyph-name="acute" unicode="´"/><glyph d="M846 -6q-38 0 -66 22q-10 10 -30 62q-4 4 -14 4t-50 -45q-31 -25 -65 -37q-94 -23 -179 -27q-45 -2 -45 -30q0 -18 21 -95l6 -65q6 -69 6 -87t-16 -23t-144 -5h-96q-129 0 -144 6t-16 21l2 22q2 63 14 121q41 205 42 426l-4 139v48q2 12 2 28t-4 58l6 90v104l-2 92 q0 20 2 41l-2 152q0 43 32 69q23 23 72 23l117 -8h18q53 6 70 6t35 -2h10l51 4q43 0 80 -31q23 -23 23 -59t-7 -125l2 -109q0 -14 -6 -47t-6 -79t11 -92q11 -48 16 -60q14 -31 49 -31t49 31q16 29 19 51l2 53l6 33l-4 139l10 148l-8 104q0 40 22 58t49 18l47 -4q7 -2 25 -2 t31 2l63 4q38 0 56 -4h6l112 8q51 0 80 -34t25 -60l-17 -131l-4 -133l11 -209l-9 -98l2 -105l-6 -156l17 -131q-2 -17 -26 -39t-71 -22l-166 4q-74 -6 -112 -6z" glyph-name="uni00B5" horiz-adv-x="1288" unicode="µ"/><glyph d="M739 1020h-24q-35 0 -41 -12q-4 -16 -4 -55t-6 -158l4 -60v-143l4 -86l-2 -94q4 -139 4 -168l-6 -146l4 -102l-4 -84l2 -84q0 -29 -11 -39q-8 -6 -28 -6h-168q-37 0 -41 9t-8 106l4 96v137q2 14 2 41t-8 125v2l2 15l2 28q2 25 2 113l-4 96l4 70q0 20 -12 27t-68 14 q-111 29 -127 40q-156 104 -156 306t154 295q109 66 336 65q6 0 125 -4h53q23 0 106 6l72 -4l72 6l69 -8l41 4q18 0 29 -10q6 -10 6 -48t-6 -71v-6l6 -176q0 -23 -8 -31q-6 -2 -35 -5t-34 -14t-7 -104l8 -108l-4 -33q-4 -45 -4 -47l2 -92l-4 -70l2 -72l-2 -69l6 -70l-6 -70 l8 -73l-2 -68l2 -96l-4 -82q2 -47 2 -97t-6 -62t-31 -11l-90 2l-84 -2q-29 0 -39 12q-2 4 -8 129l6 72v67l2 68l-6 96v2l2 16l2 27q2 14 2 39l-8 142l4 88l-2 82l4 69l-4 70v139l2 78q0 25 -8 33t-37 8z" glyph-name="paragraph" horiz-adv-x="1132" unicode="¶"/><glyph d="M850 768q59 -29 59 -96v-54q-2 -24 -2 -82t2 -81v-54q0 -57 -49 -92q-20 -12 -51 -12h-70q-27 -2 -53 -2h-20q-25 2 -41 2l-133 -2q-41 0 -56 31q-4 6 -12 43t-8 45l6 82l-6 45l6 45l-6 73q0 45 18 89q13 24 58 30l133 -2q35 2 119 2q85 0 106 -10z" glyph-name="periodcentered" horiz-adv-x="1325" unicode="·"/><glyph d="M850 768q59 -29 59 -96v-54q-2 -24 -2 -82t2 -81v-54q0 -57 -49 -92q-20 -12 -51 -12h-70q-27 -2 -53 -2h-20q-25 2 -41 2l-133 -2q-41 0 -56 31q-4 6 -12 43t-8 45l6 82l-6 45l6 45l-6 73q0 45 18 89q13 24 58 30l133 -2q35 2 119 2q85 0 106 -10z" glyph-name="periodcentered" horiz-adv-x="1325" unicode="⋅"/><glyph d="M850 768q59 -29 59 -96v-54q-2 -24 -2 -82t2 -81v-54q0 -57 -49 -92q-20 -12 -51 -12h-70q-27 -2 -53 -2h-20q-25 2 -41 2l-133 -2q-41 0 -56 31q-4 6 -12 43t-8 45l6 82l-6 45l6 45l-6 73q0 45 18 89q13 24 58 30l133 -2q35 2 119 2q85 0 106 -10z" glyph-name="periodcentered" horiz-adv-x="1325" unicode="∙"/><glyph d="M479 -45q0 20 -8 45h125v-45q0 -37 13 -49t31 -28t34 -34q14 -20 14 -65q0 -82 -63 -108q-63 -25 -105 -25t-47 2q-10 3 -43 6t-70 29q-35 27 -24 100l4 35q4 40 25 52q19 13 29 13t40 -6h15q16 0 24 7t8 48l-2 15v8z" glyph-name="cedilla" unicode="¸"/><glyph d="M735 1036l-8 -118q0 -45 2 -117l-6 -94q0 -43 7 -79t7 -52t-18 -26q-18 -9 -94 -9l-70 -2l-47 4h-16l-62 -4q-33 0 -50 16q-18 17 -18 31t6 40t7 56l-4 68v18l8 133q0 8 -4 49q6 57 6 64q0 25 -23 24q-20 0 -45 -18q-35 -33 -52 -33t-29 8t-50 47q-35 27 -59 52 q-17 24 -17 38t19 33l70 37l32 25q45 27 87 61t98 72q20 10 67 10l76 -4h14l62 4h24q86 0 86 -88l-14 -127z" glyph-name="uni00B9" horiz-adv-x="940" unicode="¹"/><glyph d="M385 844h-14q-27 0 -35 -4q-43 -20 -43 -52t29 -40q38 -16 61 -13q68 10 68 51q0 26 -28 42t-38 16zM45 791q0 73 49 141t123 98q75 30 119 31q44 0 80 -2l45 -10q96 -12 160 -88q31 -29 38 -49t20 -42q13 -24 13 -93t-37 -120t-45 -57t-26 -18q-20 -12 -36 -28 q-42 -36 -163 -36h-27q-80 0 -133 24t-57 27l-21 21q-22 19 -41 41q-41 41 -49 98q-12 41 -12 62z" glyph-name="ordmasculine" horiz-adv-x="737" unicode="º"/><glyph d="M498 975q27 0 118 -94q14 -15 80 -69t72 -70t6 -97v-90q0 -57 4 -119v-39q0 -33 -11 -46t-93 -88t-114 -107t-56 -31q-41 0 -41 37l2 51l-2 49v29l2 22l2 68l-2 63q0 29 10 43q63 31 92 45q14 8 15 25q0 16 -54 40t-60 35q-5 11 -5 23l4 127l-4 136q0 57 35 57zM117 975 q27 0 119 -94q2 -2 63 -56l27 -22q55 -45 61 -61t6 -97v-90q0 -49 4 -119v-39q0 -33 -16 -51t-168 -156q-6 -10 -31 -30q-35 -35 -59 -35q-41 0 -41 37l2 51l-2 49v29l2 22l2 68l-2 63q0 29 10 43q63 31 92 45q14 8 15 25q0 16 -54 40t-61 36q-4 12 -4 22l4 127l-4 136 q0 57 35 57z" glyph-name="guillemotright" horiz-adv-x="831" unicode="»"/><glyph d="M1819 549q-1 8 -7 8t-24 -27l-2 -2q-2 -4 -8 -10t-18 -24q-12 -19 -38 -49t-26 -49t39 -19h22q45 0 51 4q13 9 13 57l-4 58q0 18 2 49v4zM1790 825h39q65 0 105 -3t122 -1q53 -4 76 -20q16 -15 20 -31l7 -131v-90l2 -37q-7 -80 -7 -108t13 -35q6 -2 22 -7q39 -2 39 -30 v-90q4 -55 2 -72q0 -31 -41 -35l-28 -4q-4 -4 -4 -16t2 -35l4 -33q-1 -13 -23 -31t-80 -18t-78 2h-8q-54 -4 -104 -4t-66 22q-12 23 -12 36t8 48v13q0 29 -28 28h-60l-37 -2l-35 2l-61 -2l-86 9q-77 0 -101 13t-24 41t2 42v16l-4 84q0 27 10 43q10 9 18 19t19 20l57 64 l66 83l84 99q61 84 82 104q47 47 88 47zM1624 1344q0 -24 -14 -53t-94 -163l-54 -92l-69 -137l-166 -297q-139 -246 -163 -292t-43 -73q-18 -27 -63 -115q-45 -87 -63 -106q-24 -18 -51 -18h-139q-51 -2 -52 31q0 4 68 133l170 301q37 78 139 258q201 356 250 463 q43 68 72 123q33 68 67 67l54 -4l75 4q18 0 47 -3t29 -27zM735 1036l-8 -118q0 -45 2 -117l-6 -94q0 -43 7 -79t7 -52t-18 -26q-18 -9 -94 -9l-70 -2l-47 4h-16l-62 -4q-33 0 -50 16q-18 17 -18 31t6 40t7 56l-4 68v18l8 133q0 8 -4 49q6 57 6 64q0 25 -23 24q-20 0 -45 -18 q-35 -33 -52 -33t-29 8t-50 47q-35 27 -59 52q-17 24 -17 38t19 33l70 37l32 25q45 27 87 61t98 72q20 10 67 10l76 -4h14l62 4h24q86 0 86 -88l-14 -127z" glyph-name="onequarter" horiz-adv-x="2277" unicode="¼"/><glyph d="M1380 471q-14 14 -14 56t12 81q29 72 58 97q80 94 217 120l45 9q58 4 88 4q110 0 201 -43q53 -17 89 -53l19 -19q61 -57 75 -84t13 -51l2 -45l2 -23l-2 -12q-2 -70 -47 -117q-8 -8 -15 -17q-19 -24 -57 -46q-27 -27 -86 -60l29 -8h2l23 4h63q20 2 55 2t62 -22 q23 -23 22 -49l-2 -101l2 -35q0 -61 -96 -61q-55 0 -139 2h-129l-86 -2q-111 6 -121 6l-104 -4q-53 0 -82 6q-39 12 -39 49v49q-2 31 -2 60t15 41t52 26t66 35q62 34 76 48t102 71q23 14 44 49q22 35 22 62t-23 43q-22 16 -58 16t-48 -8t-35 -43q-14 -65 -47 -60 q-15 2 -26 3q-10 1 -20 3t-24 1l-100 -5q-25 0 -54 25zM1624 1344q0 -24 -14 -53t-94 -163l-54 -92l-69 -137l-166 -297q-139 -246 -163 -292t-43 -73q-18 -27 -63 -115q-45 -87 -63 -106q-24 -18 -51 -18h-139q-51 -2 -52 31q0 4 68 133l170 301q37 78 139 258 q201 356 250 463q43 68 72 123q33 68 67 67l54 -4l75 4q18 0 47 -3t29 -27zM735 1036l-8 -118q0 -45 2 -117l-6 -94q0 -43 7 -79t7 -52t-18 -26q-18 -9 -94 -9l-70 -2l-47 4h-16l-62 -4q-33 0 -50 16q-18 17 -18 31t6 40t7 56l-4 68v18l8 133q0 8 -4 49q6 57 6 64 q0 25 -23 24q-20 0 -45 -18q-35 -33 -52 -33t-29 8t-50 47q-35 27 -59 52q-17 24 -17 38t19 33l70 37l32 25q45 27 87 61t98 72q20 10 67 10l76 -4h14l62 4h24q86 0 86 -88l-14 -127z" glyph-name="onehalf" horiz-adv-x="2277" unicode="½"/><glyph d="M1819 549q-1 8 -7 8t-24 -27l-16 -20q-12 -12 -18 -24t-32 -41q-26 -30 -26 -49t39 -19h22q45 0 51 4q6 5 10 29t3 28q0 4 -6 47v9l4 51v4zM1790 825h39q65 0 105 -3t122 -1q53 -4 76 -20q16 -15 20 -31l7 -131v-90l2 -37l-7 -74v-18q0 -43 10 -48t25 -10q39 -2 39 -26 l-2 -78l6 -72q0 -51 -43 -51l-28 -4q-4 -4 -4 -16t2 -35l4 -33q-1 -13 -23 -31t-80 -18t-78 2h-8q-54 -4 -104 -4t-66 22q-12 23 -12 36t8 48v13q0 29 -28 28h-60l-37 -2l-35 2l-61 -2l-86 9q-77 0 -101 13t-24 43t2 40v18l-4 82q0 27 10 43q10 9 18 19t19 20l57 64l66 83 l84 99q61 84 82 104q47 47 88 47zM1624 1344q0 -24 -14 -53t-94 -163l-54 -92l-69 -137l-45 -80l-45 -88l-76 -129q-148 -260 -168 -299t-41 -72l-45 -86q-61 -111 -72 -120q-26 -27 -57 -27h-139q-51 -2 -52 31q0 4 68 133l170 301q37 78 141 260t169 307t79 152 q14 26 39 68t33 57q33 68 67 67l54 -4l75 4q18 0 47 -3t29 -27zM82 766q0 25 18 38t34 13t43 -9q28 -9 75 -20l72 -4q62 -4 86 -4t51 14t27 34t-25 32q-48 8 -88 8h-19q-14 -2 -34 -2q-54 0 -54 45v76l-4 43q0 23 18 37t46 14q27 0 37 -2l57 -6q14 2 28 12q13 11 13 23 q0 28 -76 29q-33 6 -41 6l-47 -4q-35 -1 -69 -7t-46 -6q-55 0 -61 43l-4 23l2 61l-2 47q0 32 16 46t65 20t70 6h19q16 -2 29 -2t34 2h25q144 0 207 -14q64 -14 141 -62q86 -62 86 -158q0 -42 -6 -58q-7 -16 -25 -37t-38 -33t-19 -20q0 -8 37 -21q14 -10 43 -37 q29 -35 31 -47l12 -49q8 -28 8 -48q0 -76 -29 -106q-57 -73 -116 -95q-7 -3 -51 -25t-72 -26t-189 -8q-99 2 -133 8t-99 14q-65 10 -75 28t-10 43l4 84v16q-2 20 -2 45z" glyph-name="threequarters" horiz-adv-x="2277" unicode="¾"/><glyph d="M377 1372q8 0 172 -6l158 4q88 0 88 -70q0 -29 -2 -63v-23q0 -39 2 -61v-18q0 -58 -66 -58l-199 -2l-45 4l-135 -6q-8 0 -26 11q-18 10 -26 24t-7 74l-6 98q0 44 24 68t68 24zM584 506q0 -61 67 -62q37 0 73 30t40 32q2 2 43 80q13 23 35 36t38 13q42 0 126 -84l98 -74 q47 -47 52 -58t5 -24q0 -33 -84 -172q-55 -51 -89 -93t-92 -75q-60 -33 -86 -37t-105 -18q-37 -2 -93 -2l-100 -6q-78 0 -168 38t-123 62q-80 51 -115 119q-14 23 -38 89t-23 85l2 33l-2 47q0 55 55 141l23 41q14 31 72 82q61 51 90 100q18 37 22 129q2 48 55 58h101l55 -2 l43 2q51 -8 76 -8l82 6q29 0 51 -20t22 -74t-10 -97t-14 -50t-41 -54q-4 -9 -11 -21t-10 -17q-6 -10 -14 -22l-57 -55q-51 -45 -51 -98z" glyph-name="questiondown" horiz-adv-x="1193" unicode="¿"/><glyph d="M342 1624q0 45 49 47h21l67 -2h86l58 -2q49 -4 163 2h13q38 1 69 -47q74 -115 74 -141q0 -25 -33 -25l-53 2l-49 -2q-70 0 -109 16q-38 16 -65 25l-86 25q-14 4 -46 15t-79 24t-63 26q-17 12 -17 37zM621 645q0 -53 45 -53h49q84 0 99 18t7 52l-12 53q-31 150 -60 179 q-11 11 -27 11t-26 -9q-10 -8 -18 -36t-15 -53t-11 -35t-11 -43q-6 -33 -13 -54t-7 -30zM1464 88v-14q0 -75 -92 -78h-16l-25 2h-22l-125 2q-89 0 -117 -2t-49 0q-37 10 -57 57l-17 35q-25 47 -57 60q-11 12 -73 6t-79 -4l-69 4q-50 4 -76 4t-38 -16q-11 -16 -13 -17 l-33 -57q-27 -49 -40 -62t-44 -8h-16l-97 -4h-43l-121 4h-35q-79 0 -108 27t-29 72t18 94t35 121t37 123q19 50 28 82t34 112q30 97 43 174q12 77 39 151l26 76q6 18 28 100t36 130q14 50 50 76q35 26 101 28q66 4 76 1t49 1l93 4l63 -2l35 -2q33 -2 133 -2l64 2 q75 0 115 -30t67 -130l10 -41q8 -31 33 -92t37 -106l20 -82l7 -31q3 -14 5 -19t2 -10q10 -17 23 -55l8 -22q6 -24 26 -118t48 -175l12 -37q12 -37 33 -132t39 -139q18 -43 18 -61z" glyph-name="Agrave" horiz-adv-x="1435" unicode="À"/><glyph d="M1085 1624q0 -25 -13 -35q-12 -10 -38 -18q-26 -7 -51 -15t-57 -19t-45 -15l-86 -25q-16 -3 -61 -21t-81 -18l-32 -2l-50 2l-53 -2q-33 0 -33 25q-1 13 31 69t43 71q32 48 70 48h12q115 -6 164 -2l57 2h86l68 2h20q49 -2 49 -47zM621 645q0 -53 45 -53h49q84 0 99 18 t7 52l-12 53q-31 150 -60 179q-11 11 -27 11t-26 -9q-10 -8 -18 -36t-15 -53t-11 -35t-11 -43q-6 -33 -13 -54t-7 -30zM1464 88v-14q0 -75 -92 -78h-16l-25 2h-22l-125 2q-89 0 -117 -2t-49 0q-37 10 -57 57l-17 35q-25 47 -57 60q-11 12 -73 6t-79 -4l-69 4q-50 4 -76 4 t-38 -16q-11 -16 -13 -17l-33 -57q-27 -49 -40 -62t-44 -8h-16l-97 -4h-43l-121 4h-35q-79 0 -108 27t-29 72t18 94t35 121t37 123q19 50 28 82t34 112q30 97 43 174q12 77 39 151l26 76q6 18 28 100t36 130q14 50 50 76q35 26 101 28q66 4 76 1t49 1l93 4l63 -2l35 -2 q33 -2 133 -2l64 2q75 0 115 -30t67 -130l10 -41q8 -31 33 -92t37 -106l20 -82l7 -31q3 -14 5 -19t2 -10q10 -17 23 -55l8 -22q6 -24 26 -118t48 -175l12 -37q12 -37 33 -132t39 -139q18 -43 18 -61z" glyph-name="Aacute" horiz-adv-x="1435" unicode="Á"/><glyph d="M1112 1489q0 -39 -76 -33q-27 2 -41 2h-90q-29 0 -99 33t-103 33t-95 -32t-114 -32h-23l-70 2l-32 -2h-17q-31 2 -30 27q0 24 19 42t44 38q110 110 156 110l24 -2h23q20 4 39 4h20l111 -4l94 2q54 0 66 -7t21 -11t30 -27q22 -24 40 -36q19 -12 61 -56t42 -51zM621 645 q0 -53 45 -53h49q84 0 99 18t7 52l-12 53q-31 150 -60 179q-11 11 -27 11t-26 -9q-10 -8 -18 -36t-15 -53t-11 -35t-11 -43q-6 -33 -13 -54t-7 -30zM1464 88v-14q0 -75 -92 -78h-16l-25 2h-22l-125 2q-89 0 -117 -2t-49 0q-37 10 -57 57l-17 35q-25 47 -57 60q-11 12 -73 6 t-79 -4l-69 4q-50 4 -76 4t-38 -16q-11 -16 -13 -17l-33 -57q-27 -49 -40 -62t-44 -8h-16l-97 -4h-43l-121 4h-35q-79 0 -108 27t-29 72t18 94t35 121t37 123q19 50 28 82t34 112q30 97 43 174q12 77 39 151l26 76q6 18 28 100t36 130q14 50 50 76q35 26 101 28q66 4 76 1 t49 1l93 4l63 -2l35 -2q33 -2 133 -2l64 2q75 0 115 -30t67 -130l10 -41q8 -31 33 -92t37 -106l20 -82l7 -31q3 -14 5 -19t2 -10q10 -17 23 -55l8 -22q6 -24 26 -118t48 -175l12 -37q12 -37 33 -132t39 -139q18 -43 18 -61z" glyph-name="Acircumflex" horiz-adv-x="1435" unicode="Â"/><glyph d="M328 1508q0 26 25 72t71 75t116 29q72 0 197 -25t143 -25t38 18t29 22q9 3 73 3t74 -13q12 -13 12 -38q0 -24 -29 -70q-63 -100 -180 -100q-72 0 -132 14t-97 21l-43 8q-47 10 -72 10t-50 -21t-40 -22h-29l-51 2q-11 -2 -33 6t-22 34zM621 645q0 -53 45 -53h49 q84 0 99 18t7 52l-12 53q-31 150 -60 179q-11 11 -27 11t-26 -9q-10 -8 -18 -36t-15 -53t-11 -35t-11 -43q-6 -33 -13 -54t-7 -30zM1464 88v-14q0 -75 -92 -78h-16l-25 2h-22l-125 2q-89 0 -117 -2t-49 0q-37 10 -57 57l-17 35q-25 47 -57 60q-11 12 -73 6t-79 -4l-69 4 q-50 4 -76 4t-38 -16q-11 -16 -13 -17l-33 -57q-27 -49 -40 -62t-44 -8h-16l-97 -4h-43l-121 4h-35q-79 0 -108 27t-29 72t18 94t35 121t37 123q19 50 28 82t34 112q30 97 43 174q12 77 39 151l26 76q6 18 28 100t36 130q14 50 50 76q35 26 101 28q66 4 76 1t49 1l93 4 l63 -2l35 -2q33 -2 133 -2l64 2q75 0 115 -30t67 -130l10 -41q8 -31 33 -92t37 -106l20 -82l7 -31q3 -14 5 -19t2 -10q10 -17 23 -55l8 -22q6 -24 26 -118t48 -175l12 -37q12 -37 33 -132t39 -139q18 -43 18 -61z" glyph-name="Atilde" horiz-adv-x="1435" unicode="Ã"/><glyph d="M1034 1683q11 0 29 3h22q61 -2 73 -22t18 -101v-33q-2 -74 -64 -74l-72 6h-36l-72 -2q-31 -2 -48 -1t-38 1l-29 -2q-27 0 -49 18t-16 66l2 41q4 68 15 84q18 27 112 19l16 -3q0 -2 29 0h108zM295 1464q-9 0 -21 12t-16 33v17l6 80q0 51 17 63q35 20 86 21l67 -4h55l89 -5 l22 2q48 0 66 -14t18 -74v-63q0 -31 -12 -43q-12 -11 -29 -21t-63 -10l-43 4h-45l-66 4q-12 2 -30 -2t-34 -4l-61 4h-6zM621 645q0 -53 45 -53h49q84 0 99 18t7 52l-12 53q-31 150 -60 179q-11 11 -27 11t-26 -9q-10 -8 -18 -36t-15 -53t-11 -35t-11 -43q-6 -33 -13 -54 t-7 -30zM1464 88v-14q0 -75 -92 -78h-16l-25 2h-22l-125 2q-89 0 -117 -2t-49 0q-37 10 -57 57l-17 35q-25 47 -57 60q-11 12 -73 6t-79 -4l-69 4q-50 4 -76 4t-38 -16q-11 -16 -13 -17l-33 -57q-27 -49 -40 -62t-44 -8h-16l-97 -4h-43l-121 4h-35q-79 0 -108 27t-29 72 t18 94t35 121t37 123q19 50 28 82t34 112q30 97 43 174q12 77 39 151l26 76q6 18 28 100t36 130q14 50 50 76q35 26 101 28q66 4 76 1t49 1l93 4l63 -2l35 -2q33 -2 133 -2l64 2q75 0 115 -30t67 -130l10 -41q8 -31 33 -92t37 -106l20 -82l7 -31q3 -14 5 -19t2 -10 q10 -17 23 -55l8 -22q6 -24 26 -118t48 -175l12 -37q12 -37 33 -132t39 -139q18 -43 18 -61z" glyph-name="Adieresis" horiz-adv-x="1435" unicode="Ä"/><glyph d="M719 1677q-86 0 -86 -52t92 -52q45 0 63 16q34 34 0 68q-25 20 -69 20zM993 1624q0 -84 -78 -126t-215 -42q-48 0 -116 17t-106 63t-38 108t77 108t196 46t199 -45t81 -129zM621 645q0 -53 45 -53h49q84 0 99 18t7 52l-12 53q-31 150 -60 179q-11 11 -27 11t-26 -9 q-10 -8 -18 -36t-15 -53t-11 -35t-11 -43q-6 -33 -13 -54t-7 -30zM1464 88v-14q0 -75 -92 -78h-16l-25 2h-22l-125 2q-89 0 -117 -2t-49 0q-37 10 -57 57l-17 35q-25 47 -57 60q-11 12 -73 6t-79 -4l-69 4q-50 4 -76 4t-38 -16q-11 -16 -13 -17l-33 -57q-27 -49 -40 -62 t-44 -8h-16l-97 -4h-43l-121 4h-35q-79 0 -108 27t-29 72t18 94t35 121t37 123q19 50 28 82t34 112q30 97 43 174q12 77 39 151l26 76q6 18 28 100t36 130q14 50 50 76q35 26 101 28q66 4 76 1t49 1l93 4l63 -2l35 -2q33 -2 133 -2l64 2q75 0 115 -30t67 -130l10 -41 q8 -31 33 -92t37 -106l20 -82l7 -31q3 -14 5 -19t2 -10q10 -17 23 -55l8 -22q6 -24 26 -118t48 -175l12 -37q12 -37 33 -132t39 -139q18 -43 18 -61z" glyph-name="Aring" horiz-adv-x="1435" unicode="Å"/><glyph d="M612 618q0 -38 72 -38q39 -6 45 -7q66 0 66 99v57q-2 33 0 51q0 193 -45 193q-12 0 -31 -22t-21 -36l-45 -167q-41 -117 -41 -130zM1726 965q-155 0 -231 8l-43 -6h-27l-51 4h-24q-70 0 -70 -53t96 -54q41 0 99 8q153 0 223 7q47 -1 61 -25t19 -61v-80q6 -80 6 -120 t-29 -56q-14 -8 -76 -9l-61 -4q-78 -4 -123 -4t-86 2h-37q-74 0 -74 -43q0 -61 97 -61q33 0 121 8l88 2l41 2h55q55 0 65 -2q35 -6 58 -59q10 -31 10 -58v-80q0 -47 2 -98q-6 -84 -18 -102q-3 -11 -21 -21t-31 -10l-176 6q-90 -10 -135 -10h-8q-152 4 -176 4l-158 -4l-117 4 h-73q-18 -2 -50 -2t-51 16q-6 6 -24 74q-23 35 -38 44t-52 9l-60 6l-18 -2l-92 -6l-19 -2l-35 2q-37 -2 -71 -86q-12 -29 -39 -43q-37 -16 -68 -16l-45 4h-92q-63 -2 -125 0l-82 -4q-15 0 -27 12t-12 28t37 116l35 104l131 354l82 211q117 332 151 410t66 100q41 41 104 41 l134 -4q35 0 184 6h37l96 -4q98 0 203 6q56 -8 165 -8t197 6l27 2q121 10 174 -10q15 -8 29 -36t14 -50l-2 -121q8 -63 8 -84q0 -109 -68 -108z" glyph-name="AE" horiz-adv-x="1884" unicode="Æ"/><glyph d="M1024 109q0 -61 -68 -99q-48 -22 -122 -22q-138 1 -138 -62q0 -14 16 -23q16 -10 32 -23q18 -13 32 -45t15 -60q0 -63 -60 -99q-39 -24 -109 -24t-113 13q-44 13 -59 29t-12 36l2 28q2 80 18 102t29 21l70 -6q8 0 16 17q28 60 -34 108q-14 10 -75 22q-60 12 -132 54 t-113 100l-33 45q-5 5 -11 14t-19 27q-103 134 -109 303q-14 113 -14 167t16 147q2 14 42 113t63 130q47 68 102 107q122 86 150 98t169 41q27 4 175 4t193 -12q43 -12 57 -30t14 -54l-10 -164q0 -18 12 -135v-29q0 -104 -78 -104q-14 0 -70 8h-10q-2 0 -49 -6l-80 2 q-86 0 -130 -51t-44 -105q0 -90 57 -147q53 -43 162 -43l131 16q43 0 79 -18t36 -105q0 -18 -2 -28l-2 -129l-2 -19l4 -45q6 -37 6 -65z" glyph-name="Ccedilla" horiz-adv-x="1075" unicode="Ç"/><glyph d="M682 1669q37 0 70 -48q10 -15 42 -71t31 -69q0 -25 -32 -25l-54 2l-49 -2q-69 0 -108 16t-66 25l-86 25q-14 4 -46 15t-56 18t-50 15t-39 19q-13 10 -14 35q0 45 49 47h21l67 -2h87l57 -2q49 -4 164 2h12zM1053 430q39 0 59 -18q39 -35 39 -103v-22l-2 -14v-27l2 -39 q8 -125 -10 -165t-72 -44h-47l-59 6h-31q-29 0 -32 -5t-81 -5l-31 -2l-90 8h-57q-35 -2 -133 -2l-170 2l-162 -8h-10q-92 0 -90 88l2 29q2 16 2 49l6 225l6 98q0 85 -6 143t-4 91t0 53l-8 170l8 123v59l-8 127q-2 66 35 99t104 32l104 -10l160 4l80 -2h39l53 -2h25l88 -2 l88 4h37l104 6q113 0 113 -98l-2 -43v-82l8 -94q0 -98 -82 -96l-61 4h-15l-30 -2h-7q-29 0 -59 4l-27 4q-16 2 -49 -2t-45 -4l-78 4q-59 0 -59 -51q0 -27 18 -40t95 -14h34l56 6h106l94 7q55 0 73 -29t18 -55l4 -113l6 -82q0 -72 -66 -74h-41q-37 0 -79 -5t-89 -3l-94 2h-20 q-10 -1 -38 0q-28 2 -46 -16q-31 -42 8 -68q23 -18 70 -18l206 10h86l33 2h21z" glyph-name="Egrave" horiz-adv-x="1202" unicode="È"/><glyph d="M969 1624q1 -25 -13 -35t-40 -18q-26 -7 -50 -15t-56 -19t-46 -15l-86 -25q-16 -3 -61 -21t-80 -18l-33 -2l-49 2l-54 -2q-33 0 -32 25q-1 13 31 69t42 71q32 48 70 48h12q115 -6 164 -2l57 2h86l68 2h21q49 -2 49 -47zM1053 430q39 0 59 -18q39 -35 39 -103v-22l-2 -14 v-27l2 -39q8 -125 -10 -165t-72 -44h-47l-59 6h-31q-29 0 -32 -5t-81 -5l-31 -2l-90 8h-57q-35 -2 -133 -2l-170 2l-162 -8h-10q-92 0 -90 88l2 29q2 16 2 49l6 225l6 98q0 85 -6 143t-4 91t0 53l-8 170l8 123v59l-8 127q-2 66 35 99t104 32l104 -10l160 4l80 -2h39l53 -2 h25l88 -2l88 4h37l104 6q113 0 113 -98l-2 -43v-82l8 -94q0 -98 -82 -96l-61 4h-15l-30 -2h-7q-29 0 -59 4l-27 4q-16 2 -49 -2t-45 -4l-78 4q-59 0 -59 -51q0 -27 18 -40t95 -14h34l56 6h106l94 7q55 0 73 -29t18 -55l4 -113l6 -82q0 -72 -66 -74h-41q-37 0 -79 -5t-89 -3 l-94 2h-20q-10 -1 -38 0q-28 2 -46 -16q-31 -42 8 -68q23 -18 70 -18l206 10h86l33 2h21z" glyph-name="Eacute" horiz-adv-x="1202" unicode="É"/><glyph d="M995 1489q0 -39 -75 -33q-27 2 -41 2h-91q-29 0 -99 33t-103 33q-32 0 -94 -32t-115 -32h-23l-69 2l-33 -2h-16q-31 2 -31 26t13 38l28 24t36 33q98 96 142 96l25 -2h22q20 4 39 4h20l111 -4l94 2q54 0 66 -7t21 -11t30 -27q22 -24 38 -34t60 -55q45 -46 45 -54z M1053 430q39 0 59 -18q39 -35 39 -103v-22l-2 -14v-27l2 -39q8 -125 -10 -165t-72 -44h-47l-59 6h-31q-29 0 -32 -5t-81 -5l-31 -2l-90 8h-57q-35 -2 -133 -2l-170 2l-162 -8h-10q-92 0 -90 88l2 29q2 16 2 49l6 225l6 98q0 85 -6 143t-4 91t0 53l-8 170l8 123v59l-8 127 q-2 66 35 99t104 32l104 -10l160 4l80 -2h39l53 -2h25l88 -2l88 4h37l104 6q113 0 113 -98l-2 -43v-82l8 -94q0 -98 -82 -96l-61 4h-15l-30 -2h-7q-29 0 -59 4l-27 4q-16 2 -49 -2t-45 -4l-78 4q-59 0 -59 -51q0 -27 18 -40t95 -14h34l56 6h106l94 7q55 0 73 -29t18 -55 l4 -113l6 -82q0 -72 -66 -74h-41q-37 0 -79 -5t-89 -3l-94 2h-20q-10 -1 -38 0q-28 2 -46 -16q-31 -42 8 -68q23 -18 70 -18l206 10h86l33 2h21z" glyph-name="Ecircumflex" horiz-adv-x="1202" unicode="Ê"/><glyph d="M918 1683q16 0 28 3h23q61 -2 73 -22t17 -101v-33q-2 -74 -64 -74l-71 6h-37l-72 -2q-31 -2 -48 -1t-38 1l-29 -2q-26 0 -48 18t-17 66l2 41q4 68 15 84q18 27 112 19l16 -3q0 -2 31 0h107zM178 1464q-8 0 -20 12t-17 33v17l6 80q0 51 17 63q35 20 86 21l67 -4h56l88 -5 l22 2q47 0 65 -14t19 -74v-63q0 -31 -12 -43q-12 -11 -29 -21t-63 -10l-43 4h-45l-66 4q-12 2 -30 -2t-33 -4l-62 4h-6zM1053 430q39 0 59 -18q39 -35 39 -103v-22l-2 -14v-27l2 -39q8 -125 -10 -165t-72 -44h-47l-59 6h-31q-29 0 -32 -5t-81 -5l-31 -2l-90 8h-57 q-35 -2 -133 -2l-170 2l-162 -8h-10q-92 0 -90 88l2 29q2 16 2 49l6 225l6 98q0 85 -6 143t-4 91t0 53l-8 170l8 123v59l-8 127q-2 66 35 99t104 32l104 -10l160 4l80 -2h39l53 -2h25l88 -2l88 4h37l104 6q113 0 113 -98l-2 -43v-82l8 -94q0 -98 -82 -96l-61 4h-15l-30 -2 h-7q-29 0 -59 4l-27 4q-16 2 -49 -2t-45 -4l-78 4q-59 0 -59 -51q0 -27 18 -40t95 -14h34l56 6h106l94 7q55 0 73 -29t18 -55l4 -113l6 -82q0 -72 -66 -74h-41q-37 0 -79 -5t-89 -3l-94 2h-20q-10 -1 -38 0q-28 2 -46 -16q-31 -42 8 -68q23 -18 70 -18l206 10h86l33 2h21z " glyph-name="Edieresis" horiz-adv-x="1202" unicode="Ë"/><glyph d="M-16 1624q0 45 49 47h20l68 -2h86l57 -2q49 -4 164 2h12q37 0 70 -48q10 -15 42 -71t32 -69q0 -25 -33 -25l-53 2l-49 -2q-70 0 -109 16t-66 25l-86 25q-14 4 -46 15t-56 18t-50 15t-39 19q-13 10 -13 35zM629 1227v-33l-8 -135q-2 -27 4 -97t6 -106l-10 -170v-176 l6 -125v-55l-6 -92q0 -8 5 -53t6 -55t3 -9q2 0 2 -17v-18q-6 -49 -31 -70t-74 -20l-38 2h-33l-27 2h-98l-139 -6q-63 -4 -97 29q-18 18 -18 69l6 92q2 27 0 60t-2 57v78q0 6 5 85t0 133t-5 108v274l2 72l-2 65l-6 154q-2 49 25 76t73 26l125 -10q49 0 86 6l39 4 q115 10 158 -24t43 -121z" glyph-name="Igrave" horiz-adv-x="716" unicode="Ì"/><glyph d="M727 1624q0 -25 -13 -35q-12 -10 -38 -18q-26 -7 -51 -15t-57 -19t-46 -15l-86 -25q-19 -5 -63 -22t-78 -17l-33 -2l-49 2l-53 -2q-33 0 -33 25q0 14 38 81t61 87t44 20h13q115 -6 163 -2l58 2h86l67 2h21q49 -2 49 -47zM629 1227v-33l-8 -135q-2 -27 4 -97t6 -106 l-10 -170v-176l6 -125v-55l-6 -92q0 -8 5 -53t6 -55t3 -9q2 0 2 -17v-18q-6 -49 -31 -70t-74 -20l-38 2h-33l-27 2h-98l-139 -6q-63 -4 -97 29q-18 18 -18 69l6 92q2 27 0 60t-2 57v78q0 6 5 85t0 133t-5 108v274l2 72l-2 65l-6 154q-2 49 25 76t73 26l125 -10q49 0 86 6 l39 4q115 10 158 -24t43 -121z" glyph-name="Iacute" horiz-adv-x="716" unicode="Í"/><glyph d="M637 1458h-90q-29 0 -99 33t-103 33q-34 0 -95 -32t-115 -32h-22l-70 2l-33 -2h-16q-31 2 -31 27q-1 25 13 37q37 33 51 43q110 110 155 110l25 -2h22q20 4 39 4h21l110 -4h138q18 -2 26 -7t17 -8t31 -28q21 -24 39 -35t60 -55q43 -45 44 -53q0 -39 -76 -33q-27 2 -41 2z M629 1227v-33l-8 -135q-2 -27 4 -97t6 -106l-10 -170v-176l6 -125v-55l-6 -92q0 -8 5 -53t6 -55t3 -9q2 0 2 -17v-18q-6 -49 -31 -70t-74 -20l-38 2h-33l-27 2h-98l-139 -6q-63 -4 -97 29q-18 18 -18 69l6 92q2 27 0 60t-2 57v78q0 6 5 85t0 133t-5 108v274l2 72l-2 65 l-6 154q-2 49 25 76t73 26l125 -10q49 0 86 6l39 4q115 10 158 -24t43 -121z" glyph-name="Icircumflex" horiz-adv-x="716" unicode="Î"/><glyph d="M676 1683q14 0 29 3h22q61 -2 73 -22t17 -101v-33q-2 -74 -63 -74l-72 6h-37l-72 -2q-31 -2 -48 -1t-38 1l-28 -2q-27 0 -49 18t-17 66l2 41q3 68 15 84q25 34 129 16q0 -2 30 0h107zM-63 1464q-9 0 -21 12t-16 33v17l6 80q0 51 16 63q35 20 86 21l68 -4h55l88 -5l23 2 q47 0 65 -14t19 -74v-63q0 -30 -12 -42t-30 -22q-16 -10 -63 -10l-43 4h-45l-65 4q-12 2 -30 -2t-34 -4l-61 4h-6zM629 1227v-33l-8 -135q-2 -27 4 -97t6 -106l-10 -170v-176l6 -125v-55l-6 -92q0 -8 5 -53t6 -55t3 -9q2 0 2 -17v-18q-6 -49 -31 -70t-74 -20l-38 2h-33 l-27 2h-98l-139 -6q-63 -4 -97 29q-18 18 -18 69l6 92q2 27 0 60t-2 57v78q0 6 5 85t0 133t-5 108v274l2 72l-2 65l-6 154q-2 49 25 76t73 26l125 -10q49 0 86 6l39 4q115 10 158 -24t43 -121z" glyph-name="Idieresis" horiz-adv-x="716" unicode="Ï"/><glyph d="M848 743v-22q-2 -15 -2 -31v-37q0 -53 -64 -53l-104 4q-35 0 -64 -4q-16 -4 -16 -31q0 -90 18 -104t82 -14q103 0 162 22q125 76 125 236q0 61 -46 119q-45 58 -81 74q-36 15 -90 18q-51 8 -86 8t-55 -15q-29 -16 -29 -86q0 -18 5 -23t77 -5l82 4q86 0 86 -60zM90 909 q6 13 6 67t-6 161q4 150 10 166q25 63 121 63q4 0 74 -4l207 10h2l45 -6h201q46 0 120 -17t94 -25t50 -24t44 -24t91 -46q75 -38 99 -62t95 -119q66 -80 80 -117q39 -90 39 -221t-12 -181q-28 -104 -54 -160t-62 -94q-36 -36 -51 -54q-16 -18 -24 -29t-9 -12t-7 -5t-8 -6 t-119 -59t-141 -65t-144 -26l-63 -12q-76 -10 -127 -10l-215 8l-180 -8q-156 0 -156 133l12 168l-2 66v149q0 72 -14 84q-12 6 -43 6l-55 -4q-39 0 -39 41l4 55v68q0 39 33 39l69 -6q37 -1 37 32l-2 76v4z" glyph-name="Eth" horiz-adv-x="1486" unicode="Ð"/><glyph d="M377 1508q-1 26 25 72t71 77q45 27 117 27t196 -25t142 -25t38 18t30 22q8 3 72 3t76 -13t11 -38q0 -24 -29 -70q-63 -100 -180 -100q-72 0 -132 14t-97 21l-43 8q-47 10 -72 10t-50 -21t-40 -22h-29l-51 2q-12 -2 -34 6t-21 34zM74 84q0 32 8 110q8 76 8 177l-2 231 q0 95 8 283l8 176q2 37 -9 94t-11 92q0 80 32 108t138 15q88 -4 143 1t110 5t80 -18t50 -55t41 -65t24 -40l54 -76q26 -39 28 -50t37 -58l49 -66q10 -14 33 -14q29 0 29 41v29l-2 14v149l-6 97v14q3 94 106 94h35q25 0 70 -4l30 -2h33l33 2q41 2 74 2h22q131 0 131 -135 l-12 -199v-43l4 -100l-2 -51v-35l-8 -109q0 -6 6 -86l4 -94v-10l-4 -197v-114l2 -43l8 -66v-20q-2 -33 -29 -56q-31 -18 -55 -18h-4l-37 2l-33 4h-38l-140 -6h-16q-74 0 -95 11t-47 42q-26 30 -44 48q-18 17 -62 87q-45 70 -74 103t-38 51t-23 37l-14 18q-6 8 -22 34t-46 28 q-15 0 -25 -27t-6 -76l4 -61q0 -14 -2 -60l-2 -32v-52l8 -79q0 -68 -90 -68l-209 4l-161 -2q-38 0 -60 26t-22 58z" glyph-name="Ntilde" horiz-adv-x="1531" unicode="Ñ"/><glyph d="M414 1624q0 45 49 47h20l68 -2h86l57 -2q49 -4 164 2h12q37 0 70 -48q10 -15 42 -71t32 -69q0 -25 -33 -25l-53 2l-49 -2q-70 0 -109 16q-38 16 -65 25l-87 25q-14 4 -46 15t-56 18t-50 15t-39 19q-13 10 -13 35zM1034 680q0 60 -28 110t-70 72q-94 49 -147 49t-87 -18 q-36 -17 -40 -21t-28 -12t-45 -27q-19 -18 -41 -69t-22 -92q0 -42 31 -88t43 -60t51 -38t71 -23q32 0 101 6l35 2q39 0 70 31q106 95 106 178zM840 -33q-289 1 -421 63t-212 158q-29 37 -78 95t-57 70t-9 25q-2 14 -23 87q-20 71 -20 141t13 175t23 130q9 25 20 45 q10 20 22 47t25 52q12 25 20 42t22 32t29 27q16 10 78 68t97 76q176 95 401 99q164 0 282 -49q24 -10 76 -33t102 -43q48 -20 68 -34q20 -15 48 -46q125 -152 155 -223q55 -129 55 -256l-10 -107q-2 -20 -3 -62t-9 -67t-30 -73t-46 -114q-25 -67 -51 -92q-26 -26 -102 -80 q-77 -54 -95 -62t-58 -22q-40 -13 -103 -36q-115 -33 -209 -33z" glyph-name="Ograve" horiz-adv-x="1579" unicode="Ò"/><glyph d="M1157 1624q0 -25 -13 -35q-12 -10 -38 -18q-26 -7 -51 -15t-57 -19t-46 -15l-86 -25q-19 -5 -63 -22t-78 -17l-33 -2l-49 2l-53 -2q-33 0 -33 25q0 14 38 81t61 87t44 20h13q115 -6 164 -2l57 2h86l67 2h21q49 -2 49 -47zM1034 680q0 60 -28 110t-70 72q-94 49 -147 49 t-87 -18q-36 -17 -40 -21t-28 -12t-45 -27q-19 -18 -41 -69t-22 -92q0 -42 31 -88t43 -60t51 -38t71 -23q32 0 101 6l35 2q39 0 70 31q106 95 106 178zM840 -33q-289 1 -421 63t-212 158q-29 37 -78 95t-57 70t-9 25q-2 14 -23 87q-20 71 -20 141t13 175t23 130q9 25 20 45 q10 20 22 47t25 52q12 25 20 42t22 32t29 27q16 10 78 68t97 76q176 95 401 99q164 0 282 -49q24 -10 76 -33t102 -43q48 -20 68 -34q20 -15 48 -46q125 -152 155 -223q55 -129 55 -256l-10 -107q-2 -20 -3 -62t-9 -67t-30 -73t-46 -114q-25 -67 -51 -92q-26 -26 -102 -80 q-77 -54 -95 -62t-58 -22q-40 -13 -103 -36q-115 -33 -209 -33z" glyph-name="Oacute" horiz-adv-x="1579" unicode="Ó"/><glyph d="M1067 1458h-90q-29 0 -99 33t-103 33q-34 0 -95 -32t-115 -32h-22l-70 2l-33 -2h-16q-31 2 -31 27q-1 25 13 37q38 33 51 43q110 110 155 110l25 -2h22q20 4 39 4h21l110 -4l95 2q54 0 66 -7t20 -10q9 -3 31 -28q21 -24 39 -35t60 -55q43 -45 44 -53q0 -39 -76 -33 q-27 2 -41 2zM1034 680q0 60 -28 110t-70 72q-94 49 -147 49t-87 -18q-36 -17 -40 -21t-28 -12t-45 -27q-19 -18 -41 -69t-22 -92q0 -42 31 -88t43 -60t51 -38t71 -23q32 0 101 6l35 2q39 0 70 31q106 95 106 178zM840 -33q-289 1 -421 63t-212 158q-29 37 -78 95t-57 70 t-9 25q-2 14 -23 87q-20 71 -20 141t13 175t23 130q9 25 20 45q10 20 22 47t25 52q12 25 20 42t22 32t29 27q16 10 78 68t97 76q176 95 401 99q164 0 282 -49q24 -10 76 -33t102 -43q48 -20 68 -34q20 -15 48 -46q125 -152 155 -223q55 -129 55 -256l-10 -107q-2 -20 -3 -62 t-9 -67t-30 -73t-46 -114q-25 -67 -51 -92q-26 -26 -102 -80q-77 -54 -95 -62t-58 -22q-40 -13 -103 -36q-115 -33 -209 -33z" glyph-name="Ocircumflex" horiz-adv-x="1579" unicode="Ô"/><glyph d="M1020 1674q8 3 72 3t77 -18q9 -8 9 -33q0 -24 -29 -70q-63 -100 -180 -100q-72 0 -132 14q-61 14 -98 21l-43 8q-47 10 -63 10q-33 0 -58 -21q-26 -21 -40 -22h-29l-51 2q-14 -2 -34 6t-21 34q-2 26 24 72t72 75t116 29q72 0 197 -25t142 -25t39 18t30 22zM1034 680 q0 60 -28 110t-70 72q-94 49 -147 49t-87 -18q-36 -17 -40 -21t-28 -12t-45 -27q-19 -18 -41 -69t-22 -92q0 -42 31 -88t43 -60t51 -38t71 -23q32 0 101 6l35 2q39 0 70 31q106 95 106 178zM840 -33q-289 1 -421 63t-212 158q-29 37 -78 95t-57 70t-9 25q-2 14 -23 87 q-20 71 -20 141t13 175t23 130q9 25 20 45q10 20 22 47t25 52q12 25 20 42t22 32t29 27q16 10 78 68t97 76q176 95 401 99q164 0 282 -49q24 -10 76 -33t102 -43q48 -20 68 -34q20 -15 48 -46q125 -152 155 -223q55 -129 55 -256l-10 -107q-2 -20 -3 -62t-9 -67t-30 -73 t-46 -114q-25 -67 -51 -92q-26 -26 -102 -80q-77 -54 -95 -62t-58 -22q-40 -13 -103 -36q-115 -33 -209 -33z" glyph-name="Otilde" horiz-adv-x="1579" unicode="Õ"/><glyph d="M1106 1683q14 0 29 3h22q61 -2 73 -22t17 -101v-33q-2 -74 -63 -74l-72 6h-37l-71 -2q-30 -2 -48 -1t-38 1l-29 -2q-27 0 -49 18t-17 66l2 41q3 68 15 84q25 34 129 16q0 -2 30 0h107zM367 1464q-9 0 -21 12t-16 33v17l6 80q0 51 16 63q35 20 86 21l68 -4h55l88 -5l23 2 q47 0 65 -14t19 -74v-63q0 -32 -12 -44q-12 -10 -30 -20q-16 -10 -63 -10l-43 4h-45l-65 4q-12 2 -30 -2t-34 -4l-61 4h-6zM1034 680q0 60 -28 110t-70 72q-94 49 -147 49t-87 -18q-36 -17 -40 -21t-28 -12t-45 -27q-19 -18 -41 -69t-22 -92q0 -42 31 -88t43 -60t51 -38 t71 -23q32 0 101 6l35 2q39 0 70 31q106 95 106 178zM840 -33q-289 1 -421 63t-212 158q-29 37 -78 95t-57 70t-9 25q-2 14 -23 87q-20 71 -20 141t13 175t23 130q9 25 20 45q10 20 22 47t25 52q12 25 20 42t22 32t29 27q16 10 78 68t97 76q176 95 401 99q164 0 282 -49 q24 -10 76 -33t102 -43q48 -20 68 -34q20 -15 48 -46q125 -152 155 -223q55 -129 55 -256l-10 -107q-2 -20 -3 -62t-9 -67t-30 -73t-46 -114q-25 -67 -51 -92q-26 -26 -102 -80q-77 -54 -95 -62t-58 -22q-40 -13 -103 -36q-115 -33 -209 -33z" glyph-name="Odieresis" horiz-adv-x="1579" unicode="Ö"/><glyph d="M291 217q-23 0 -55 33q-12 10 -86 90q-82 82 -89 92q-10 25 -10 40q-1 14 15 38t76 84t74 72q15 14 15 20q1 6 -31 38t-81 89q-59 59 -63 69t-5 22q0 13 8 28q16 16 47 43l23 22q-1 1 21 23t35 34t20 19q71 78 107 78t108 -84q78 -98 94 -98t41 26q121 145 162 145 t78 -36q12 -12 57 -70q0 -2 62 -54t61 -84q-1 -34 -57 -85t-64 -60t-34 -35t-27 -36t73 -78t88 -90q37 -59 -16 -111q-16 -16 -51 -47l-51 -51l-27 -22q-59 -61 -90 -61t-103 73q-66 63 -83 83t-21 19q-4 0 -51 -45l-60 -57q-57 -59 -72 -67t-38 -9z" glyph-name="multiply" unicode="×"/><glyph d="M717 459q0 -23 106 -8q70 6 107 22q41 25 92 88q41 59 41 107q0 14 -6 46t-10 54q-3 23 -13 23t-131 -127l-41 -48l-45 -45l-31 -36l-30 -31q-39 -39 -39 -45zM786 930q-32 0 -94 -28t-87 -44t-55 -73q-30 -55 -30 -93t8 -78q15 -77 66 -6q12 16 66 70t106 123l74 76 q26 25 26 31t-24 14t-56 8zM754 1405q16 0 28 -1t43 -4t91 -5t124 -29q117 -43 138 -58q22 -16 30 -16t36 26t54 58t50 33q25 0 100 -78q20 -20 20 -35q0 -22 -45 -65q-45 -44 -45 -55q0 -10 29 -35q16 -20 61 -93t50 -81l18 -70l16 -47q28 -81 2 -254l2 -41q0 -48 -47 -158 q-37 -104 -63 -148t-72 -83q-59 -45 -78 -57q-68 -55 -123 -69t-88 -32q-39 -14 -137 -31q-98 -10 -128 -10t-111 8q-157 5 -223 32q-18 7 -53 19q-36 12 -50 23q-13 10 -21 10t-64 -56t-77 -56t-51 33l-44 40t-22 39q0 18 25 47q25 28 50 53q26 25 26 30q1 5 -27 39t-42 47 t-22 23q-9 10 -15 18q-6 7 -9 14q-2 6 -4 10t-24 72t-28 90q-5 22 -9 110l-2 62q0 24 9 74t10 68t2 26q1 10 1 17l4 21q0 7 4 15q5 10 47 112t111 160q99 99 158 136q115 59 274 90q95 12 111 12z" glyph-name="Oslash" horiz-adv-x="1589" unicode="Ø"/><glyph d="M367 1624q0 45 49 47h20l68 -2h86l57 -2q49 -4 164 2h12q37 0 70 -48q10 -15 42 -71t32 -69q0 -25 -33 -25l-53 2l-50 -2q-70 0 -108 16q-39 16 -66 25l-86 25q-13 4 -45 15t-57 18t-51 15t-38 19q-13 10 -13 35zM420 1368q2 0 63 2q109 3 109 -106v-15l-8 -129l6 -41 v-35l-8 -63q-2 -14 -1 -62t-5 -87q-7 -40 -7 -68l4 -64v-18q0 -97 5 -102v-11q0 -20 17 -50q36 -64 171 -64q42 0 104 52q23 19 23 68v91l4 225l-10 59v109l4 59v123q-20 69 0 99t84 34h6l51 -2q20 -2 62 -2l84 -4l129 10h20q104 -4 105 -125l-2 -67l2 -105q0 -39 -10 -88 t-9 -108l6 -135v-72q-4 -238 -14 -281t-16 -55l-13 -31q-2 -6 -5 -18q-3 -11 -6 -21t-25 -44t-40 -68t-42 -57q-143 -131 -355 -126l-145 -8l-84 8h-17l-55 -4q-160 0 -250 67q-26 20 -72 48t-80 55t-63 80t-38 67t-27 81t-15 135v86l4 67q0 2 -4 78t-2 158t-1 133t-3 84 l4 104l-2 39v25q2 90 84 90l150 -2l49 2h84z" glyph-name="Ugrave" horiz-adv-x="1482" unicode="Ù"/><glyph d="M1110 1624q0 -25 -13 -35t-39 -18q-26 -7 -50 -15l-57 -19q-32 -11 -46 -15l-86 -25q-19 -5 -63 -22t-78 -17l-33 -2l-49 2l-53 -2q-33 0 -33 25q0 14 38 81t61 87t44 20h13q115 -6 163 -2l58 2h86l67 2h21q49 -2 49 -47zM420 1368q2 0 63 2q109 3 109 -106v-15l-8 -129 l6 -41v-35l-8 -63q-2 -14 -1 -62t-5 -87q-7 -40 -7 -68l4 -64v-18q0 -97 5 -102v-11q0 -20 17 -50q36 -64 171 -64q42 0 104 52q23 19 23 68v91l4 225l-10 59v109l4 59v123q-20 69 0 99t84 34h6l51 -2q20 -2 62 -2l84 -4l129 10h20q104 -4 105 -125l-2 -67l2 -105 q0 -39 -10 -88t-9 -108l6 -135v-72q-4 -238 -14 -281t-16 -55l-13 -31q-2 -6 -5 -18q-3 -11 -6 -21t-25 -44t-40 -68t-42 -57q-143 -131 -355 -126l-145 -8l-84 8h-17l-55 -4q-160 0 -250 67q-26 20 -72 48t-80 55t-63 80t-38 67t-27 81t-15 135v86l4 67q0 2 -4 78t-2 158 t-1 133t-3 84l4 104l-2 39v25q2 90 84 90l150 -2l49 2h84z" glyph-name="Uacute" horiz-adv-x="1482" unicode="Ú"/><glyph d="M1020 1458h-90q-29 0 -99 33t-103 33q-34 0 -95 -32t-115 -32h-22l-70 2l-33 -2h-16q-31 2 -31 27t14 37q38 33 50 43q110 110 155 110l25 -2h22q20 4 39 4h21l110 -4h138q18 -2 26 -7t18 -9t30 -27q21 -24 37 -34t60 -55q45 -46 46 -54q0 -39 -76 -33q-27 2 -41 2z M420 1368q2 0 63 2q109 3 109 -106v-15l-8 -129l6 -41v-35l-8 -63q-2 -14 -1 -62t-5 -87q-7 -40 -7 -68l4 -64v-18q0 -97 5 -102v-11q0 -20 17 -50q36 -64 171 -64q42 0 104 52q23 19 23 68v91l4 225l-10 59v109l4 59v123q-20 69 0 99t84 34h6l51 -2q20 -2 62 -2l84 -4 l129 10h20q104 -4 105 -125l-2 -67l2 -105q0 -39 -10 -88t-9 -108l6 -135v-72q-4 -238 -14 -281t-16 -55l-13 -31q-2 -6 -5 -18q-3 -11 -6 -21t-25 -44t-40 -68t-42 -57q-143 -131 -355 -126l-145 -8l-84 8h-17l-55 -4q-160 0 -250 67q-26 20 -72 48t-80 55t-63 80t-38 67 t-27 81t-15 135v86l4 67q0 2 -4 78t-2 158t-1 133t-3 84l4 104l-2 39v25q2 90 84 90l150 -2l49 2h84z" glyph-name="Ucircumflex" horiz-adv-x="1482" unicode="Û"/><glyph d="M1057 1683q16 0 28 3h23q62 -2 74 -22t16 -101v-33q-2 -74 -63 -74l-72 6h-37l-72 -2q-31 -2 -48 -1t-38 1l-28 -2q-26 0 -48 18t-18 66l2 41q4 68 16 84q25 34 128 16h137zM317 1464q-8 0 -20 12t-16 33v17l6 80q0 51 16 63q35 20 86 21l68 -4h55l88 -5l23 2 q47 0 65 -14t19 -74v-63q-1 -30 -13 -42t-28 -22t-64 -10l-43 4h-45l-65 4q-13 2 -31 -2t-33 -4l-61 4h-7zM420 1368q2 0 63 2q109 3 109 -106v-15l-8 -129l6 -41v-35l-8 -63q-2 -14 -1 -62t-5 -87q-7 -40 -7 -68l4 -64v-18q0 -97 5 -102v-11q0 -20 17 -50q36 -64 171 -64 q42 0 104 52q23 19 23 68v91l4 225l-10 59v109l4 59v123q-20 69 0 99t84 34h6l51 -2q20 -2 62 -2l84 -4l129 10h20q104 -4 105 -125l-2 -67l2 -105q0 -39 -10 -88t-9 -108l6 -135v-72q-4 -238 -14 -281t-16 -55l-13 -31q-2 -6 -5 -18q-3 -11 -6 -21t-25 -44t-40 -68t-42 -57 q-143 -131 -355 -126l-145 -8l-84 8h-17l-55 -4q-160 0 -250 67q-26 20 -72 48t-80 55t-63 80t-38 67t-27 81t-15 135v86l4 67q0 2 -4 78t-2 158t-1 133t-3 84l4 104l-2 39v25q2 90 84 90l150 -2l49 2h84z" glyph-name="Udieresis" horiz-adv-x="1482" unicode="Ü"/><glyph d="M1065 1624q0 -25 -13 -35t-39 -18q-27 -7 -51 -15t-56 -19t-46 -15l-86 -25q-19 -5 -63 -22t-78 -17l-33 -2l-49 2l-53 -2q-33 0 -33 25q0 14 38 81t61 87t44 20h13q115 -6 163 -2l58 2h86l67 2h21q49 -2 49 -47zM420 259q0 85 -4 131q-9 105 -125 294l-139 227 q-82 131 -102 189t-57 111q-36 54 -36 89q1 34 21 54t79 20h27l66 -8l49 4l22 -2q23 -2 70 -2h35l108 6q10 0 43 -22q29 -29 43 -90q6 -16 13 -28t61 -116q54 -106 68 -115q12 -6 20 -6q23 0 94 113q12 20 44 64t60 94t36 62q9 12 42 26q34 16 54 16t38 -2t124 0h45 q45 -2 82 2t38 4q66 0 87 -26t8 -82q-4 -12 -20 -37t-23 -46q-8 -21 -36 -57q-29 -35 -55 -91t-142 -224q-181 -261 -200 -365q-10 -78 -10 -184t6 -130q19 -78 -6 -109q-26 -32 -76 -31l-67 8q-19 4 -67 0t-64 -4l-94 2l-80 -4q-94 0 -94 88l12 80q2 12 2 97z" glyph-name="Yacute" horiz-adv-x="1392" unicode="Ý"/><glyph d="M678 590q10 0 82 13t80 18q57 27 57 86t-54 91t-130 32t-88 -24q-12 -23 -13 -34v-67l-4 -60q0 -55 70 -55zM670 1249q10 2 87 2t212 -39q133 -29 198 -84q121 -94 143 -118q43 -46 56 -103q37 -78 37 -174q0 -25 -8 -99q-17 -159 -76 -222q-2 -2 -15 -16t-35 -37 l-46 -46l-47 -37q-53 -39 -99 -61q-104 -41 -139 -45q-206 -14 -283 -14q-22 -4 -22 -37v-45q0 -37 -23 -60q-23 -16 -69 -16t-80 2q-81 -6 -93 -6t-65 6h-55q-74 -6 -84 -6q-90 0 -90 82l10 147l-2 107q8 104 8 137l-10 143q0 12 6 158l-2 160l4 139q0 80 -6 138t-6 86 q0 27 26 53t58 26l127 -4l176 8q81 0 115 -16t42 -56t11 -46q4 -6 18 -7h21z" glyph-name="Thorn" horiz-adv-x="1406" unicode="Þ"/><glyph d="M590 152q-6 57 -6 94t6 49v59q0 12 18 24t28 13q10 0 34 -12t41 -12q57 0 57 79q0 34 -16 62t-56 70l-47 53q-47 37 -57 51q-12 24 -12 48t11 39t50 54t39 85t-29 75q-13 14 -35 14t-43 -14q-37 -20 -36 -72l6 -98l-8 -125v-78q8 -90 8 -104t-4 -64v-219l-7 -80 q12 -84 13 -88q0 -59 -76 -59h-6l-33 4h-141q-14 2 -42 2t-46 -2h-72q-47 0 -59 27t-6 88t6 127t6 145v29l-8 151q0 37 2 58l4 151l-4 150q0 84 12 124t52 112t55 88q15 17 57 49t61 38q137 49 248 49q18 0 117 -10l69 -6q94 -18 120 -28t83 -50q57 -41 76 -61 q24 -31 54 -95t33 -90t3 -60t-29 -130q-27 -48 -27 -66t71 -96q70 -78 75 -114l14 -52q18 -43 23 -75v-60q0 -80 -5 -119t-67 -147q-31 -53 -100 -96q-25 -14 -88 -29l-70 -12l-90 -4l-24 -2q-30 5 -104 16q-73 10 -91 45q-4 12 -8 107z" glyph-name="germandbls" horiz-adv-x="1247" unicode="ß"/><glyph d="M721 1444q35 0 70 -48q9 -15 41 -71t32 -70q0 -25 -33 -24l-53 2l-49 -2q-68 1 -108 17q-39 16 -66 24l-86 24q-14 4 -46 16t-81 25q-49 14 -63 25q-14 12 -15 37q0 45 49 47h21l67 -2h86l58 -2q49 -4 164 2h12zM645 311q37 -1 59 21t21 50q1 28 -23 43t-47 15l-75 4 q-38 4 -62 -22t-24 -51q0 -64 67 -66l45 6h39zM791 43v12q-1 9 -7 17t-19 -1t-21 -13t-37 -21l-19 -10q-85 -47 -188 -47t-118 5t-30 11t-81 25q-66 20 -85 32q-159 129 -159 301q0 64 39 148q37 84 85 128t97 54l55 14q41 10 64 22t107 11q100 0 160 -12t86 -12q26 1 26 27 q-1 37 -74 69q-16 6 -74 8l-80 4q-58 0 -117 -10l-82 -14q-20 -5 -35 -9t-38 -4t-39 14q-17 14 -23 29q-6 14 -6 88v39l-2 25v12l-2 39q0 41 29 57q29 15 87 23t210 16l43 2q6 0 23 2t40 -1t45 -3l51 -2h50q40 0 112 -9t110 -25t98 -61t80 -69t46 -88t23 -139l-7 -119 q-2 -35 1 -85t4 -97v-78l-11 -178l11 -84q0 -51 -29 -74q-25 -16 -53 -16l-58 4h-94q-51 0 -100 -4l-56 -4q-38 0 -38 51z" glyph-name="agrave" horiz-adv-x="1277" unicode="à"/><glyph d="M870 1444l68 2h20q49 -2 50 -47q0 -25 -14 -35t-38 -18q-26 -8 -51 -16q-25 -6 -57 -18t-45 -16l-86 -24q-2 0 -64 -22t-98 -21l-61 4l-54 -2q-33 0 -32 24q0 24 73 141q31 46 70 48h12q115 -6 164 -2l57 2h86zM645 311q37 -1 59 21t21 50q1 28 -23 43t-47 15l-75 4 q-38 4 -62 -22t-24 -51q0 -64 67 -66l45 6h39zM791 43v12q-1 9 -7 17t-19 -1t-21 -13t-37 -21l-19 -10q-85 -47 -188 -47t-118 5t-30 11t-81 25q-66 20 -85 32q-159 129 -159 301q0 64 39 148q37 84 85 128t97 54l55 14q41 10 64 22t107 11q100 0 160 -12t86 -12q26 1 26 27 q-1 37 -74 69q-16 6 -74 8l-80 4q-58 0 -117 -10l-82 -14q-20 -5 -35 -9t-38 -4t-39 14q-17 14 -23 29q-6 14 -6 88v39l-2 25v12l-2 39q0 41 29 57q29 15 87 23t210 16l43 2q6 0 23 2t40 -1t45 -3l51 -2h50q40 0 112 -9t110 -25t98 -61t80 -69t46 -88t23 -139l-7 -119 q-2 -35 1 -85t4 -97v-78l-11 -178l11 -84q0 -51 -29 -74q-25 -16 -53 -16l-58 4h-94q-51 0 -100 -4l-56 -4q-38 0 -38 51z" glyph-name="aacute" horiz-adv-x="1277" unicode="á"/><glyph d="M1034 1264q0 -39 -76 -33q-26 2 -40 2h-91q-29 1 -97 33t-103 32t-97 -32t-114 -31h-23l-69 2l-33 -2h-17q-31 2 -30 27q0 24 18 42t45 37q111 111 156 111l24 -2h23q20 4 39 4h20l111 -4h137q33 -4 47 -18q12 -8 30 -28t38 -34t61 -56t41 -50zM645 311q37 -1 59 21 t21 50q1 28 -23 43t-47 15l-75 4q-38 4 -62 -22t-24 -51q0 -64 67 -66l45 6h39zM791 43v12q-1 9 -7 17t-19 -1t-21 -13t-37 -21l-19 -10q-85 -47 -188 -47t-118 5t-30 11t-81 25q-66 20 -85 32q-159 129 -159 301q0 64 39 148q37 84 85 128t97 54l55 14q41 10 64 22t107 11 q100 0 160 -12t86 -12q26 1 26 27q-1 37 -74 69q-16 6 -74 8l-80 4q-58 0 -117 -10l-82 -14q-20 -5 -35 -9t-38 -4t-39 14q-17 14 -23 29q-6 14 -6 88v39l-2 25v12l-2 39q0 41 29 57q29 15 87 23t210 16l43 2q6 0 23 2t40 -1t45 -3l51 -2h50q40 0 112 -9t110 -25t98 -61 t80 -69t46 -88t23 -139l-7 -119q-2 -35 1 -85t4 -97v-78l-11 -178l11 -84q0 -51 -29 -74q-25 -16 -53 -16l-58 4h-94q-51 0 -100 -4l-56 -4q-38 0 -38 51z" glyph-name="acircumflex" horiz-adv-x="1277" unicode="â"/><glyph d="M250 1282q0 27 26 73t70 77q45 26 117 26q73 0 197 -24t142 -25q18 1 38 19t29 21t74 3t77 -18q8 -8 8 -33t-28 -71q-63 -101 -181 -99q-67 0 -229 35l-43 8q-47 10 -72 10t-44 -16t-26 -22t-20 -5h-29l-51 2q-11 -2 -33 5t-22 34zM645 311q37 -1 59 21t21 50 q1 28 -23 43t-47 15l-75 4q-38 4 -62 -22t-24 -51q0 -64 67 -66l45 6h39zM791 43v12q-1 9 -7 17t-19 -1t-21 -13t-37 -21l-19 -10q-85 -47 -188 -47t-118 5t-30 11t-81 25q-66 20 -85 32q-159 129 -159 301q0 64 39 148q37 84 85 128t97 54l55 14q41 10 64 22t107 11 q100 0 160 -12t86 -12q26 1 26 27q-1 37 -74 69q-16 6 -74 8l-80 4q-58 0 -117 -10l-82 -14q-20 -5 -35 -9t-38 -4t-39 14q-17 14 -23 29q-6 14 -6 88v39l-2 25v12l-2 39q0 41 29 57q29 15 87 23t210 16l43 2q6 0 23 2t40 -1t45 -3l51 -2h50q40 0 112 -9t110 -25t98 -61 t80 -69t46 -88t23 -139l-7 -119q-2 -35 1 -85t4 -97v-78l-11 -178l11 -84q0 -51 -29 -74q-25 -16 -53 -16l-58 4h-94q-51 0 -100 -4l-56 -4q-38 0 -38 51z" glyph-name="atilde" horiz-adv-x="1277" unicode="ã"/><glyph d="M1032 1231l-71 6h-37l-72 -2q-31 -2 -48 -1t-38 1l-29 -2q-27 0 -49 18t-16 66l2 41q4 68 15 84q20 29 128 16h137l29 2h23q61 -2 73 -21t17 -102v-32q-2 -74 -64 -74zM215 1239q-8 0 -20 12t-17 33v16l6 80q0 51 17 64q35 20 86 20l67 -4h56l88 -4l22 2q48 0 66 -14 t18 -74v-63q0 -43 -29 -58q-29 -16 -75 -16l-43 4h-45l-66 4q-12 2 -30 -2t-33 -4l-62 4h-6zM645 311q37 -1 59 21t21 50q1 28 -23 43t-47 15l-75 4q-38 4 -62 -22t-24 -51q0 -64 67 -66l45 6h39zM791 43v12q-1 9 -7 17t-19 -1t-21 -13t-37 -21l-19 -10q-85 -47 -188 -47 t-118 5t-30 11t-81 25q-66 20 -85 32q-159 129 -159 301q0 64 39 148q37 84 85 128t97 54l55 14q41 10 64 22t107 11q100 0 160 -12t86 -12q26 1 26 27q-1 37 -74 69q-16 6 -74 8l-80 4q-58 0 -117 -10l-82 -14q-20 -5 -35 -9t-38 -4t-39 14q-17 14 -23 29q-6 14 -6 88v39 l-2 25v12l-2 39q0 41 29 57q29 15 87 23t210 16l43 2q6 0 23 2t40 -1t45 -3l51 -2h50q40 0 112 -9t110 -25t98 -61t80 -69t46 -88t23 -139l-7 -119q-2 -35 1 -85t4 -97v-78l-11 -178l11 -84q0 -51 -29 -74q-25 -16 -53 -16l-58 4h-94q-51 0 -100 -4l-56 -4q-38 0 -38 51z " glyph-name="adieresis" horiz-adv-x="1277" unicode="ä"/><glyph d="M641 1452q-86 0 -86 -52t92 -52q45 0 64 16q16 16 16 34t-16 34q-25 20 -70 20zM915 1399q0 -84 -78 -126t-214 -42q-49 0 -117 17q-68 16 -106 62t-38 108t77 109q77 46 196 46t199 -45t81 -129zM645 311q37 -1 59 21t21 50q1 28 -23 43t-47 15l-75 4q-38 4 -62 -22 t-24 -51q0 -64 67 -66l45 6h39zM791 43v12q-1 9 -7 17t-19 -1t-21 -13t-37 -21l-19 -10q-85 -47 -188 -47t-118 5t-30 11t-81 25q-66 20 -85 32q-159 129 -159 301q0 64 39 148q37 84 85 128t97 54l55 14q41 10 64 22t107 11q100 0 160 -12t86 -12q26 1 26 27q-1 37 -74 69 q-16 6 -74 8l-80 4q-58 0 -117 -10l-82 -14q-20 -5 -35 -9t-38 -4t-39 14q-17 14 -23 29q-6 14 -6 88v39l-2 25v12l-2 39q0 41 29 57q29 15 87 23t210 16l43 2q6 0 23 2t40 -1t45 -3l51 -2h50q40 0 112 -9t110 -25t98 -61t80 -69t46 -88t23 -139l-7 -119q-2 -35 1 -85t4 -97 v-78l-11 -178l11 -84q0 -51 -29 -74q-25 -16 -53 -16l-58 4h-94q-51 0 -100 -4l-56 -4q-38 0 -38 51z" glyph-name="aring" horiz-adv-x="1277" unicode="å"/><glyph d="M1462 745q0 59 -125 60q-88 0 -116 -6q-43 -8 -43 -49t57 -41q29 0 86 2l35 4q8 0 42 -4t56 14q8 8 8 20zM725 376q0 44 -32 55t-94 11q-105 0 -105 -77q0 -59 71 -60q12 0 49 6q47 0 60 4q51 17 51 61zM27 332q0 156 110 280q51 58 162 82q111 35 215 35l70 -4 q27 0 116 -20h9q37 0 36 26q1 27 -35 51t-51 23l-61 4q-70 4 -106 4t-43 -2l-52 -10l-41 -6q-84 -19 -112 -19t-47 23q-20 20 -21 55l2 92l-4 78q0 41 32 55t173 33l110 6l86 4q4 0 62 -4q137 0 264 -55q33 -19 45 -19t105 35q69 31 109 41t142 10t195 -24q92 -24 113 -35 l104 -63q64 -38 124 -138q24 -38 26 -47q4 -7 16 -61t14 -107l13 -114q0 -43 -30 -74t-83 -31q-18 0 -33 2h-28l-105 -4q-25 -2 -65 -2l-123 10l-76 -4l-100 4q-63 0 -64 -41q0 -19 37 -41t88 -22h53q12 0 49 -6t138 -6h112l99 20q31 0 48 -17t17 -42l-6 -129l4 -62 q2 -6 2 -32t-22 -50q-51 -39 -148 -39h-143l-121 -6q-2 0 -39 4l-33 4l-45 9l-121 16q-35 6 -139 45q-64 37 -80 37t-90 -43q-121 -55 -215 -57l-39 -4l-59 -7h-6q-31 1 -193 21l-63 20q-63 16 -107 45q-97 79 -137 193q-14 37 -14 80z" glyph-name="ae" horiz-adv-x="1918" unicode="æ"/><glyph d="M870 87q0 -40 -32 -66q-32 -27 -92 -35q-58 -8 -88 -20q-67 -26 16 -87q47 -35 47 -96q0 -123 -154 -133q-37 -4 -44 -4t-46 8l-33 4q-41 16 -51 25q-25 19 -25 71q1 105 35 119q15 10 21 10t43 -6h12q33 0 33 35q0 36 -66 66t-102 57q-82 39 -133 94q-73 61 -99 93 t-50 92t-33 108l-9 39q-6 109 -6 129t29 129q27 75 43 103t41 61q74 121 192 184q53 29 125 38t234 9h86q60 0 82 -24t22 -54l-2 -151l4 -111q0 -113 -73 -112l-56 2l-22 -2q-99 -2 -117 -4t-43 -17q-51 -27 -51 -92t29 -90t61 -25l72 2q49 -6 59 -6h14l56 4q33 0 55 -22 q14 -16 14 -37l-6 -168q8 -80 8 -120z" glyph-name="ccedilla" horiz-adv-x="901" unicode="ç"/><glyph d="M238 1399q0 45 49 47h20l68 -2h86l57 -2q49 -4 164 2h12q35 0 70 -48q10 -15 42 -71t32 -70q0 -25 -33 -24l-53 2l-50 -2q-67 1 -107 17t-67 24l-86 24q-14 4 -46 16t-80 25q-49 14 -63 25q-15 12 -15 37zM610 805q-129 1 -129 -45q0 -50 51 -51l70 2l66 4l32 -4h17 q17 0 35 11q18 12 18 28t-26 36t-91 23h-6l-14 -2h-4zM1200 688q0 -24 6 -61l6 -49q4 -25 -5 -59q-19 -73 -87 -73l-92 -2l-147 -8h-19q-53 0 -80 4t-39 4l-36 -4h-58l-76 2q-66 2 -65 -41q0 -19 35 -41t94 -22h65l99 -8h133q51 0 92 10l45 10q41 10 61 -12t19 -40 q0 -18 -4 -53q-4 -34 -2 -61l6 -78q6 -74 -31 -92q-47 -27 -153 -32l-72 -5l-158 -8q-47 0 -129 15l-39 6q-98 16 -148 34t-124 56q-133 72 -225 244q-57 106 -58 237q0 37 12 86q16 67 26 117q11 51 38 92q26 41 74 99q48 59 76 74t58 25t51 23q21 12 45 21q24 8 34 10 t21 6l22 6q51 14 131 14t277 -44q49 -10 151 -86q31 -23 81 -82q49 -59 69 -135q20 -75 20 -99z" glyph-name="egrave" horiz-adv-x="1226" unicode="è"/><glyph d="M981 1399q0 -25 -15 -36t-63 -26q-49 -13 -81 -25t-46 -16l-86 -24q-2 0 -64 -22t-98 -21l-61 4l-53 -2q-33 0 -33 24q-1 13 31 69t42 72q32 47 70 48h13q115 -6 163 -2l58 2h86l67 2h21q49 -2 49 -47zM610 805q-129 1 -129 -45q0 -50 51 -51l70 2l66 4l32 -4h17 q17 0 35 11q18 12 18 28t-26 36t-91 23h-6l-14 -2h-4zM1200 688q0 -24 6 -61l6 -49q4 -25 -5 -59q-19 -73 -87 -73l-92 -2l-147 -8h-19q-53 0 -80 4t-39 4l-36 -4h-58l-76 2q-66 2 -65 -41q0 -19 35 -41t94 -22h65l99 -8h133q51 0 92 10l45 10q41 10 61 -12t19 -40 q0 -18 -4 -53q-4 -34 -2 -61l6 -78q6 -74 -31 -92q-47 -27 -153 -32l-72 -5l-158 -8q-47 0 -129 15l-39 6q-98 16 -148 34t-124 56q-133 72 -225 244q-57 106 -58 237q0 37 12 86q16 67 26 117q11 51 38 92q26 41 74 99q48 59 76 74t58 25t51 23q21 12 45 21q24 8 34 10 t21 6l22 6q51 14 131 14t277 -44q49 -10 151 -86q31 -23 81 -82q49 -59 69 -135q20 -75 20 -99z" glyph-name="eacute" horiz-adv-x="1226" unicode="é"/><glyph d="M891 1233h-90q-29 1 -97 33t-104 32q-35 0 -96 -32t-115 -31h-22l-70 2l-33 -2h-16q-31 2 -31 27q-1 25 13 37q40 35 51 42q111 111 155 111l25 -2h22q20 4 39 4h21l110 -4l95 2q54 0 76 -11t42 -35q20 -22 40 -36t60 -56q41 -42 42 -50q0 -39 -76 -33q-27 2 -41 2z M610 805q-129 1 -129 -45q0 -50 51 -51l70 2l66 4l32 -4h17q17 0 35 11q18 12 18 28t-26 36t-91 23h-6l-14 -2h-4zM1200 688q0 -24 6 -61l6 -49q4 -25 -5 -59q-19 -73 -87 -73l-92 -2l-147 -8h-19q-53 0 -80 4t-39 4l-36 -4h-58l-76 2q-66 2 -65 -41q0 -19 35 -41t94 -22h65 l99 -8h133q51 0 92 10l45 10q41 10 61 -12t19 -40q0 -18 -4 -53q-4 -34 -2 -61l6 -78q6 -74 -31 -92q-47 -27 -153 -32l-72 -5l-158 -8q-47 0 -129 15l-39 6q-98 16 -148 34t-124 56q-133 72 -225 244q-57 106 -58 237q0 37 12 86q16 67 26 117q11 51 38 92q26 41 74 99 q48 59 76 74t58 25t51 23q21 12 45 21q24 8 34 10t21 6l22 6q51 14 131 14t277 -44q49 -10 151 -86q31 -23 81 -82q49 -59 69 -135q20 -75 20 -99z" glyph-name="ecircumflex" horiz-adv-x="1226" unicode="ê"/><glyph d="M1008 1231l-72 6h-37l-72 -2q-31 -2 -48 -1t-38 1l-28 -2q-27 0 -49 18t-17 66l2 41q3 68 15 84q21 29 129 16h137l28 2h23q61 -2 73 -21t17 -102v-32q-2 -74 -63 -74zM580 1307q0 -74 -105 -74l-43 4h-45l-65 4q-12 2 -30 -2t-34 -4l-61 4h-7q-8 0 -20 12t-16 33v16 l6 80q0 51 16 64q35 20 86 20l68 -4h55l88 -4l23 2q47 0 65 -14t19 -74v-63zM610 805q-129 1 -129 -45q0 -50 51 -51l70 2l66 4l32 -4h17q17 0 35 11q18 12 18 28t-26 36t-91 23h-6l-14 -2h-4zM1200 688q0 -24 6 -61l6 -49q4 -25 -5 -59q-19 -73 -87 -73l-92 -2l-147 -8h-19 q-53 0 -80 4t-39 4l-36 -4h-58l-76 2q-66 2 -65 -41q0 -19 35 -41t94 -22h65l99 -8h133q51 0 92 10l45 10q41 10 61 -12t19 -40q0 -18 -4 -53q-4 -34 -2 -61l6 -78q6 -74 -31 -92q-47 -27 -153 -32l-72 -5l-158 -8q-47 0 -129 15l-39 6q-98 16 -148 34t-124 56 q-133 72 -225 244q-57 106 -58 237q0 37 12 86q16 67 26 117q11 51 38 92q26 41 74 99q48 59 76 74t58 25t51 23q21 12 45 21q24 8 34 10t21 6l22 6q51 14 131 14t277 -44q49 -10 151 -86q31 -23 81 -82q49 -59 69 -135q20 -75 20 -99z" glyph-name="edieresis" horiz-adv-x="1226" unicode="ë"/><glyph d="M-57 1399q0 45 49 47h20l68 -2h86l57 -2q49 -4 164 2h12q35 0 70 -48q10 -15 42 -71t32 -70q0 -25 -33 -24l-53 2l-49 -2q-68 1 -108 17t-67 24l-86 24q-13 4 -45 16t-81 25q-49 14 -63 25q-15 12 -15 37zM334 0q-117 0 -191 -6h-10q-18 4 -44 30t-26 101l7 131l-2 47 q-4 90 2 137t6 154l-6 149l6 220v79q6 70 102 70l45 -2h33l96 -4l117 8h10q47 0 67 -27t21 -104l-4 -369v-32l-6 -111v-201l-2 -73l6 -84q0 -119 -119 -119h-12l-63 6h-33z" glyph-name="igrave" horiz-adv-x="632" unicode="ì"/><glyph d="M686 1399q0 -25 -13 -35t-39 -18t-50 -16q-25 -6 -57 -18t-46 -16l-86 -24q-2 0 -64 -22t-98 -21l-61 4l-53 -2q-33 0 -33 24q0 13 32 69t42 72q32 47 69 48h13q115 -6 164 -2l57 2h86l67 2h21q49 -2 49 -47zM334 0q-117 0 -191 -6h-10q-18 4 -44 30t-26 101l7 131l-2 47 q-4 90 2 137t6 154l-6 149l6 220v79q6 70 102 70l45 -2h33l96 -4l117 8h10q47 0 67 -27t21 -104l-4 -369v-32l-6 -111v-201l-2 -73l6 -84q0 -119 -119 -119h-12l-63 6h-33z" glyph-name="iacute" horiz-adv-x="632" unicode="í"/><glyph d="M596 1233h-90q-29 1 -97 33t-104 32q-35 0 -96 -32t-115 -31h-22l-70 2l-33 -2h-16q-31 2 -31 27t14 37q40 35 50 42q111 111 155 111l25 -2h22q20 4 39 4h21l110 -4h138q33 -4 47 -18q12 -8 30 -28t39 -36q21 -15 61 -55q39 -41 40 -49q0 -39 -76 -33q-27 2 -41 2z M334 0q-117 0 -191 -6h-10q-18 4 -44 30t-26 101l7 131l-2 47q-4 90 2 137t6 154l-6 149l6 220v79q6 70 102 70l45 -2h33l96 -4l117 8h10q47 0 67 -27t21 -104l-4 -369v-32l-6 -111v-201l-2 -73l6 -84q0 -119 -119 -119h-12l-63 6h-33z" glyph-name="icircumflex" horiz-adv-x="632" unicode="î"/><glyph d="M711 1231l-72 6h-37l-72 -2q-31 -2 -48 -1t-38 1l-28 -2q-26 0 -48 18t-18 66l2 41q4 68 16 84q21 29 128 16h137l29 2h22q62 -2 74 -21t16 -102v-32q-2 -74 -63 -74zM283 1307q0 -74 -105 -74l-43 4h-45l-65 4q-13 2 -31 -2t-33 -4l-61 4h-6q-8 0 -21 12q-12 12 -16 33 v16l6 80q0 51 16 64q35 20 86 20l68 -4h55l88 -4l23 2q47 0 65 -14t19 -74v-63zM334 0q-117 0 -191 -6h-10q-18 4 -44 30t-26 101l7 131l-2 47q-4 90 2 137t6 154l-6 149l6 220v79q6 70 102 70l45 -2h33l96 -4l117 8h10q47 0 67 -27t21 -104l-4 -369v-32l-6 -111v-201 l-2 -73l6 -84q0 -119 -119 -119h-12l-63 6h-33z" glyph-name="idieresis" horiz-adv-x="632" unicode="ï"/><glyph d="M508 529q0 -62 61 -89q2 0 51 -13t56 -11l35 4q59 6 105 30t46 68q0 43 -39 68q-65 41 -110 43l-31 -2q-59 0 -78 -6q-31 -16 -43 -23q-53 -29 -53 -69zM655 -33q-74 0 -151 13q-29 0 -43 4t-74 24q-97 41 -111 49t-50 38t-55 48q-19 17 -35 33t-54 70q-37 54 -43 121 q-17 49 -21 71t-4 85t8 97t46 109q8 13 34 41t31 38q6 10 10 13q4 4 5 7q0 4 4 6t7 4t11 7t16 11q98 78 186 96t87 54q0 36 -74 57q-20 3 -88 25t-78 22q-49 18 -49 58t45 167q26 92 84 90q41 0 82 -14t67 -20q26 -5 46 -13t75 -32t69 -23q14 0 39 5q24 5 81 67q54 53 76 53 t49 -23q43 -57 108 -116q23 -23 23 -35q0 -20 -52 -54t-52 -50t34 -36q35 -20 113 -83t98 -86q90 -92 150 -256q41 -107 41 -199t-13 -125l-16 -49q-13 -59 -69 -130t-68 -82q-12 -12 -43 -28q-35 -18 -75 -52t-144 -54q-44 -10 -70 -14t-137 -9h-56z" glyph-name="eth" horiz-adv-x="1359" unicode="ð"/><glyph d="M264 1282q0 27 26 73t70 77q45 26 117 26t197 -24t142 -25q16 1 38 19t30 21t74 3q64 0 76 -18q8 -8 8 -33t-28 -71q-63 -101 -180 -99q-68 0 -230 35l-43 8q-45 10 -62 10t-30 -4t-35 -21q-22 -18 -35 -18h-28l-52 2q-11 -2 -33 5t-22 34zM84 684q0 51 -8 125t-10 104 l-3 35q-4 82 46 135q30 35 114 31l45 -2q20 0 38 -4t48 -2l64 4q16 2 25 -1t14 -3h16q48 0 57 -39l9 -41q4 -23 10 -25h2q6 0 29 26t28 30q29 25 109 51t112 27l74 -19h33q26 0 46 -3t71 -36t71 -57t55 -83t36 -72q2 -13 9 -57t7 -108v-65l8 -96l4 -125q0 -6 -1 -16t-2 -32 q-1 -24 -6 -95t-3 -93l8 -88q6 -55 -27 -84q-16 -16 -44 -16l-38 2l-55 2l-88 -6l-90 8l-76 -2q-47 -2 -76 26q-18 24 -18 46t4 43l6 49q4 40 4 135v24q4 41 4 51t-4 19l-4 27q-2 14 -2 46t-3 40t-5 25t-14 41t-33 36q-25 12 -35 12q-51 0 -63 -69l-4 -41l-5 -25 q-6 -49 -6 -57l8 -80l-6 -137v-45l17 -92q0 -35 -28 -55t-60 -19l-56 6l-67 6q-12 2 -35 -2t-33 -4h-20q-16 2 -45 2l-115 -2q-25 0 -45 25q-18 25 -19 57v27l11 132l6 97v70l-6 122l10 134v20z" glyph-name="ntilde" horiz-adv-x="1306" unicode="ñ"/><glyph d="M305 1399q0 45 49 47h21l67 -2h86l58 -2q49 -4 164 2h12q37 0 69 -48q10 -15 42 -71t32 -70q0 -25 -33 -24l-53 2l-49 -2q-68 1 -108 17q-39 16 -66 24l-86 24q-14 4 -46 16t-81 25q-49 14 -63 25q-15 12 -15 37zM862 545q0 51 -48 93t-101 44l-31 -2l-47 2q-1 0 -23 -6 t-39 -21q-66 -51 -65 -106q0 -35 17 -62t35 -35q90 -36 120 -36l31 6l32 4q39 8 60 21q19 13 39 45t20 53zM28 456q-14 42 -14 89t9 82q37 154 75 211q98 147 181 190q94 54 140 68q47 14 131 26t147 12t120 -12q57 -14 79 -19t36 -5q34 0 72 -25q115 -68 157 -115l76 -84 q30 -33 34 -56q7 -35 25 -57q17 -21 33 -90q33 -142 4 -231l-16 -55q-25 -83 -53 -121t-45 -67q-18 -29 -31 -41q-4 -8 -6 -10t-105 -76l-67 -50q-8 -6 -95 -28t-147 -23l-57 -2l-56 2q-88 0 -100 2l-51 9q-68 10 -150 50t-98 54l-88 88q-85 82 -119 179q-6 17 -6 40 q-1 23 -15 65z" glyph-name="ograve" horiz-adv-x="1359" unicode="ò"/><glyph d="M911 1444l68 2h20q49 -2 50 -47q1 -25 -13 -35t-40 -18t-50 -16q-24 -6 -56 -18t-46 -16l-86 -24q-2 0 -64 -22t-98 -21l-61 4l-54 -2q-33 0 -32 24q0 24 73 141q31 46 70 48h12q115 -6 164 -2l57 2h86zM862 545q0 51 -48 93t-101 44l-31 -2l-47 2q-1 0 -23 -6t-39 -21 q-66 -51 -65 -106q0 -35 17 -62t35 -35q90 -36 120 -36l31 6l32 4q39 8 60 21q19 13 39 45t20 53zM28 456q-14 42 -14 89t9 82q37 154 75 211q98 147 181 190q94 54 140 68q47 14 131 26t147 12t120 -12q57 -14 79 -19t36 -5q34 0 72 -25q115 -68 157 -115l76 -84 q30 -33 34 -56q7 -35 25 -57q17 -21 33 -90q33 -142 4 -231l-16 -55q-25 -83 -53 -121t-45 -67q-18 -29 -31 -41q-4 -8 -6 -10t-105 -76l-67 -50q-8 -6 -95 -28t-147 -23l-57 -2l-56 2q-88 0 -100 2l-51 9q-68 10 -150 50t-98 54l-88 88q-85 82 -119 179q-6 17 -6 40 q-1 23 -15 65z" glyph-name="oacute" horiz-adv-x="1359" unicode="ó"/><glyph d="M1075 1264q0 -39 -76 -33q-27 2 -41 2h-90q-29 1 -97 33t-103 32q-34 0 -96 -32t-115 -31h-23l-69 2l-33 -2h-17q-31 2 -30 27q0 24 18 42t45 37q111 111 156 111l24 -2h23q20 4 39 4h20l111 -4l94 2q70 0 90 -20q13 -8 31 -28t38 -34t60 -56q41 -42 41 -50zM862 545 q0 51 -48 93t-101 44l-31 -2l-47 2q-1 0 -23 -6t-39 -21q-66 -51 -65 -106q0 -35 17 -62t35 -35q90 -36 120 -36l31 6l32 4q39 8 60 21q19 13 39 45t20 53zM28 456q-14 42 -14 89t9 82q37 154 75 211q98 147 181 190q94 54 140 68q47 14 131 26t147 12t120 -12 q57 -14 79 -19t36 -5q34 0 72 -25q115 -68 157 -115l76 -84q30 -33 34 -56q7 -35 25 -57q17 -21 33 -90q33 -142 4 -231l-16 -55q-25 -83 -53 -121t-45 -67q-18 -29 -31 -41q-4 -8 -6 -10t-105 -76l-67 -50q-8 -6 -95 -28t-147 -23l-57 -2l-56 2q-88 0 -100 2l-51 9 q-68 10 -150 50t-98 54l-88 88q-85 82 -119 179q-6 17 -6 40q-1 23 -15 65z" glyph-name="ocircumflex" horiz-adv-x="1359" unicode="ô"/><glyph d="M291 1282q-1 27 25 73t71 77q45 26 117 26t196 -24t142 -25q18 1 38 19t30 21q8 3 72 3t76 -13t11 -38q0 -25 -29 -71q-64 -101 -180 -99q-67 0 -229 35l-43 8q-47 10 -72 10t-51 -22q-25 -22 -39 -21h-29l-51 2q-12 -2 -34 5t-21 34zM862 545q0 51 -48 93t-101 44 l-31 -2l-47 2q-1 0 -23 -6t-39 -21q-66 -51 -65 -106q0 -35 17 -62t35 -35q90 -36 120 -36l31 6l32 4q39 8 60 21q19 13 39 45t20 53zM28 456q-14 42 -14 89t9 82q37 154 75 211q98 147 181 190q94 54 140 68q47 14 131 26t147 12t120 -12q57 -14 79 -19t36 -5q34 0 72 -25 q115 -68 157 -115l76 -84q30 -33 34 -56q7 -35 25 -57q17 -21 33 -90q33 -142 4 -231l-16 -55q-25 -83 -53 -121t-45 -67q-18 -29 -31 -41q-4 -8 -6 -10t-105 -76l-67 -50q-8 -6 -95 -28t-147 -23l-57 -2l-56 2q-88 0 -100 2l-51 9q-68 10 -150 50t-98 54l-88 88 q-85 82 -119 179q-6 17 -6 40q-1 23 -15 65z" glyph-name="otilde" horiz-adv-x="1359" unicode="õ"/><glyph d="M1073 1231l-72 6h-36l-72 -2q-31 -2 -48 -1t-38 1l-29 -2q-26 0 -48 18t-17 66l2 41q4 68 15 84q20 29 128 16h137l29 2h23q61 -2 73 -21t17 -102v-32q-2 -74 -64 -74zM256 1239q-8 0 -20 12t-17 33v16l6 80q0 51 17 64q35 20 86 20l67 -4h56l88 -4l22 2q47 0 65 -14 t19 -74v-63q0 -43 -29 -58q-29 -16 -75 -16l-43 4h-45l-66 4q-13 2 -31 -2t-32 -4l-62 4h-6zM862 545q0 51 -48 93t-101 44l-31 -2l-47 2q-1 0 -23 -6t-39 -21q-66 -51 -65 -106q0 -35 17 -62t35 -35q90 -36 120 -36l31 6l32 4q39 8 60 21q19 13 39 45t20 53zM28 456 q-14 42 -14 89t9 82q37 154 75 211q98 147 181 190q94 54 140 68q47 14 131 26t147 12t120 -12q57 -14 79 -19t36 -5q34 0 72 -25q115 -68 157 -115l76 -84q30 -33 34 -56q7 -35 25 -57q17 -21 33 -90q33 -142 4 -231l-16 -55q-25 -83 -53 -121t-45 -67q-18 -29 -31 -41 q-4 -8 -6 -10t-105 -76l-67 -50q-8 -6 -95 -28t-147 -23l-57 -2l-56 2q-88 0 -100 2l-51 9q-68 10 -150 50t-98 54l-88 88q-85 82 -119 179q-6 17 -6 40q-1 23 -15 65z" glyph-name="odieresis" horiz-adv-x="1359" unicode="ö"/><glyph d="M698 408q61 -18 62 -70v-35q-2 -16 -2 -57t2 -60v-32q0 -47 -49 -68q-23 -8 -54 -8h-67q-26 -2 -54 -2t-63 2l-131 -2q-41 0 -57 22q-20 35 -21 64l8 55l-8 31l8 33l-8 51q0 6 8 30t13 31q12 21 57 23l131 -2q35 2 121 2q85 0 104 -8zM698 1282q61 -18 62 -72v-32 q-2 -16 -2 -58t2 -59v-33q0 -45 -49 -67q-27 -10 -54 -11l-67 2q-26 -2 -54 -2t-63 2l-131 -2q-41 0 -57 23q-20 35 -21 61l8 58l-8 30l8 31l-8 51q0 29 21 64q14 18 57 20h131q35 2 121 2q85 0 104 -8zM180 483q-18 -2 -50 -2q-32 1 -50 23q-20 22 -23 49l-4 88l-2 141 q0 18 10 45t26 41t79 21l149 -4q25 0 64 2h37l192 -4q31 0 121 6l78 -2l67 2q51 0 78 -31q16 -16 17 -37l-2 -133q8 -96 8 -122q-1 -26 -19 -58t-65 -31l-68 4q-11 2 -67 2t-135 -6h-52l-129 4q-68 0 -159 2h-101z" glyph-name="divide" unicode="÷"/><glyph d="M649 401q1 -8 59 -8q58 1 96 23t66 63t27 70q1 29 -19 49t-27 20t-15 -14q-16 -12 -50 -49q-137 -139 -137 -154zM652 717q-45 0 -110 -38q-65 -39 -65 -103t23 -87q197 209 196 213q1 15 -44 15zM146 -33q-44 37 -44 56t20 43t64 71q4 7 4 15t-15 20t-38 41 q-41 41 -61 85t-35 122q-23 82 -25 94t-2 54t12 81t17 62q6 23 10 35t10 31q6 18 46 69l16 24q37 57 99 111t132 84q62 31 98 40t156 24t174 0q14 -3 86 -17t115 -29q27 -14 39 -14q4 0 80 82q16 16 26 16t20 -9t17 -15t11 -9t6 -6q55 -43 55 -65q0 -8 -38 -52t-38 -49 t80 -88q27 -33 43 -83q62 -131 64 -259q0 -45 -32 -154t-126 -224q-6 -8 -107 -82q-33 -31 -55 -43t-49 -25l-29 -4l-32 -8l-35 -10l-33 -7q-41 -8 -102 -8h-60l-39 2h-49l-57 6l-41 7q-74 0 -131 43l-31 22q-129 -117 -141 -117q-11 0 -55 37z" glyph-name="oslash" horiz-adv-x="1363" unicode="ø"/><glyph d="M725 1444q35 0 70 -48q9 -15 41 -71t32 -70q0 -25 -32 -24l-54 2l-49 -2q-67 1 -107 17t-67 24l-86 24q-13 4 -45 16t-81 25q-49 14 -63 25q-15 12 -16 37q0 45 49 47h21l68 -2h86l57 -2q49 -4 164 2h12zM422 1110q11 0 51 4q104 0 102 -121v-6l-6 -88l2 -108l-10 -146 q-1 -57 13 -101t26 -57q12 -12 39 -12q45 0 61 68l11 100q2 25 2 53l-2 119l6 96l-6 129q0 39 21 58q22 18 48 18l74 -6q14 0 60 4t58 2t17 -2l37 2l25 -2l69 4q41 0 73 -24t32 -68q0 -14 -2 -34t-6 -65q-3 -46 -7 -81t-4 -84t4 -129t2 -111l-6 -73l2 -105q0 -6 -5 -85 t-2 -87q19 -50 20 -113q0 -19 -27 -41t-72 -22l-166 4q-18 0 -51 -4l-24 -2q-92 -2 -105 29q0 2 -5 8t-10 18t-13 29q-4 4 -13 4t-28 -22t-40 -41q-21 -20 -102 -32q-81 -13 -111 -13t-100 11q-70 12 -114 35q-47 20 -71 39t-50 59q-27 40 -35 72t-14 174q-6 144 -7 148 l5 74l4 32l-2 50v63l-2 98l4 54q-11 196 34 221q20 10 70 10l80 -4q26 -2 54 0t40 2l64 -2h8z" glyph-name="ugrave" horiz-adv-x="1286" unicode="ù"/><glyph d="M1012 1399q0 -25 -14 -35t-38 -18q-26 -8 -51 -16q-25 -6 -57 -18t-45 -16l-86 -24q-2 0 -64 -22t-98 -21l-61 4l-54 -2q-33 0 -32 24q0 24 73 141q31 46 70 48h12q115 -6 164 -2l57 2h86l68 2h21q49 -2 49 -47zM422 1110q11 0 51 4q104 0 102 -121v-6l-6 -88l2 -108 l-10 -146q-1 -57 13 -101t26 -57q12 -12 39 -12q45 0 61 68l11 100q2 25 2 53l-2 119l6 96l-6 129q0 39 21 58q22 18 48 18l74 -6q14 0 60 4t58 2t17 -2l37 2l25 -2l69 4q41 0 73 -24t32 -68q0 -14 -2 -34t-6 -65q-3 -46 -7 -81t-4 -84t4 -129t2 -111l-6 -73l2 -105 q0 -6 -5 -85t-2 -87q19 -50 20 -113q0 -19 -27 -41t-72 -22l-166 4q-18 0 -51 -4l-24 -2q-92 -2 -105 29q0 2 -5 8t-10 18t-13 29q-4 4 -13 4t-28 -22t-40 -41q-21 -20 -102 -32q-81 -13 -111 -13t-100 11q-70 12 -114 35q-47 20 -71 39t-50 59q-27 40 -35 72t-14 174 q-6 144 -7 148l5 74l4 32l-2 50v63l-2 98l4 54q-11 196 34 221q20 10 70 10l80 -4q26 -2 54 0t40 2l64 -2h8z" glyph-name="uacute" horiz-adv-x="1286" unicode="ú"/><glyph d="M1038 1264q0 -39 -75 -33q-27 2 -41 2h-91q-29 1 -97 33t-103 32t-97 -32t-114 -31h-23l-69 2l-33 -2h-16q-31 3 -31 27t18 42t45 37q111 111 156 111l25 -2h22q20 4 39 4h20l111 -4h137q33 -4 47 -18q12 -8 30 -28t38 -34t61 -56t41 -50zM422 1110q11 0 51 4 q104 0 102 -121v-6l-6 -88l2 -108l-10 -146q-1 -57 13 -101t26 -57q12 -12 39 -12q45 0 61 68l11 100q2 25 2 53l-2 119l6 96l-6 129q0 39 21 58q22 18 48 18l74 -6q14 0 60 4t58 2t17 -2l37 2l25 -2l69 4q41 0 73 -24t32 -68q0 -14 -2 -34t-6 -65q-3 -46 -7 -81t-4 -84 t4 -129t2 -111l-6 -73l2 -105q0 -6 -5 -85t-2 -87q19 -50 20 -113q0 -19 -27 -41t-72 -22l-166 4q-18 0 -51 -4l-24 -2q-92 -2 -105 29q0 2 -5 8t-10 18t-13 29q-4 4 -13 4t-28 -22t-40 -41q-21 -20 -102 -32q-81 -13 -111 -13t-100 11q-70 12 -114 35q-47 20 -71 39t-50 59 q-27 40 -35 72t-14 174q-6 144 -7 148l5 74l4 32l-2 50v63l-2 98l4 54q-11 196 34 221q20 10 70 10l80 -4q26 -2 54 0t40 2l64 -2h8z" glyph-name="ucircumflex" horiz-adv-x="1286" unicode="û"/><glyph d="M1036 1231l-71 6h-37l-72 -2q-31 -2 -48 -1t-38 1l-29 -2q-27 0 -49 18t-16 66l2 41q4 68 15 84q20 29 128 16q0 -2 31 0h106l29 2h23q61 -2 73 -21t17 -102v-32q-2 -74 -64 -74zM219 1239q-8 0 -20 12t-17 33v16l6 80q0 51 17 64q35 20 86 20l67 -4h56l88 -4l22 2 q48 0 66 -14t18 -74v-63q0 -43 -29 -58q-29 -16 -75 -16l-43 4h-45l-66 4q-12 2 -30 -2t-33 -4l-62 4h-6zM422 1110q11 0 51 4q104 0 102 -121v-6l-6 -88l2 -108l-10 -146q-1 -57 13 -101t26 -57q12 -12 39 -12q45 0 61 68l11 100q2 25 2 53l-2 119l6 96l-6 129q0 39 21 58 q22 18 48 18l74 -6q14 0 60 4t58 2t17 -2l37 2l25 -2l69 4q41 0 73 -24t32 -68q0 -14 -2 -34t-6 -65q-3 -46 -7 -81t-4 -84t4 -129t2 -111l-6 -73l2 -105q0 -6 -5 -85t-2 -87q19 -50 20 -113q0 -19 -27 -41t-72 -22l-166 4q-18 0 -51 -4l-24 -2q-92 -2 -105 29q0 2 -5 8 t-10 18t-13 29q-4 4 -13 4t-28 -22t-40 -41q-21 -20 -102 -32q-81 -13 -111 -13t-100 11q-70 12 -114 35q-47 20 -71 39t-50 59q-27 40 -35 72t-14 174q-6 144 -7 148l5 74l4 32l-2 50v63l-2 98l4 54q-11 196 34 221q20 10 70 10l80 -4q26 -2 54 0t40 2l64 -2h8z" glyph-name="udieresis" horiz-adv-x="1286" unicode="ü"/><glyph d="M907 1399q0 -25 -13 -35q-12 -10 -38 -18t-51 -16q-25 -6 -57 -18t-46 -16l-86 -24q-2 0 -64 -22t-97 -21l-62 4l-53 -2q-33 0 -33 24q-1 13 31 69t42 72q32 47 71 48h12q115 -6 164 -2l57 2h86l68 2h20q49 -2 49 -47zM554 662q11 0 14 5t8 52t16 82l20 78q4 16 15 45 q13 38 15 50q1 11 3 17l8 45q0 33 13 46q26 28 90 28h10l86 -8h41l129 10q46 0 72 -26t26 -44t-12 -61l-12 -43q-10 -20 -29 -94t-29 -109l-43 -133l-57 -139q-45 -112 -45 -116q0 -5 -3 -12t-9 -34t-11 -41l-49 -147q-29 -89 -55 -129q-92 -146 -268 -154h-31q-14 0 -49 2 t-51 0l-93 -4q-74 0 -124 10q-78 16 -78 111q0 10 3 53t1 61l-4 64q-6 91 46 125q18 12 27 12h9q31 -2 45 -10t32 -8q27 0 27 26v4q-2 25 -17 56t-49 119t-55 126q-23 39 -37 77t-38 94t-33 86q-8 29 -38 94t-30 100q0 79 119 86h26l82 -8l54 -2l131 6q35 0 52 -20t41 -83 q24 -62 23 -85l19 -66q14 -43 17 -76t10 -49l8 -45q0 -24 11 -24z" glyph-name="yacute" horiz-adv-x="1079" unicode="ý"/><glyph d="M559 556q0 -44 13 -68q26 -47 124 -52q41 -8 64 -8t49 16q76 46 76 110t-66 101q-29 20 -51 21h-33l-47 2q-51 0 -90 -39t-39 -83zM68 1171q0 10 -5 64v33q0 104 101 104l100 -4l66 4h127q43 0 61 -8q41 -18 41 -84q0 -4 -4 -90v-37q-6 -59 -6 -66q0 -37 20 -36 q16 0 56 20q94 51 189 51t167 -24t83 -28t65 -39q54 -34 63 -42q8 -10 31 -37q33 -33 57 -63q41 -66 68 -127l14 -31q31 -67 31 -153q0 -182 -93 -334q-47 -82 -61 -101q-59 -61 -145 -103t-132 -52t-160 -10t-163 18q-49 20 -65 20t-24 -7q-7 -7 -7 -13l10 -100 q0 -72 -84 -72q-2 0 -129 6q-39 -2 -72 -2h-28q-35 2 -64 2h-6q-35 -2 -61 -2q-43 0 -43 78q0 20 8 67v50l-4 63l4 152l-4 110l4 164l-4 90l2 223l2 86l-6 185v75z" glyph-name="thorn" horiz-adv-x="1406" unicode="þ"/><glyph d="M934 1231l-72 6h-37l-71 -2q-31 -2 -48 -1t-38 1l-29 -2q-27 0 -49 18t-17 66l2 41q3 68 15 84q21 29 129 16q0 -2 31 0h106l29 2h22q61 -2 73 -21t17 -102v-32q-2 -74 -63 -74zM506 1307q0 -74 -105 -74l-43 4h-45l-65 4q-12 2 -30 -2t-34 -4l-61 4h-6q-8 0 -21 12 q-12 12 -16 33v16l6 80q0 51 16 64q35 20 86 20l68 -4h55l88 -4l23 2q47 0 65 -14t19 -74v-63zM554 662q11 0 14 5t8 52t16 82l20 78q4 16 15 45q13 38 15 50q1 11 3 17l8 45q0 33 13 46q26 28 90 28h10l86 -8h41l129 10q46 0 72 -26t26 -44t-12 -61l-12 -43 q-10 -20 -29 -94t-29 -109l-43 -133l-57 -139q-45 -112 -45 -116q0 -5 -3 -12t-9 -34t-11 -41l-49 -147q-29 -89 -55 -129q-92 -146 -268 -154h-31q-14 0 -49 2t-51 0l-93 -4q-74 0 -124 10q-78 16 -78 111q0 10 3 53t1 61l-4 64q-6 91 46 125q18 12 27 12h9q31 -2 45 -10 t32 -8q27 0 27 26v4q-2 25 -17 56t-49 119t-55 126q-23 39 -37 77t-38 94t-33 86q-8 29 -38 94t-30 100q0 79 119 86h26l82 -8l54 -2l131 6q35 0 52 -20t41 -83q24 -62 23 -85l19 -66q14 -43 17 -76t10 -49l8 -45q0 -24 11 -24z" glyph-name="ydieresis" horiz-adv-x="1079" unicode="ÿ"/><glyph d="M1049 1679q35 0 44 -10t9 -47l-6 -59l4 -56q0 -49 -44 -49h-89l-111 -2l-74 6l-65 -4l-94 2l-56 -4l-106 6l-84 -4q-47 0 -47 29v2q0 8 4 20v50l2 34l-2 31v23q4 33 51 32l107 -4q44 0 64 3t71 1l164 -4l221 4h37zM621 645q0 -53 45 -53h49q84 0 99 18t7 52l-12 53 q-31 150 -60 179q-11 11 -27 11t-26 -9q-10 -8 -18 -36t-15 -53t-11 -35t-11 -43q-6 -33 -13 -54t-7 -30zM1464 88v-14q0 -75 -92 -78h-16l-25 2h-22l-125 2q-89 0 -117 -2t-49 0q-37 10 -57 57l-17 35q-25 47 -57 60q-11 12 -73 6t-79 -4l-69 4q-50 4 -76 4t-38 -16 q-11 -16 -13 -17l-33 -57q-27 -49 -40 -62t-44 -8h-16l-97 -4h-43l-121 4h-35q-79 0 -108 27t-29 72t18 94t35 121t37 123q19 50 28 82t34 112q30 97 43 174q12 77 39 151l26 76q6 18 28 100t36 130q14 50 50 76q35 26 101 28q66 4 76 1t49 1l93 4l63 -2l35 -2q33 -2 133 -2 l64 2q75 0 115 -30t67 -130l10 -41q8 -31 33 -92t37 -106l20 -82l7 -31q3 -14 5 -19t2 -10q10 -17 23 -55l8 -22q6 -24 26 -118t48 -175l12 -37q12 -37 33 -132t39 -139q18 -43 18 -61z" glyph-name="Amacron" horiz-adv-x="1435" unicode="Ā"/><glyph d="M971 1454q35 0 44 -10t9 -47l-6 -60l4 -55q0 -42 -28 -47q-11 -2 -36 -2h-69l-111 -2l-73 6l-66 -4l-94 2l-56 -4l-106 6l-84 -4q-47 0 -47 29v2q0 8 4 20v49l2 35l-2 31v22q4 33 51 33l107 -4q44 0 64 3t71 1l164 -4l221 4h37zM645 311q37 -1 59 21t21 50q1 28 -23 43 t-47 15l-75 4q-38 4 -62 -22t-24 -51q0 -64 67 -66l45 6h39zM791 43v12q-1 9 -7 17t-19 -1t-21 -13t-37 -21l-19 -10q-85 -47 -188 -47t-118 5t-30 11t-81 25q-66 20 -85 32q-159 129 -159 301q0 64 39 148q37 84 85 128t97 54l55 14q41 10 64 22t107 11q100 0 160 -12 t86 -12q26 1 26 27q-1 37 -74 69q-16 6 -74 8l-80 4q-58 0 -117 -10l-82 -14q-20 -5 -35 -9t-38 -4t-39 14q-17 14 -23 29q-6 14 -6 88v39l-2 25v12l-2 39q0 41 29 57q29 15 87 23t210 16l43 2q6 0 23 2t40 -1t45 -3l51 -2h50q40 0 112 -9t110 -25t98 -61t80 -69t46 -88 t23 -139l-7 -119q-2 -35 1 -85t4 -97v-78l-11 -178l11 -84q0 -51 -29 -74q-25 -16 -53 -16l-58 4h-94q-51 0 -100 -4l-56 -4q-38 0 -38 51z" glyph-name="amacron" horiz-adv-x="1277" unicode="ā"/><glyph d="M575 1681q29 -45 138 -45t143 39l16 21q12 12 28 12t30 -3q12 -3 28 -1l56 2l47 4q31 2 31 -27v-12q-6 -43 -31 -78q-68 -96 -184 -123q-61 -14 -191 -14t-215 45q-51 25 -80 64q-49 67 -49 105t29 38q12 0 49 -4l31 -2l84 6q28 0 34 -12t6 -15zM621 645q0 -53 45 -53h49 q84 0 99 18t7 52l-12 53q-31 150 -60 179q-11 11 -27 11t-26 -9q-10 -8 -18 -36t-15 -53t-11 -35t-11 -43q-6 -33 -13 -54t-7 -30zM1464 88v-14q0 -75 -92 -78h-16l-25 2h-22l-125 2q-89 0 -117 -2t-49 0q-37 10 -57 57l-17 35q-25 47 -57 60q-11 12 -73 6t-79 -4l-69 4 q-50 4 -76 4t-38 -16q-11 -16 -13 -17l-33 -57q-27 -49 -40 -62t-44 -8h-16l-97 -4h-43l-121 4h-35q-79 0 -108 27t-29 72t18 94t35 121t37 123q19 50 28 82t34 112q30 97 43 174q12 77 39 151l26 76q6 18 28 100t36 130q14 50 50 76q35 26 101 28q66 4 76 1t49 1l93 4 l63 -2l35 -2q33 -2 133 -2l64 2q75 0 115 -30t67 -130l10 -41q8 -31 33 -92t37 -106l20 -82l7 -31q3 -14 5 -19t2 -10q10 -17 23 -55l8 -22q6 -24 26 -118t48 -175l12 -37q12 -37 33 -132t39 -139q18 -43 18 -61z" glyph-name="Abreve" horiz-adv-x="1435" unicode="Ă"/><glyph d="M498 1456q29 -45 138 -45t142 39l17 20q19 19 44 13t42 -4l55 2l47 4q31 2 31 -27v-12q-6 -43 -31 -78q-68 -96 -184 -123q-61 -14 -191 -14t-215 45q-51 25 -80 63q-49 68 -49 106t29 38q12 0 49 -4l31 -2l84 6q27 -1 34 -13t7 -14zM645 311q37 -1 59 21t21 50 q1 28 -23 43t-47 15l-75 4q-38 4 -62 -22t-24 -51q0 -64 67 -66l45 6h39zM791 43v12q-1 9 -7 17t-19 -1t-21 -13t-37 -21l-19 -10q-85 -47 -188 -47t-118 5t-30 11t-81 25q-66 20 -85 32q-159 129 -159 301q0 64 39 148q37 84 85 128t97 54l55 14q41 10 64 22t107 11 q100 0 160 -12t86 -12q26 1 26 27q-1 37 -74 69q-16 6 -74 8l-80 4q-58 0 -117 -10l-82 -14q-20 -5 -35 -9t-38 -4t-39 14q-17 14 -23 29q-6 14 -6 88v39l-2 25v12l-2 39q0 41 29 57q29 15 87 23t210 16l43 2q6 0 23 2t40 -1t45 -3l51 -2h50q40 0 112 -9t110 -25t98 -61 t80 -69t46 -88t23 -139l-7 -119q-2 -35 1 -85t4 -97v-78l-11 -178l11 -84q0 -51 -29 -74q-25 -16 -53 -16l-58 4h-94q-51 0 -100 -4l-56 -4q-38 0 -38 51z" glyph-name="abreve" horiz-adv-x="1277" unicode="ă"/><glyph d="M621 645q0 -53 45 -53h49q84 0 99 18t7 52l-12 53q-31 150 -60 179q-11 11 -27 11t-26 -9q-10 -8 -18 -36t-15 -53t-11 -35t-11 -43q-6 -33 -13 -54t-7 -30zM1464 88v-14q0 -75 -92 -78h-16l-47 2q-63 0 -93 -29t-28 -57q0 -28 14 -41q14 -14 35 -14l51 10q31 10 60 10 q45 0 46 -56t-34 -87q-52 -41 -178 -41t-176 40q-100 79 -7 201q13 16 17 20t10 11q18 23 -10 35q-37 14 -55 55l-17 35q-25 47 -57 60q-11 12 -73 6t-79 -4l-69 4q-50 4 -76 4t-38 -16q-11 -16 -13 -17l-33 -57q-27 -49 -40 -62t-44 -8h-16l-97 -4h-43l-121 4h-35 q-79 0 -108 27t-29 72t18 94t35 121t37 123q19 50 28 82t34 112q30 97 43 174q12 77 39 151l26 76q6 18 28 100t37 134q15 54 50 78q34 24 100 27t76 0t49 1l93 4l63 -2l35 -2q33 -2 133 -2l64 2q73 0 113 -29t69 -135l10 -41q8 -31 33 -92t37 -106l20 -82l7 -31 q3 -14 5 -19t2 -10q10 -17 23 -55l8 -22q6 -24 26 -118t48 -175l12 -37q12 -37 33 -132t39 -139q18 -43 18 -61z" glyph-name="Aogonek" horiz-adv-x="1435" unicode="Ą"/><glyph d="M645 311q37 -1 59 21t21 50q1 28 -23 43t-47 15l-75 4q-38 4 -62 -22t-24 -51q0 -64 67 -66l45 6h39zM1133 -121q45 0 46 -56t-42 -90t-163 -34t-177 41q-49 39 -49 92q0 54 38 98t38 51t-17 17q-16 10 -16 45v12q-1 9 -7 17t-19 -1t-21 -13t-37 -21l-19 -10 q-85 -47 -188 -47t-118 5t-30 11t-81 25q-66 20 -85 32q-159 129 -159 301q0 64 39 148q37 84 85 128t97 54l55 14q41 10 64 22t107 11q100 0 160 -12t86 -12q26 1 26 27q-1 37 -74 69q-16 6 -74 8l-80 4q-58 0 -117 -10l-82 -14q-20 -5 -35 -9t-38 -4t-39 14q-17 14 -23 29 q-6 14 -6 88v39l-2 25v12l-2 39q0 41 29 57q29 15 87 23t210 16l43 2q6 0 23 2t40 -1t45 -3l51 -2h50q40 0 112 -9t110 -25t98 -61t80 -69t46 -88t23 -139l-7 -119q-2 -35 1 -85t4 -97v-78l-11 -178l11 -84q0 -51 -29 -74q-24 -16 -50 -16t-36 2l-25 2q-39 0 -71 -30 t-31 -56q0 -26 14 -41q13 -14 33 -14t51 10t58 10z" glyph-name="aogonek" horiz-adv-x="1277" unicode="ą"/><glyph d="M991 1624q0 -25 -13 -35q-12 -10 -38 -18q-26 -7 -51 -15t-57 -19t-46 -15l-86 -25q-16 -3 -60 -21t-81 -18l-33 -2l-49 2l-53 -2q-33 0 -33 25q-1 13 31 69t43 71q32 48 70 48h12q115 -6 164 -2l57 2h86l68 2h20q49 -2 49 -47zM23 754q0 76 34 180q61 164 125 235 q90 95 199 149t350 54q8 0 35 1t44 0t45 -2q124 -4 144 -52q6 -18 7 -41v-29l-9 -110v-52q1 -33 7 -87t3 -82t-23 -51q-20 -22 -56 -21l-76 6l-64 -4q-24 -2 -54 -1t-60 -2t-66 -32q-59 -47 -59 -117q0 -197 219 -194q66 10 133 18h17q94 0 96 -125l-4 -98v-57l8 -101v-22 l2 -13q0 -32 -31 -62t-76 -41t-147 -13h-23q-335 5 -478 132q-26 24 -54 62t-72 94q-44 57 -64 115q-21 59 -37 173q-15 114 -15 190z" glyph-name="Cacute" horiz-adv-x="1054" unicode="Ć"/><glyph d="M862 1399q0 -25 -13 -35t-39 -18t-50 -16q-25 -6 -57 -18t-46 -16l-86 -24q-2 0 -64 -22t-97 -21l-62 4l-53 -2q-33 0 -33 24q0 13 32 69t42 72q32 47 70 48h12q115 -6 164 -2l57 2h86l68 2h20q49 -2 49 -47zM872 770q0 -66 -24 -90q-13 -16 -31 -16l-184 -5 q-67 1 -97 -35t-30 -91q0 -92 106 -99l60 -2l65 -4l64 6q31 0 50 -22t19 -54l-8 -137q-2 -18 6 -80l4 -41q6 -68 -79 -102q-37 -12 -144 -12t-139 7q-34 7 -56 9t-82 20t-118 66q-25 18 -39 36t-61 57q-114 97 -134 286q-6 68 -6 125t25 119t31 82l14 28q16 29 64 91t80 92 q30 30 83 57q96 53 281 53h160q118 0 116 -78l-2 -168l6 -75v-23z" glyph-name="cacute" horiz-adv-x="903" unicode="ć"/><glyph d="M1036 1489q0 -39 -75 -33q-27 2 -41 2h-91q-29 0 -99 33t-103 33t-95 -32t-114 -32h-23l-69 2l-33 -2h-17q-31 2 -30 27q0 25 13 37t27 24t36 33q98 96 143 96l24 -2h23q20 4 39 4h20l111 -4l94 2q54 0 66 -7t21 -11t30 -27q22 -24 38 -34t60 -55q45 -46 45 -54zM23 754 q0 76 34 180q61 164 125 235q90 95 199 149t350 54q8 0 35 1t44 0t45 -2q124 -4 144 -52q6 -18 7 -41v-29l-9 -110v-52q1 -33 7 -87t3 -82t-23 -51q-20 -22 -56 -21l-76 6l-64 -4q-24 -2 -54 -1t-60 -2t-66 -32q-59 -47 -59 -117q0 -197 219 -194q66 10 133 18h17 q94 0 96 -125l-4 -98v-57l8 -101v-22l2 -13q0 -32 -31 -62t-76 -41t-147 -13h-23q-335 5 -478 132q-26 24 -54 62t-72 94q-44 57 -64 115q-21 59 -37 173q-15 114 -15 190z" glyph-name="Ccircumflex" horiz-adv-x="1054" unicode="Ĉ"/><glyph d="M903 1266q0 -39 -76 -33q-27 2 -41 2h-90q-29 1 -97 33t-103 32q-34 0 -96 -32t-115 -31h-23l-69 2l-33 -2h-17q-31 2 -30 27q0 24 18 42t45 37q111 111 156 111l24 -2h23q20 4 39 4h20l111 -4h137q18 -2 32 -10q13 -8 20 -12q8 -4 26 -24t38 -34t60 -56q41 -42 41 -50z M872 770q0 -66 -24 -90q-13 -16 -31 -16l-184 -5q-67 1 -97 -35t-30 -91q0 -92 106 -99l60 -2l65 -4l64 6q31 0 50 -22t19 -54l-8 -137q-2 -18 6 -80l4 -41q6 -68 -79 -102q-37 -12 -144 -12t-139 7q-34 7 -56 9t-82 20t-118 66q-25 18 -39 36t-61 57q-114 97 -134 286 q-6 68 -6 125t25 119t31 82l14 28q16 29 64 91t80 92q30 30 83 57q96 53 281 53h160q118 0 116 -78l-2 -168l6 -75v-23z" glyph-name="ccircumflex" horiz-adv-x="903" unicode="ĉ"/><glyph d="M393 1677h23q52 1 114 -31t95 -32t103 32t99 33h91q14 0 40 2q76 6 76 -32q0 -8 -45 -55t-60 -56q-15 -8 -33 -28t-31 -27q-12 -6 -20 -12q-9 -6 -28 -9h-137l-111 -4h-20q-18 0 -39 4h-23l-24 -2q-45 0 -156 111q-47 35 -55 51t-8 29q0 25 30 26h17l33 -2q18 -2 40 0 t29 2zM23 754q0 76 34 180q61 164 125 235q90 95 199 149t350 54q8 0 35 1t44 0t45 -2q124 -4 144 -52q6 -18 7 -41v-29l-9 -110v-52q1 -33 7 -87t3 -82t-23 -51q-20 -22 -56 -21l-76 6l-64 -4q-24 -2 -54 -1t-60 -2t-66 -32q-59 -47 -59 -117q0 -197 219 -194q66 10 133 18 h17q94 0 96 -125l-4 -98v-57l8 -101v-22l2 -13q0 -32 -31 -62t-76 -41t-147 -13h-23q-335 5 -478 132q-26 24 -54 62t-72 94q-44 57 -64 115q-21 59 -37 173q-15 114 -15 190z" glyph-name="Ccaron" horiz-adv-x="1054" unicode="Č"/><glyph d="M285 1450h22q53 0 115 -32t93 -32t103 33t101 33h90q14 0 41 2q74 5 76 -33q0 -8 -48 -57t-65 -55q-9 -7 -27 -27q-39 -43 -77 -47h-138l-110 -4h-21q-18 0 -39 4h-22l-25 -2q-45 0 -155 110q-9 7 -23 19l-28 24t-13 37q0 25 31 27h16l33 -2q18 -2 40 0t30 2zM872 770 q0 -66 -24 -90q-13 -16 -31 -16l-184 -5q-67 1 -97 -35t-30 -91q0 -92 106 -99l60 -2l65 -4l64 6q31 0 50 -22t19 -54l-8 -137q-2 -18 6 -80l4 -41q6 -68 -79 -102q-37 -12 -144 -12t-139 7q-34 7 -56 9t-82 20t-118 66q-25 18 -39 36t-61 57q-114 97 -134 286q-6 68 -6 125 t25 119t31 82l14 28q16 29 64 91t80 92q30 30 83 57q96 53 281 53h160q118 0 116 -78l-2 -168l6 -75v-23z" glyph-name="ccaron" horiz-adv-x="903" unicode="č"/><glyph d="M489 1675h23q53 1 115 -31t95 -32t103 32t99 33h90q14 0 41 2q75 6 75 -32q0 -8 -45 -55t-60 -56q-15 -8 -44 -40t-58 -35q-30 -3 -53 -3l-94 2l-110 -4h-21q-18 0 -39 4h-22l-25 -2q-45 0 -156 111q-47 35 -55 51t-8 29q0 25 31 26h16l33 -2q18 -2 40 0t29 2zM606 588 q0 -46 14 -66t48 -24h8q12 2 46 11t62 9q8 4 21 4l12 6h4l15 4q81 23 86 152q0 78 -50 123t-104 45l-90 10q-36 0 -60 -32t-18 -91l6 -75l2 -29l-2 -31v-16zM544 1372q126 0 249 -16t159 -32t70 -37q43 -28 108 -55q66 -26 102 -63t98 -119t75 -108q45 -90 45 -242t-43 -266 q-84 -223 -285 -317q-141 -65 -243 -91t-261 -26l-182 4h-43q-29 0 -57 -2l-80 -4q-115 0 -154 39q-30 37 -28 73t7 64t5 188v101l-12 235v97l8 231l-4 207q0 76 33 104q31 31 75 29l131 -4q39 0 70 5t157 5z" glyph-name="Dcaron" horiz-adv-x="1472" unicode="Ď"/><glyph d="M1524 831q0 10 7 25t10 28t12 31q26 51 -15 64q0 4 -31 0h-28q-18 0 -39 17t-21 81v10l8 78l-8 99q0 104 62 104l108 -2h144q47 -2 67 -28t21 -60l-6 -166l2 -29v-69l2 -25q1 -17 -11 -39t-20 -46t-30 -60q-22 -37 -38 -43t-41 -6l-37 2l-43 2q-60 0 -68 11q-7 11 -7 21z M518 550q0 -58 60 -91q49 -31 99 -31t106 25q57 25 57 89t-31 95t-66 35l-73 12q-52 0 -102 -38t-50 -96zM823 1075q29 0 29 35v94l-8 80q0 40 25 66t75 26l100 -6h46l61 4h70l49 2q35 0 54 -26t19 -64v-31q0 -29 -7 -86t-7 -125v-24l6 -80l4 -47v-37l-2 -29l-2 -55 q-2 -62 -2 -106t-2 -76v-19l4 -67q2 -51 -1 -75q-3 -23 -1 -61t2 -60t-2 -69q-2 -46 0 -71l2 -33v-12l2 -43q0 -90 -80 -90l-55 4q-78 0 -102 2l-53 4q-25 2 -45 -4t-58 -6h-6q-56 0 -69 26q-3 8 -3 23v12q0 25 -18 25q-8 0 -60 -47l-10 -4q-48 -27 -64 -29t-34 -3t-35 -3 l-29 -4q-86 -12 -190 18l-41 12q-72 23 -90 41l-62 60q-4 4 -32 26t-74 90l-57 93q-56 96 -56 189q0 163 72 319q29 58 93 122q121 122 243 150q16 4 147 14l62 4q12 0 88 -14l35 -8q20 -4 40 -16t29 -11z" glyph-name="dcaron" horiz-adv-x="1757" unicode="ď"/><glyph d="M848 743v-22q-2 -15 -2 -31v-37q0 -53 -64 -53l-104 4q-35 0 -64 -4q-16 -4 -16 -31q0 -90 18 -104t82 -14q103 0 162 22q125 76 125 236q0 61 -46 119q-45 58 -81 74q-36 15 -90 18q-51 8 -86 8t-55 -15q-29 -16 -29 -86q0 -18 5 -23t77 -5l82 4q86 0 86 -60zM90 909 q6 13 6 67t-6 161q4 150 10 166q25 63 121 63q4 0 74 -4l207 10h2l45 -6h201q46 0 120 -17t94 -25t50 -24t44 -24t91 -46q75 -38 99 -62t95 -119q66 -80 80 -117q39 -90 39 -221t-12 -181q-28 -104 -54 -160t-62 -94q-36 -36 -51 -54q-16 -18 -24 -29t-9 -12t-7 -5t-8 -6 t-119 -59t-141 -65t-144 -26l-63 -12q-76 -10 -127 -10l-215 8l-84 -6q-43 -2 -96 -2q-156 0 -156 133l12 168l-2 66v149q0 72 -14 84q-12 6 -43 6l-55 -4q-39 0 -39 41l4 55v68q0 39 33 39l69 -6q37 -1 37 32l-2 76v4z" glyph-name="Dcroat" horiz-adv-x="1486" unicode="Đ"/><glyph d="M518 550q0 -58 60 -91q49 -31 99 -31t106 25q57 25 57 89t-31 95t-66 35l-73 12q-52 0 -102 -38t-50 -96zM14 523q0 51 24 135t40 120t66 88q97 106 209 156q91 37 247 37q62 0 88 -7q26 -8 60 -12q33 -4 48 -12t27 -8q31 0 29 36t-64 42l-47 4q-37 4 -155 -2 q-45 -4 -45 28l4 62q2 12 0 20t-2 13q0 35 104 20l41 -2h96q37 0 46 7t14 36l4 29q2 19 24 41t72 22l100 -6h46l61 4h70l49 2q35 0 54 -26t19 -64v-22q0 -18 11 -19h6q43 0 35 -47l-2 -14v-54q-3 -30 -39 -30h-8q-12 0 -13 -10l-2 -21l-2 -16v-54l10 -106v-37l-2 -29l-2 -55 q-2 -62 -2 -106t-2 -76v-19l4 -67q2 -51 -1 -75q-3 -23 -1 -61t2 -60t-2 -69q-2 -46 0 -71l2 -33v-12l2 -43q0 -90 -80 -90l-55 4q-27 0 -102 2l-53 2l-103 -8h-6q-56 0 -69 26q-3 8 -3 23v12q0 25 -18 25q-8 0 -60 -47l-10 -4q-48 -27 -64 -29t-34 -3t-35 -3l-29 -4 q-86 -12 -190 18l-41 12q-57 16 -90 41l-59 43q-8 6 -28 30t-52 48q-34 25 -50 62l-36 86l-13 16q-11 16 -27 74t-16 107z" glyph-name="dcroat" horiz-adv-x="1460" unicode="đ"/><glyph d="M932 1679q35 0 44 -10t9 -47l-6 -59l4 -56q0 -42 -28 -47q-11 -2 -36 -2h-69l-111 -2l-73 6l-66 -4l-94 2l-55 -4l-107 6l-84 -4q-47 0 -47 29v2q0 8 4 20v50l2 34l-2 31v23q4 33 51 32l107 -4q43 0 63 3t72 1l164 -4l221 4h37zM1053 430q39 0 59 -18q39 -35 39 -103v-22 l-2 -14v-27l2 -39q8 -125 -10 -165t-72 -44h-47l-59 6h-31q-29 0 -32 -5t-81 -5l-31 -2l-90 8h-57q-35 -2 -133 -2l-170 2l-162 -8h-10q-92 0 -90 88l2 29q2 16 2 49l6 225l6 98q0 85 -6 143t-4 91t0 53l-8 170l8 123v59l-8 127q-2 66 35 99t104 32l104 -10l160 4l80 -2h39 l53 -2h25l88 -2l88 4h37l104 6q113 0 113 -98l-2 -43v-82l8 -94q0 -98 -82 -96l-61 4h-15l-30 -2h-7q-29 0 -59 4l-27 4q-16 2 -49 -2t-45 -4l-78 4q-59 0 -59 -51q0 -27 18 -40t95 -14h34l56 6h106l94 7q55 0 73 -29t18 -55l4 -113l6 -82q0 -72 -66 -74h-41q-37 0 -79 -5 t-89 -3l-94 2h-20q-10 -1 -38 0q-28 2 -46 -16q-31 -42 8 -68q23 -18 70 -18l206 10h86l33 2h21z" glyph-name="Emacron" horiz-adv-x="1202" unicode="Ē"/><glyph d="M944 1454q35 0 44 -10t9 -47l-6 -60l4 -55q0 -42 -27 -47q-11 -2 -36 -2h-70l-110 -2l-74 6l-66 -4l-94 2l-55 -4l-107 6l-84 -4q-47 0 -47 29v2q0 8 4 20v49l2 35l-2 31v22q4 33 52 33l106 -4q43 0 63 3t72 1l164 -4l221 4h37zM610 805q-129 1 -129 -45q0 -50 51 -51 l70 2l66 4l32 -4h17q17 0 35 11q18 12 18 28t-26 36t-91 23h-6l-14 -2h-4zM1200 688q0 -24 6 -61l6 -49q4 -25 -5 -59q-19 -73 -87 -73l-92 -2l-147 -8h-19q-53 0 -80 4t-39 4l-36 -4h-58l-76 2q-66 2 -65 -41q0 -19 35 -41t94 -22h65l99 -8h133q51 0 92 10l45 10 q41 10 61 -12t19 -40q0 -18 -4 -53q-4 -34 -2 -61l6 -78q6 -74 -31 -92q-47 -27 -153 -32l-72 -5l-158 -8q-47 0 -129 15l-39 6q-98 16 -148 34t-124 56q-133 72 -225 244q-57 106 -58 237q0 37 12 86q16 67 26 117q11 51 38 92q26 41 74 99q48 59 76 74t58 25t51 23 q21 12 45 21q24 8 34 10t21 6l22 6q51 14 131 14t277 -44q49 -10 151 -86q31 -23 81 -82q49 -59 69 -135q20 -75 20 -99z" glyph-name="emacron" horiz-adv-x="1226" unicode="ē"/><glyph d="M539 1466q-14 0 -39 -4l-23 -2l-49 4h-6q-16 4 -26 20t-11 27l2 23v20l6 80v8q0 10 6 19q20 27 64 27l90 -5h37l69 -2l70 2q45 0 65 -16t19 -89q0 -73 -14 -88q-14 -16 -31 -24t-63 -8l-43 4h-44l-65 4h-14zM1053 430q39 0 59 -18q39 -35 39 -103v-22l-2 -14v-27l2 -39 q8 -125 -10 -165t-72 -44h-47l-59 6h-31q-29 0 -32 -5t-81 -5l-31 -2l-90 8h-57q-35 -2 -133 -2l-170 2l-162 -8h-10q-92 0 -90 88l2 29q2 16 2 49l6 225l6 98q0 85 -6 143t-4 91t0 53l-8 170l8 123v59l-8 127q-2 66 35 99t104 32l104 -10l160 4l80 -2h39l53 -2h25l88 -2 l88 4h37l104 6q113 0 113 -98l-2 -43v-82l8 -94q0 -98 -82 -96l-61 4h-15l-30 -2h-7q-29 0 -59 4l-27 4q-16 2 -49 -2t-45 -4l-78 4q-59 0 -59 -51q0 -27 18 -40t95 -14h34l56 6h106l94 7q55 0 73 -29t18 -55l4 -113l6 -82q0 -72 -66 -74h-41q-37 0 -79 -5t-89 -3l-94 2h-20 q-10 -1 -38 0q-28 2 -46 -16q-31 -42 8 -68q23 -18 70 -18l206 10h86l33 2h21z" glyph-name="Edotaccent" horiz-adv-x="1202" unicode="Ė"/><glyph d="M551 1241q-14 0 -39 -4l-23 -2l-49 4h-6q-16 3 -26 19t-11 28l2 23v20l4 51q0 17 3 29v8q0 10 6 19q20 27 63 26l90 -4h37l70 -2l69 2q45 0 65 -16t19 -89q0 -73 -14 -89t-31 -23q-17 -8 -63 -8l-43 4h-43l-66 4h-14zM610 805q-129 1 -129 -45q0 -50 51 -51l70 2l66 4 l32 -4h17q17 0 35 11q18 12 18 28t-26 36t-91 23h-6l-14 -2h-4zM1200 688q0 -24 6 -61l6 -49q4 -25 -5 -59q-19 -73 -87 -73l-92 -2l-147 -8h-19q-53 0 -80 4t-39 4l-36 -4h-58l-76 2q-66 2 -65 -41q0 -19 35 -41t94 -22h65l99 -8h133q51 0 92 10l45 10q41 10 61 -12t19 -40 q0 -18 -4 -53q-4 -34 -2 -61l6 -78q6 -74 -31 -92q-47 -27 -153 -32l-72 -5l-158 -8q-47 0 -129 15l-39 6q-98 16 -148 34t-124 56q-133 72 -225 244q-57 106 -58 237q0 37 12 86q16 67 26 117q11 51 38 92q26 41 74 99q48 59 76 74t58 25t51 23q21 12 45 21q24 8 34 10 t21 6l22 6q51 14 131 14t277 -44q49 -10 151 -86q31 -23 81 -82q49 -59 69 -135q20 -75 20 -99z" glyph-name="edotaccent" horiz-adv-x="1226" unicode="ė"/><glyph d="M1053 430q39 0 59 -18q39 -35 39 -103v-22l-2 -14v-27l2 -39q2 -53 2 -99t-20 -78t-64 -32h-25q-46 0 -76 -31t-30 -57t14 -39q14 -14 30 -14q27 0 54 10t62 10q47 0 47 -56t-35 -87q-52 -41 -178 -41t-176 40t-51 92q0 52 56 124q13 15 13 28q0 18 -76 23h-57 q-47 -2 -133 -2l-170 2l-162 -8h-10q-92 0 -90 88l2 29q2 16 2 49l6 225l6 98q0 85 -6 143t-4 91t0 53l-8 170l8 123v59l-8 127q-2 66 35 99t104 32l104 -10l160 4l80 -2h39l53 -2h25l88 -2l88 4l37 2q53 2 69 3t35 1q113 0 113 -98l-2 -43v-82l8 -94q0 -98 -82 -96l-61 4 h-15l-30 -2h-7q-29 0 -59 4l-27 4q-16 2 -49 -2t-45 -4l-78 4q-59 0 -59 -51q0 -27 18 -40t95 -14h34l56 6h106l94 7q55 0 73 -29t18 -55l4 -113l6 -82q0 -72 -66 -74h-41q-37 0 -79 -5t-89 -3l-94 2h-20q-10 -1 -38 0q-28 2 -46 -16q-31 -42 8 -68q23 -18 70 -18l206 10h86 l33 2h21z" glyph-name="Eogonek" horiz-adv-x="1202" unicode="Ę"/><glyph d="M610 805q-129 1 -129 -45q0 -50 51 -51l70 2l66 4l32 -4h17q17 0 35 11q18 12 18 28t-26 36t-91 23h-6l-14 -2h-4zM1120 -121q47 0 47 -56q-1 -56 -43 -90t-162 -34t-178 41q-49 39 -49 92t30 84t58 53h-86q-16 0 -129 15l-39 6q-98 16 -148 34t-124 56q-133 72 -225 244 q-57 106 -58 237q0 37 12 87t17 80q16 80 41 122t76 105q52 63 80 78t58 25t54 26q24 14 45 20t31 8t21 6l22 6q127 34 408 -30q49 -10 151 -86q31 -23 80 -81q50 -58 70 -137q20 -78 20 -102t6 -61l6 -49q4 -25 -5 -59q-19 -73 -87 -73l-92 -2l-147 -8h-19q-53 0 -80 4 t-39 4l-36 -4h-58l-76 2q-66 2 -65 -41q0 -19 35 -41t94 -22h65l99 -8h133q51 0 92 10l45 10q41 10 61 -12t19 -40q0 -18 -4 -53q-4 -34 -2 -61l6 -78q6 -74 -26 -90q-31 -16 -75 -26t-65 -28t-21 -46t15 -43q13 -14 33 -14t51 10t57 10z" glyph-name="eogonek" horiz-adv-x="1226" unicode="ę"/><glyph d="M354 1675h23q53 1 115 -31t94 -32q33 0 103 32t99 33h91q14 0 41 2q75 6 75 -32q0 -8 -45 -55t-60 -56q-16 -8 -34 -28t-36 -33q-25 -17 -85 -17l-94 2l-111 -4h-20q-18 0 -39 4h-22l-25 -2q-45 0 -156 111q-47 35 -55 51t-8 29q0 25 31 26h16l33 -2q18 -2 40 0t29 2z M1053 430q39 0 59 -18q39 -35 39 -103v-22l-2 -14v-27l2 -39q8 -125 -10 -165t-72 -44h-47l-59 6h-31q-29 0 -32 -5t-81 -5l-31 -2l-90 8h-57q-35 -2 -133 -2l-170 2l-162 -8h-10q-92 0 -90 88l2 29q2 16 2 49l6 225l6 98q0 85 -6 143t-4 91t0 53l-8 170l8 123v59l-8 127 q-2 66 35 99t104 32l104 -10l160 4l80 -2h39l53 -2h25l88 -2l88 4h37l104 6q113 0 113 -98l-2 -43v-82l8 -94q0 -98 -82 -96l-61 4h-15l-30 -2h-7q-29 0 -59 4l-27 4q-16 2 -49 -2t-45 -4l-78 4q-59 0 -59 -51q0 -27 18 -40t95 -14h34l56 6h106l94 7q55 0 73 -29t18 -55 l4 -113l6 -82q0 -72 -66 -74h-41q-37 0 -79 -5t-89 -3l-94 2h-20q-10 -1 -38 0q-28 2 -46 -16q-31 -42 8 -68q23 -18 70 -18l206 10h86l33 2h21z" glyph-name="Ecaron" horiz-adv-x="1202" unicode="Ě"/><glyph d="M367 1450h22q53 0 115 -32t93 -32t103 33t101 33h90q14 0 41 2q74 5 76 -33q0 -8 -46 -55t-61 -55q-14 -8 -34 -30t-31 -28t-22 -13t-66 -7l-95 2l-110 -4h-21q-18 0 -39 4h-22l-25 -2q-45 0 -155 110q-9 7 -23 19l-28 24t-13 37q0 25 31 27h16l33 -2q18 -2 40 0t30 2z M610 805q-129 1 -129 -45q0 -50 51 -51l70 2l66 4l32 -4h17q17 0 35 11q18 12 18 28t-26 36t-91 23h-6l-14 -2h-4zM1200 688q0 -24 6 -61l6 -49q4 -25 -5 -59q-19 -73 -87 -73l-92 -2l-147 -8h-19q-53 0 -80 4t-39 4l-36 -4h-58l-76 2q-66 2 -65 -41q0 -19 35 -41t94 -22h65 l99 -8h133q51 0 92 10l45 10q41 10 61 -12t19 -40q0 -18 -4 -53q-4 -34 -2 -61l6 -78q6 -74 -31 -92q-47 -27 -153 -32l-72 -5l-158 -8q-47 0 -129 15l-39 6q-98 16 -148 34t-124 56q-133 72 -225 244q-57 106 -58 237q0 37 12 86q16 67 26 117q11 51 38 92q26 41 74 99 q48 59 76 74t58 25t51 23q21 12 45 21q24 8 34 10t21 6l22 6q51 14 131 14t277 -44q49 -10 151 -86q31 -23 81 -82q49 -59 69 -135q20 -75 20 -99z" glyph-name="ecaron" horiz-adv-x="1226" unicode="ě"/><glyph d="M1083 1489q0 -39 -75 -33q-27 2 -41 2h-90q-29 0 -99 33t-104 33q-32 0 -94 -32t-115 -32h-23l-69 2l-33 -2h-16q-31 2 -31 26t13 38l28 24t36 33q98 96 142 96l25 -2h22q20 4 39 4h20l111 -4h137q18 -2 26 -7t18 -9q9 -4 30 -27q22 -24 38 -34t60 -55q45 -46 45 -54z M964 901q-40 0 -63 2l-82 6q-90 0 -180 -73q-51 -38 -63 -86t-13 -88q0 -98 90 -175q53 -43 148 -43q33 0 49 14t16 27t-8 23t-20 10h-58q-18 0 -34 16t-15 29v12l2 21v6q0 8 2 28t0 42l-2 47l2 43q1 11 11 19q10 7 22 17t53 11h23q16 0 49 -4l31 -2l90 -2l49 -2l141 4 q37 0 77 -33t40 -106q0 -20 -4 -66l-2 -31v-88l2 -30q2 -35 2 -103v-119l2 -90q0 -80 -37 -113t-88 -32h-47q-18 0 -45 5t-43 3l-131 -8q-23 -2 -42 0q-18 2 -38 2t-54 -2t-71 0q-264 4 -351 76q-10 8 -30 22t-43 32t-45 32q-22 16 -25 18q-53 42 -111 150t-78 172t-19 159 l14 127q1 82 25 161q24 81 60 131t102 116t119 92q52 26 172 60t329 34l96 -2q70 0 96 2l51 2q131 4 166 -63q19 -35 15 -125l-4 -92l8 -107q0 -47 -25 -69t-110 -23l-111 4h-62z" glyph-name="Gcircumflex" horiz-adv-x="1378" unicode="Ĝ"/><glyph d="M1067 1264q0 -39 -76 -33q-27 2 -41 2h-90q-29 1 -97 33t-103 32q-34 0 -96 -32t-115 -31h-23l-70 2l-32 -2h-17q-31 2 -31 26q0 37 64 80q111 111 156 111l24 -2h23q20 4 39 4h20l111 -4l94 2q70 0 90 -20q12 -8 31 -29t41 -37t60 -55t38 -47zM661 549q81 0 115 39 q18 20 18 52t-45 56q-46 24 -69 25l-86 4q-55 0 -78 -29t-22 -57q0 -55 43 -73t124 -17zM805 -176l-71 -8q-29 0 -59 2t-115 5t-152 13l-70 12q-28 4 -34 6l-8 4q-3 1 -8 4t-62 17q-56 13 -82 39t-27 46q0 20 7 79q7 60 6 76t-1 28t13 32q14 20 48 20t74 -15l90 -30 q63 -23 97 -25l67 -4l84 -8l76 8q70 6 83 17t13 24q0 33 -35 35h-10q-6 0 -11 -1t-39 -4t-53 -6q-18 -4 -46 3l-45 2q-70 3 -168 31q-211 61 -293 192q-60 94 -60 182t6 131t8 65q0 22 26 71t44 67l39 41q58 60 94 84q14 6 42 14t75 31q25 10 149 10q125 0 155 -5t67 -24 l35 -18q14 -7 38 -29t32 -22q10 0 14 24t6 27q16 35 74 35h8l114 -8h23l55 6q25 4 45 4q74 0 101 -39q23 -29 22 -59l-6 -129q-2 -17 2 -61t4 -64l2 -41q2 -41 -3 -77t-5 -63v-28q0 -14 2 -42t4 -65l2 -51l-4 -127v-45q0 -90 -8 -126q-8 -37 -24 -63t-40 -58 q-23 -32 -26 -38q-36 -44 -89 -66q-57 -24 -97 -26q-40 -3 -140 -8z" glyph-name="gcircumflex" horiz-adv-x="1345" unicode="ĝ"/><glyph d="M627 1683q29 -45 139 -45t141 39l17 21q12 12 28 12t28 -3t30 -1l55 2l47 4q31 2 31 -26v-13q-6 -43 -31 -78q-68 -96 -184 -122q-60 -15 -190 -15t-216 45q-51 25 -80 64q-49 67 -49 105t29 38q12 0 49 -4l31 -2l84 6q26 0 34 -12t7 -15zM964 901q-40 0 -63 2l-82 6 q-90 0 -180 -73q-51 -38 -63 -86t-13 -88q0 -98 90 -175q53 -43 148 -43q33 0 49 14t16 27t-8 23t-20 10h-58q-18 0 -34 16t-15 29v12l2 21v6q0 8 2 28t0 42l-2 47l2 43q1 11 11 19q10 7 22 17t53 11h23q16 0 49 -4l31 -2l90 -2l49 -2l141 4q37 0 77 -33t40 -106 q0 -20 -4 -66l-2 -31v-88l2 -30q2 -35 2 -103v-119l2 -90q0 -80 -37 -113t-88 -32h-47q-18 0 -45 5t-43 3l-131 -8q-23 -2 -42 0q-18 2 -38 2t-54 -2t-71 0q-264 4 -351 76q-10 8 -30 22t-43 32t-45 32q-22 16 -25 18q-53 42 -111 150t-78 172t-19 159l14 127q1 82 25 161 q24 81 60 131t102 116t119 92q52 26 172 60t329 34l96 -2q70 0 96 2l51 2q131 4 166 -63q19 -35 15 -125l-4 -92l8 -107q0 -47 -25 -69t-110 -23l-111 4h-62z" glyph-name="Gbreve" horiz-adv-x="1378" unicode="Ğ"/><glyph d="M530 1456q29 -45 139 -45t142 39l16 20q19 19 45 13t41 -4l56 2l47 4q31 2 31 -27v-12q-6 -43 -31 -78q-68 -96 -185 -123q-61 -14 -190 -14t-215 45q-51 25 -80 63q-49 68 -49 106t29 38q12 0 49 -4l31 -2l83 6q30 0 38 -19q3 -6 3 -8zM661 549q81 0 115 39q18 20 18 52 t-45 56q-46 24 -69 25l-86 4q-55 0 -78 -29t-22 -57q0 -55 43 -73t124 -17zM805 -176l-71 -8q-29 0 -59 2t-115 5t-152 13l-70 12q-28 4 -34 6l-8 4q-3 1 -8 4t-62 17q-56 13 -82 39t-27 46q0 20 7 79q7 60 6 76t-1 28t13 32q14 20 48 20t74 -15l90 -30q63 -23 97 -25l67 -4 l84 -8l76 8q70 6 83 17t13 24q0 33 -35 35h-10q-6 0 -11 -1t-39 -4t-53 -6q-18 -4 -46 3l-45 2q-70 3 -168 31q-211 61 -293 192q-60 94 -60 182t6 131t8 65q0 22 26 71t44 67l39 41q58 60 94 84q14 6 42 14t75 31q25 10 149 10q125 0 155 -5t67 -24l35 -18q14 -7 38 -29 t32 -22q10 0 14 24t6 27q16 35 74 35h8l114 -8h23l55 6q25 4 45 4q74 0 101 -39q23 -29 22 -59l-6 -129q-2 -17 2 -61t4 -64l2 -41q2 -41 -3 -77t-5 -63v-28q0 -14 2 -42t4 -65l2 -51l-4 -127v-45q0 -90 -8 -126q-8 -37 -24 -63t-40 -58q-23 -32 -26 -38q-36 -44 -89 -66 q-57 -24 -97 -26q-40 -3 -140 -8z" glyph-name="gbreve" horiz-adv-x="1345" unicode="ğ"/><glyph d="M1014 -119v-41l-2 -47q-4 -100 -84 -188q-62 -63 -82 -71t-29 -11q-9 -4 -18 -4h-27l-84 -2h-53q-31 0 -40 2t-9 19t33 38q33 22 64 55t31 44t-12 15t-72 5q-60 0 -61 45l2 20l-2 47v68q2 37 26 52t81 16l45 -4h45l117 -2q131 0 131 -56zM964 901q-40 0 -63 2l-82 6 q-90 0 -180 -73q-51 -38 -63 -86t-13 -88q0 -98 90 -175q53 -43 148 -43q33 0 49 14t16 27t-8 23t-20 10h-58q-18 0 -34 16t-15 29v12l2 21v6q0 8 2 28t0 42l-2 47l2 43q1 11 11 19q10 7 22 17t53 11h23q16 0 49 -4l31 -2l90 -2l49 -2l141 4q37 0 77 -33t40 -106 q0 -20 -4 -66l-2 -31v-88l2 -30q2 -35 2 -103v-119l2 -90q0 -80 -37 -113t-88 -32h-47q-18 0 -45 5t-43 3l-131 -8q-23 -2 -42 0q-18 2 -38 2t-54 -2t-71 0q-264 4 -351 76q-10 8 -30 22t-43 32t-45 32q-22 16 -25 18q-53 42 -111 150t-78 172t-19 159l14 127q1 82 25 161 q24 81 60 131t102 116t119 92q52 26 172 60t329 34l96 -2q70 0 96 2l51 2q131 4 166 -63q19 -35 15 -125l-4 -92l8 -107q0 -47 -25 -69t-110 -23l-111 4h-62z" glyph-name="Gcommaaccent" horiz-adv-x="1378" unicode="Ģ"/><glyph d="M838 1681q0 -18 -10 -29t-9 -26q-20 -40 -20 -49q0 -20 24 -29h60q20 0 40 -16t19 -72v-10l-8 -70l8 -88q0 -94 -61 -94q-72 0 -109 2h-143l-27 2q-26 0 -44 24t-17 52l6 149l-2 27v62l-2 22q0 23 10 38t17 34t25 45q17 26 18 28q1 1 9 11q17 20 60 20l37 -2l43 -2 q76 0 76 -29zM661 549q81 0 115 39q18 20 18 52t-45 56q-46 24 -69 25l-86 4q-55 0 -78 -29t-22 -57q0 -55 43 -73t124 -17zM805 -176l-71 -8q-29 0 -59 2t-115 5t-152 13l-70 12q-28 4 -34 6l-8 4q-3 1 -8 4t-62 17q-56 13 -82 39t-27 46q0 20 7 79q7 60 6 76t-1 28t13 32 q14 20 48 20t74 -15l90 -30q63 -23 97 -25l67 -4l84 -8l76 8q70 6 83 17t13 24q0 33 -35 35h-10q-6 0 -11 -1t-39 -4t-53 -6q-18 -4 -46 3l-45 2q-70 3 -168 31q-211 61 -293 192q-60 94 -60 182t6 131t8 65q0 22 26 71t44 67l39 41q58 60 94 84q14 6 42 14q28 9 73 29 t173 20t200 -37l35 -18q14 -7 38 -29t33 -22q10 0 13 28t6 33q16 35 74 35h8l114 -8h23l55 6q25 4 45 4q74 0 101 -39q23 -29 22 -69l-6 -129q-2 -17 2 -61t4 -64l2 -41q2 -41 -3 -77t-5 -63v-28q0 -14 2 -42t4 -65l2 -51l-4 -127v-45q0 -90 -8 -126q-8 -37 -24 -63t-40 -58 q-23 -32 -26 -38q-36 -44 -89 -66q-57 -24 -97 -26q-40 -3 -140 -8z" glyph-name="gcommaaccent" horiz-adv-x="1351" unicode="ģ"/><glyph d="M1147 1489q0 -39 -76 -33q-27 2 -41 2h-90q-29 0 -99 33t-103 33q-32 0 -94 -32t-116 -32h-22l-70 2l-33 -2h-16q-31 2 -31 27t14 37q38 33 50 43q110 110 155 110l25 -2h23q20 4 39 4h20l111 -4h137q18 -2 26 -7t18 -9q9 -4 30 -27q22 -24 40 -36t60 -56t43 -51zM76 408 v165q0 47 5 77t3 79l-2 51v144l2 108q0 14 2 21v49l-12 164q0 42 22 68t54 26h36l95 6q57 2 113 0t79 2l53 4q39 2 65 -19t25 -67l-12 -90v-16l6 -39v-13l-2 -88q0 -41 28 -57t95 -20l57 -5q55 -4 97 37q14 15 16 27t2 61v203q0 40 25 62t55 22l43 -2q4 0 20 -2t58 1t54 0 t30 -2t33 1h45l80 6q41 0 65 -29q20 -20 19 -55l-3 -35l-6 -41q0 -66 -2 -102l-2 -41q-2 -23 4 -89t0 -156t-6 -117v-95q4 -45 4 -85v-50l2 -71q0 -12 2 -35t0 -55t-2 -52v-108l6 -56v-8q-1 -40 -27 -68t-59 -28l-104 2l-68 -2l-94 4q-16 2 -48 0t-46 -2q-80 0 -82 84l2 68 v14l-4 49q-4 16 -2 43t2 35v37q0 66 -64 89q-11 3 -25 1t-17 -2l-58 2q-20 2 -44 -6l-27 -9q-22 0 -38 -14t-16 -41v-160l2 -86v-10q0 -94 -90 -96h-20q-37 4 -60 4h-153l-60 -2h-47q-108 0 -106 88l2 84v39l6 59q2 18 -2 68t-4 72z" glyph-name="Hcircumflex" horiz-adv-x="1503" unicode="Ĥ"/><glyph d="M813 1473q0 -39 -76 -33q-27 2 -41 2h-90q-29 0 -99 32t-103 33q-32 1 -94 -31t-115 -32h-23l-70 2l-32 -2h-17q-31 2 -30 26q0 27 13 38t58 51t83 71t65 31l24 -2h23q20 4 39 4h20l111 -4h137q37 -4 47 -19q12 -8 31 -29t41 -36q22 -16 60 -55t38 -47zM229 1376 q49 0 87 -5t59 -3l94 8q53 4 73 -28t19 -64l-2 -45l2 -35q0 -10 -3 -28t-2 -30t1 -28l-4 -53q0 -31 22 -31q12 0 34 16q21 16 43 25t40 19q39 22 105 22l28 -2q106 0 142 -14t51 -21q14 -8 18 -10t14 -8t22 -20q13 -13 29 -24q15 -11 49 -83t45 -138t13 -212l2 -90l2 -56 l-8 -53v-94l-6 -70v-14l12 -96l2 -25q6 -45 -22 -70t-72 -24l-108 8h-35l-103 -6q-158 0 -159 74v4l6 41v82l6 69v23l-8 55l2 141q0 66 -39 107q-18 22 -55 22t-49 -24t-20 -68q-7 -44 -5 -59l4 -39l2 -64q0 -14 -7 -87t1 -115l4 -31q-2 -25 3 -42t-3 -31t-9 -22 q-2 -10 -14 -16t-19 -10t-27 -4h-39h-218l-30 -2h-19l-24 -2q-55 0 -74 33q-20 41 -14 143l4 61q2 35 2 56l-2 51v10l-4 96q0 27 4 65t2 56l-8 172q-2 43 6 123v70l4 108l-2 103l-2 35l2 47v35l-2 34q0 35 18 59t78 23h61z" glyph-name="hcircumflex" horiz-adv-x="1275" unicode="ĥ"/><glyph d="M690 1679q35 0 44 -10t9 -47l-6 -59l4 -56q0 -42 -27 -47q-11 -2 -36 -2h-70l-110 -2l-74 6l-66 -4l-94 2l-55 -4l-107 6l-84 -4q-47 0 -47 29v2q0 8 4 20v50l2 34l-2 31v23q4 33 52 32l106 -4q43 0 63 3t72 1l164 -4l221 4h37zM629 1227v-33l-8 -135q-2 -27 4 -97 t6 -106l-10 -170v-176l6 -125v-55l-6 -92q0 -8 5 -53t6 -55t3 -9q2 0 2 -17v-18q-6 -49 -31 -70t-74 -20l-38 2h-33l-27 2h-98l-139 -6q-63 -4 -97 29q-18 18 -18 69l6 92q2 27 0 60t-2 57v78q0 6 5 85t0 133t-5 108v274l2 72l-2 65l-6 154q-2 49 25 76t73 26l125 -10 q49 0 86 6l39 4q115 10 158 -24t43 -121z" glyph-name="Imacron" horiz-adv-x="716" unicode="Ī"/><glyph d="M649 1454q35 0 44 -10t9 -47l-6 -60l4 -55q0 -42 -27 -47q-11 -2 -36 -2h-70l-110 -2l-74 6l-66 -4l-94 2l-55 -4l-107 6l-84 -4q-47 0 -47 29v2q0 8 4 20v49q0 17 3 35l-3 31v22q4 33 52 33l106 -4q44 0 64 3t71 1l164 -4l221 4h37zM334 0q-117 0 -191 -6h-10 q-18 4 -44 30t-26 101l7 131l-2 47q-4 90 2 137t6 154l-6 149l6 220v79q6 70 102 70l45 -2h33l96 -4l117 8h10q47 0 67 -27t21 -104l-4 -369v-32l-6 -111v-201l-2 -73l6 -84q0 -119 -119 -119h-12l-63 6h-33z" glyph-name="imacron" horiz-adv-x="632" unicode="ī"/><glyph d="M604 -123q47 0 47 -56t-35 -87q-51 -41 -177 -41t-177 40t-51 87q-1 47 31 93q32 45 42 55t23 30l-110 -4q-63 -4 -97 29q-18 18 -18 69l6 92q2 27 0 60t-2 57v78q0 6 5 85t0 133t-5 108v274l2 72l-2 65l-6 154q-2 49 25 76t73 26l125 -10q49 0 86 6l39 4q115 10 158 -24 t43 -121v-33l-8 -135q-2 -27 4 -97t6 -106l-10 -170v-176l6 -125v-55l-6 -92q0 -8 5 -53t6 -55t3 -9q2 0 2 -17v-18q-6 -49 -35 -73t-104 -13q-54 -53 -54 -84t14 -45t36 -14q20 0 49 10t61 10z" glyph-name="Iogonek" horiz-adv-x="716" unicode="Į"/><glyph d="M76 566q0 71 -4 136v84l2 68q2 37 2 109v79q6 70 102 70l45 -2h33l96 -4l117 8h10q47 0 67 -27t21 -104l-4 -369v-32l-6 -111v-201l-2 -73l6 -84q0 -113 -119 -113h-8q-6 -2 -14 -2q-55 -41 -55 -88q0 -23 14 -37q13 -14 33 -14t51 10t57 10q47 0 47 -56t-43 -90 q-42 -34 -162 -34t-178 41q-49 39 -49 91q0 51 40 101t40 58t-25 8h-26q-101 0 -101 127l7 131l-2 47q-4 90 2 141t6 122z" glyph-name="iogonek" horiz-adv-x="634" unicode="į"/><glyph d="M297 1466q-14 0 -39 -4l-22 -2l-50 4h-6q-16 4 -26 20t-11 27l2 23v20l5 52l2 28v8q0 10 6 19q20 27 63 27l90 -5h37l70 -2l69 2q45 0 65 -16t19 -89q0 -73 -14 -88q-15 -16 -31 -24t-63 -8l-43 4h-43l-66 4h-14zM629 1227v-33l-8 -135q-2 -27 4 -97t6 -106l-10 -170 v-176l6 -125v-55l-6 -92q0 -8 5 -53t6 -55t3 -9q2 0 2 -17v-18q-6 -49 -31 -70t-74 -20l-38 2h-33l-27 2h-98l-139 -6q-63 -4 -97 29q-18 18 -18 69l6 92q2 27 0 60t-2 57v78q0 6 5 85t0 133t-5 108v274l2 72l-2 65l-6 154q-2 49 25 76t73 26l125 -10q49 0 86 6l39 4 q115 10 158 -24t43 -121z" glyph-name="Idotaccent" horiz-adv-x="716" unicode="İ"/><glyph d="M334 0q-117 0 -191 -6h-10q-18 4 -44 30t-26 101l7 131l-2 47q-4 90 2 137t6 154l-6 149l6 220v79q6 70 102 70l45 -2h33l96 -4l117 8h10q47 0 67 -27t21 -104l-4 -369v-32l-6 -111v-201l-2 -73l6 -84q0 -119 -119 -119h-12l-63 6h-33z" glyph-name="dotlessi" horiz-adv-x="632" unicode="ı"/><glyph d="M809 1489q0 -39 -76 -33q-27 2 -41 2h-90q-29 0 -99 33t-103 33q-32 0 -94 -32t-116 -32h-22l-70 2l-32 -2h-17q-31 2 -31 26t20 43q19 19 44 38q110 110 156 110l24 -2h23q20 4 39 4h20l111 -4h137q18 -2 26 -7t18 -9q9 -4 30 -27q22 -24 40 -36t60 -56t43 -51z M252 1159l-10 129q0 82 105 82q26 0 70 -1t124 1l65 2q29 -2 66 1q38 3 70 -21t32 -76l-8 -254l4 -74v-180q0 -14 -4 -45t-2 -53t10 -183v-77q-4 -115 -26 -189q-22 -75 -90 -151q-70 -76 -234 -76l-84 6l-45 -2h-74l-100 -8q-133 0 -133 143l6 152l-6 108q0 55 24 88 q25 33 43 38t35 5l72 -12h14q6 0 22 7q58 24 58 134q0 10 -8 168v33q4 33 4 68v36q0 16 -4 52t0 87q4 50 4 62z" glyph-name="Jcircumflex" horiz-adv-x="825" unicode="Ĵ"/><glyph d="M1018 -119v-41l-2 -47q-4 -100 -84 -188q-62 -63 -82 -69t-30 -12q-10 -5 -17 -5h-27l-84 -2h-53q-31 0 -40 2t-9 19t33 38q33 22 64 55t31 44t-12 15q-11 4 -72 5q-61 0 -61 45l2 20l-2 47v68q2 37 26 52t81 16l45 -4h45l117 -2q131 0 131 -56zM88 993v45q0 109 -7 142 q-7 34 -7 80t22 75q23 29 62 29l57 -2h72q20 0 70 4t126 2t99 -18q25 -23 24 -60v-10l-6 -37v-65l-4 -97q0 -80 39 -80q20 0 54 40t52 73q19 33 23 38q8 8 14 13q7 5 23 34q16 28 25 41q10 14 14 22l13 25q32 61 56 73q9 4 31 8t215 4h131l68 6q52 0 72 -12t20 -58t-78 -161 q-12 -16 -30 -42q-18 -25 -38 -51t-52 -79t-46 -72l-82 -119q-20 -35 -6 -61q20 -29 43 -56t61 -96q39 -69 51 -82t21 -26l37 -43q66 -89 82 -144q5 -14 23 -34t27 -32t41 -49q32 -36 32 -66q0 -31 -18 -63t-70 -32h-64q-68 0 -129 6h-75l-117 -8q-66 0 -82 8 q-31 16 -86 115l-29 49q-4 6 -7 13q-9 22 -21 34q-11 13 -20 25t-20 24t-45 52t-44 47t-36 7t-42 -30q-23 -37 -23 -88v-66l8 -108q0 -46 -15 -64t-93 -22h-33l-84 6h-131l-78 -6q-37 0 -55 10q-41 23 -41 98v25l8 139l-2 96v146q-6 160 -6 162l4 100q2 100 2 223z" glyph-name="Kcommaaccent" horiz-adv-x="1501" unicode="Ķ"/><glyph d="M436 -466q0 19 41 50t62 62l16 26q0 14 -12 18q-13 4 -67 5q-54 0 -54 45l2 20l-2 47v68q0 33 16 47q27 20 80 21l41 -4h41l107 -2q71 1 97 -17t25 -35t-4 -45l-2 -47v-21l-4 -28q0 -12 -9 -32t-18 -42q-10 -22 -50 -72t-78 -67l-33 -12h-25l-76 -2h-49q-45 -2 -45 17z M565 862q0 -59 34 -59t68 45t50 135t55 113q20 10 51 10h35q31 0 45 2l47 6l62 -8q25 -2 49 -2h22l33 4l33 2q35 0 57 -28t22 -52t-16 -74l-28 -75q-2 -7 -10 -25t-29 -74t-38 -81t-21 -31t-16 -23q-13 -17 -21 -33q-29 -43 -29 -67t28 -60q28 -35 31 -41l56 -84 q18 -29 28 -53l13 -30q12 -33 58 -103t46 -98q0 -88 -123 -82l-164 4q-67 2 -109 -4t-56 -6q-43 0 -77 49q-33 49 -71 100l-47 82q-14 27 -37 27q-43 0 -43 -47v-17l2 -39v-30l2 -21v-8l2 -16q1 -30 -23 -52t-71 -22l-33 2l-102 4l-47 -2l-62 -4l-28 -2h-25q-53 0 -78 27 t-24 71l4 96q0 23 -2 35t0 45l2 56q0 55 -5 108t3 100l2 31l4 119q0 2 -6 168v37l12 192v60l-6 98q0 55 12 86q23 51 92 51l96 -6l109 4q69 6 107 4t60 -26t21 -121v-12l-6 -66l4 -70l2 -80l-6 -106v-33z" glyph-name="kcommaaccent" horiz-adv-x="1247" unicode="ķ"/><glyph d="M657 1657l68 2h20q49 -2 50 -47q1 -25 -13 -35q-14 -11 -40 -19t-50 -15t-56 -19t-46 -15l-86 -24q-16 -3 -58 -21t-84 -18l-32 -2l-49 2l-54 -2q-33 0 -32 24q0 24 73 141q31 46 70 48h12q115 -6 164 -2l57 2h86zM604 1051l-8 -213v-19l2 -55v-31l-2 -90q0 -117 88 -117 l96 6l51 -6l66 4q31 0 51 -32t23 -72v-25q-4 -111 -4 -163l6 -115q0 -53 -26 -88t-77 -35l-88 6h-24l-238 -6l-82 2h-106q-6 0 -96 -8h-25q-98 7 -119 57q-12 29 -12 65t2 48l2 33v225l-10 203v41l2 86v30l6 136v36l-4 148q0 174 20 220t107 46l127 -6l63 6q41 4 58 4 q93 0 121 -35t30 -96v-190z" glyph-name="Lacute" horiz-adv-x="976" unicode="Ĺ"/><glyph d="M690 1591q0 -25 -13 -35t-39 -18t-50 -15q-25 -7 -57 -19t-46 -15l-86 -25q-2 0 -65 -22t-96 -21l-62 4l-53 -2q-33 0 -33 25q0 14 32 70t42 70q32 48 69 48h13q115 -6 164 -2l57 2h86l68 2h20q49 -2 49 -47zM72 1207q-6 46 -6 78q0 31 28 59t58 28h96l69 2l70 -6l88 8 q61 0 80 -28t18 -68l-6 -82v-108l6 -132l-10 -184l8 -158l-6 -61l6 -119l-2 -22v-8l-2 -58v-39q0 -55 7 -101t8 -56l2 -46q2 -28 -14 -60t-35 -41q-20 -9 -74 -9h-10l-35 2l-29 2l-47 -2l-107 -6h-32q-138 0 -138 131q0 2 7 131l2 39q4 88 2 168l-2 125l2 41l2 73l2 31v19 l-6 104v74l4 196q2 37 -4 83z" glyph-name="lacute" horiz-adv-x="649" unicode="ĺ"/><glyph d="M758 -119v-41l-2 -47q-4 -100 -84 -188q-66 -63 -84 -71t-27 -11q-9 -4 -18 -4h-27l-84 -2h-53q-31 0 -40 2t-9 19t33 37q33 21 64 55t31 45t-12 15t-72 5q-60 0 -61 45l2 20l-2 47v68q2 37 26 52t81 16l45 -4h45l117 -2q131 0 131 -56zM604 1051l-8 -213v-19l2 -55v-31 l-2 -90q0 -117 88 -117l96 6l51 -6l66 4q31 0 51 -32t23 -72v-25q-4 -111 -4 -163l6 -115q0 -53 -26 -88t-77 -35l-88 6h-24l-238 -6l-82 2h-106q-6 0 -96 -8h-25q-98 7 -119 57q-12 29 -12 65t2 48l2 33v225l-10 203v41l2 86v30l6 136v36l-4 148q0 174 20 220t107 46 l127 -6l63 6q41 4 58 4q93 0 121 -35t30 -96v-190z" glyph-name="Lcommaaccent" horiz-adv-x="976" unicode="Ļ"/><glyph d="M137 -466q0 19 41 50t62 62l16 26q0 14 -12 18t-66 5q-54 0 -55 45l2 20l-2 47v68q0 33 16 47q27 20 80 21l41 -4h41l107 -2q70 1 96 -17t26 -35q-1 -17 -4 -45l-2 -47v-21l-4 -28q0 -12 -9 -32t-18 -42t-49 -72t-79 -67l-33 -12h-25l-76 -2h-49q-45 -2 -45 17zM72 1207 q-6 46 -6 78q0 31 28 59t58 28h96l69 2l70 -6l88 8q61 0 80 -28t18 -68l-6 -82v-108l6 -132l-10 -184l8 -158l-6 -61l6 -119l-2 -22v-8l-2 -58v-39q0 -55 7 -101t8 -56l2 -46q2 -28 -14 -60t-35 -41q-20 -9 -74 -9h-10l-35 2l-29 2l-47 -2l-107 -6h-32q-138 0 -138 131 q0 2 7 131l2 39q4 88 2 168l-2 125l2 41l2 73l2 31v19l-6 104v74l4 196q2 37 -4 83z" glyph-name="lcommaaccent" horiz-adv-x="649" unicode="ļ"/><glyph d="M774 827q0 10 8 26t10 28q3 12 12 30t9 37t-25 27h-59q-18 2 -28 5q-9 3 -20 26t-11 67v10l8 78l-8 99q0 104 61 104l109 -2h143q47 -2 68 -28t20 -60l-6 -166l2 -29v-16l-2 -27q0 -27 2 -26l2 -25q0 -39 -20 -59q-13 -20 -13 -33q-4 -10 -27 -50t-39 -46t-40 -6l-37 2 l-43 2q-59 0 -67 11q-9 11 -9 21zM604 1051l-8 -213v-19l2 -55v-31l-2 -90q0 -117 88 -117l96 6l51 -6l66 4q31 0 51 -32t23 -72v-25q-4 -111 -4 -163l6 -115q0 -53 -26 -88t-77 -35l-88 6h-24l-238 -6l-82 2h-106q-6 0 -96 -8h-25q-98 7 -119 57q-12 29 -12 65t2 48l2 33 v225l-10 203v41l2 86v30l6 136v36l-4 148q0 174 20 220t107 46l127 -6l63 6q41 4 58 4q93 0 121 -35t30 -96v-190z" glyph-name="Lcaron" horiz-adv-x="976" unicode="Ľ"/><glyph d="M737 838q-1 10 9 28t10 33q20 40 20 59t-24 27h-60q-18 0 -39 17t-20 81v11l8 77l-8 99q0 104 61 104l109 -2h143q47 -2 68 -28t20 -60l-6 -166l2 -28v-17l-2 -26q0 -27 2 -27l2 -25q0 -17 -11 -39t-19 -46t-31 -60q-21 -37 -37 -43t-41 -6l-37 2l-43 2q-59 0 -67 11 q-9 12 -9 22zM72 1207q-6 46 -6 78q0 31 28 59t58 28h96l69 2l70 -6l88 8q61 0 80 -28t18 -68l-6 -82v-108l6 -132l-10 -184l8 -158l-6 -61l6 -119l-2 -22v-8l-2 -58v-39q0 -55 7 -101t8 -56l2 -46q2 -28 -14 -60t-35 -41q-20 -9 -74 -9h-10l-35 2l-29 2l-47 -2l-107 -6h-32 q-138 0 -138 131q0 2 7 131l2 39q4 88 2 168l-2 125l2 41l2 73l2 31v19l-6 104v74l4 196q2 37 -4 83z" glyph-name="lcaron" horiz-adv-x="942" unicode="ľ"/><glyph d="M477 1372q96 0 127 -49q12 -16 17 -61v-201q-3 -5 -3 -19t13 -14l33 23q30 20 52 33t58 46t62 33q31 0 30 -43q0 -16 -2 -24l-4 -33q6 -63 6 -79t-5 -30t-44 -34t-84 -60l-45 -31l-26 -22q-38 -25 -44 -37t-6 -128t86 -116q18 0 101 6l92 -4q39 0 76 -39q18 -17 18 -83 t-6 -140l12 -170q-4 -24 -25 -60t-69 -36h-76q-35 2 -71 2t-106 -5t-234 3h-23l-158 -6q-131 0 -131 123q0 37 2 57v229q-2 27 -14 27q-14 -10 -41 -31q-47 -43 -63 -43q-23 0 -27 47q0 51 2 91l-4 47q0 20 12 39q13 16 57 38t55 39q11 16 11 50l4 67q4 24 4 80v88 q2 25 2 39l-4 109l4 110q0 164 101 168l170 -10q8 0 42 7t66 7z" glyph-name="Lslash" horiz-adv-x="995" unicode="Ł"/><glyph d="M86 1266q0 53 43 90q21 16 33 16t20 -2l111 2h37l102 -4l33 4q37 4 47 4q41 0 60 -32t20 -60l-8 -168q0 -37 2 -47v-80q0 -16 12 -16q18 12 57 37q35 27 47 26q23 0 23 -24l-4 -68l4 -59q0 -29 -12 -41q-13 -12 -71 -49t-58 -68l4 -109q0 -6 -4 -92l6 -110l-4 -94 l18 -216q0 -106 -110 -106h-76l-205 -8q-57 0 -98 35q-31 31 -31 88t6 196l2 74q2 27 2 57t-14 31l-41 -31q-45 -33 -64 -32q-18 0 -18 20v16l4 62q0 20 -2 47v16q0 19 8 27t47 37t54 37q28 23 28 43t-2 37v45l-4 90l2 114v66l2 88q0 25 -4 53l-4 50v8z" glyph-name="lslash" horiz-adv-x="681" unicode="ł"/><glyph d="M678 1669h12q115 -6 164 -2l57 2h86l68 2h20q49 -2 50 -47q1 -25 -13 -35t-40 -18q-26 -7 -50 -15t-56 -19t-46 -15l-86 -25q-16 -3 -61 -21t-81 -18l-32 -2l-49 2l-54 -2q-33 0 -32 25q-1 13 31 69t42 71q32 48 70 48zM74 84q0 32 8 110q8 76 8 177l-2 231q0 95 8 283 l8 176q2 37 -9 94t-11 92q0 80 32 108t138 15q88 -4 143 1t110 5t80 -18t50 -55t41 -65t24 -40l54 -76q26 -39 28 -50t37 -58l49 -66q10 -14 33 -14q29 0 29 41v29l-2 14v149l-6 97v14q3 94 106 94h35q25 0 70 -4l30 -2h33l33 2q41 2 74 2h22q131 0 131 -135l-12 -199v-43 l4 -100l-2 -51v-35l-8 -109q0 -6 6 -86l4 -94v-10l-4 -197v-114l2 -43l8 -66v-20q-2 -33 -29 -56q-31 -18 -55 -18h-4l-37 2l-33 4h-38l-140 -6h-16q-74 0 -95 11t-47 42q-26 30 -44 48q-18 17 -62 87q-45 70 -74 103t-38 51t-23 37l-14 18q-6 8 -22 34t-46 28 q-15 0 -25 -27t-6 -76l4 -61q0 -14 -2 -60l-2 -32v-52l8 -79q0 -68 -90 -68l-209 4l-161 -2q-38 0 -60 26t-22 58z" glyph-name="Nacute" horiz-adv-x="1531" unicode="Ń"/><glyph d="M1022 1399q0 -25 -15 -36t-63 -26q-49 -13 -81 -25t-46 -16l-86 -24q-2 0 -64 -22t-98 -21l-61 4l-53 -2q-33 0 -33 24q0 13 32 69t42 72q32 47 69 48h13q115 -6 163 -2l58 2h86l67 2h21q49 -2 49 -47zM84 684q0 51 -8 125t-10 104l-3 35q-4 82 46 135q30 35 114 31 l45 -2q20 0 38 -4t48 -2l64 4q16 2 25 -1t14 -3h16q48 0 57 -39l9 -41q4 -23 10 -25h2q6 0 29 26t28 30q29 25 109 51t112 27l74 -19h33q26 0 46 -3t71 -36t71 -57t55 -83t36 -72q2 -13 9 -57t7 -108v-65l8 -96l4 -125q0 -6 -1 -16t-2 -32q-1 -24 -6 -95t-3 -93l8 -88 q6 -55 -27 -84q-16 -16 -44 -16l-38 2l-55 2l-88 -6l-90 8l-76 -2q-47 -2 -76 26q-18 24 -18 46t4 43l6 49q4 40 4 135v24q4 41 4 51t-4 19l-4 27q-2 14 -2 46t-3 40t-5 25t-14 41t-33 36q-25 12 -35 12q-51 0 -63 -69l-4 -41l-5 -25q-6 -49 -6 -57l8 -80l-6 -137v-45 l17 -92q0 -35 -28 -55t-60 -19l-56 6l-67 6q-12 2 -35 -2t-33 -4h-20q-16 2 -45 2l-115 -2q-25 0 -45 25q-18 25 -19 57v27l11 132l6 97v70l-6 122l10 134v20z" glyph-name="nacute" horiz-adv-x="1306" unicode="ń"/><glyph d="M829 -481h-26l-84 -2h-53q-31 0 -40 2t-10 18t33 39q33 22 65 55t30 44q-1 11 -12 15q-12 4 -72 5q-60 0 -60 45l2 20l-2 47v68q2 37 26 52t81 16l45 -4h45l116 -2q133 0 131 -56v-41l-2 -47q-4 -103 -84 -188q-62 -63 -82 -71t-28 -11q-8 -4 -19 -4zM74 84q0 32 8 110 q8 76 8 177l-2 231q0 95 8 283l8 176q2 37 -9 94t-11 92q0 80 32 108t138 15q88 -4 143 1t110 5t80 -18t50 -55t41 -65t24 -40l54 -76q26 -39 28 -50t37 -58l49 -66q10 -14 33 -14q29 0 29 41v29l-2 14v149l-6 97v14q3 94 106 94h35q25 0 70 -4l30 -2h33l33 2q41 2 74 2h22 q131 0 131 -135l-12 -199v-43l4 -100l-2 -51v-35l-8 -109q0 -6 6 -86l4 -94v-10l-4 -197v-114l2 -43l8 -66v-20q-2 -33 -29 -56q-31 -18 -55 -18h-4l-37 2l-33 4h-38l-140 -6h-16q-74 0 -95 11t-47 42q-26 30 -44 48q-18 17 -62 87q-45 70 -74 103t-38 51t-23 37l-14 18 q-6 8 -22 34t-46 28q-15 0 -25 -27t-6 -76l4 -61q0 -14 -2 -60l-2 -32v-52l8 -79q0 -68 -90 -68l-209 4l-161 -2q-38 0 -60 26t-22 58z" glyph-name="Ncommaaccent" horiz-adv-x="1531" unicode="Ņ"/><glyph d="M465 -466q0 19 41 50t61 62l17 26q0 14 -12 18t-56 5q-66 0 -65 45l2 20l-2 47v68q0 33 16 47q27 20 80 21l41 -4h41l106 -2q70 1 97 -17t26 -35t-4 -45l-2 -47v-21l-4 -28q0 -16 -18 -56t-59 -90q-40 -50 -79 -67l-33 -12h-24l-76 -2h-49q-45 -2 -45 17zM84 684 q0 51 -8 125t-10 104l-3 35q-4 82 46 135q30 35 114 31l45 -2q20 0 38 -4t48 -2l64 4q16 2 25 -1t14 -3h16q48 0 57 -39l9 -41q4 -23 10 -25h2q6 0 29 26t28 30q29 25 109 51t112 27l74 -19h33q26 0 46 -3t71 -36t71 -57t55 -83t36 -72q2 -13 9 -57t7 -108v-65l8 -96l4 -125 q0 -6 -1 -16t-2 -32q-1 -24 -6 -95t-3 -93l8 -88q6 -55 -27 -84q-16 -16 -44 -16l-38 2l-55 2l-88 -6l-90 8l-76 -2q-47 -2 -76 26q-18 24 -18 46t4 43l6 49q4 40 4 135v24q4 41 4 51t-4 19l-4 27q-2 14 -2 46t-3 40t-5 25t-14 41t-33 36q-25 12 -35 12q-51 0 -63 -69 l-4 -41l-5 -25q-6 -49 -6 -57l8 -80l-6 -137v-45l17 -92q0 -35 -28 -55t-60 -19l-56 6l-67 6q-12 2 -35 -2t-33 -4h-20q-16 2 -45 2l-115 -2q-25 0 -45 25q-18 25 -19 57v27l11 132l6 97v70l-6 122l10 134v20z" glyph-name="ncommaaccent" horiz-adv-x="1306" unicode="ņ"/><glyph d="M520 1675h23q53 1 115 -31t94 -32q33 0 103 32t99 33h90q14 0 41 2q76 6 76 -32q0 -8 -45 -55t-60 -56q-16 -8 -34 -28t-36 -33q-25 -17 -85 -17l-94 2l-111 -4h-20q-18 0 -39 4h-23l-24 -2q-45 0 -156 111q-47 35 -55 51t-8 29q0 25 30 26h17l33 -2q17 -2 39 0t30 2z M74 84q0 32 8 110q8 76 8 177l-2 231q0 95 8 283l8 176q2 37 -9 94t-11 92q0 80 32 108t138 15q88 -4 143 1t110 5t80 -18t50 -55t41 -65t24 -40l54 -76q26 -39 28 -50t37 -58l49 -66q10 -14 33 -14q29 0 29 41v29l-2 14v149l-6 97v14q3 94 106 94h35q25 0 70 -4l30 -2h33 l33 2q41 2 74 2h22q131 0 131 -135l-12 -199v-43l4 -100l-2 -51v-35l-8 -109q0 -6 6 -86l4 -94v-10l-4 -197v-114l2 -43l8 -66v-20q-2 -33 -29 -56q-31 -18 -55 -18h-4l-37 2l-33 4h-38l-140 -6h-16q-74 0 -95 11t-47 42q-26 30 -44 48q-18 17 -62 87q-45 70 -74 103t-38 51 t-23 37l-14 18q-6 8 -22 34t-46 28q-15 0 -25 -27t-6 -76l4 -61q0 -14 -2 -60l-2 -32v-52l8 -79q0 -68 -90 -68l-209 4l-161 -2q-38 0 -60 26t-22 58z" glyph-name="Ncaron" horiz-adv-x="1531" unicode="Ň"/><glyph d="M408 1450h22q53 0 115 -32t93 -32t103 33t101 33h90q14 0 41 2q74 5 76 -33q0 -8 -46 -55t-61 -55q-14 -8 -34 -30t-31 -28t-22 -13t-67 -7l-94 2l-110 -4h-21q-18 0 -39 4h-22l-25 -2q-45 0 -155 110q-8 7 -22 19l-28 24t-14 37t31 27h16l33 -2q18 -2 40 0t30 2zM84 684 q0 51 -8 125t-10 104l-3 35q-4 82 46 135q30 35 114 31l45 -2q20 0 38 -4t48 -2l64 4q16 2 25 -1t14 -3h16q48 0 57 -39l9 -41q4 -23 10 -25h2q6 0 29 26t28 30q29 25 109 51t112 27l74 -19h33q26 0 46 -3t71 -36t71 -57t55 -83t36 -72q2 -13 9 -57t7 -108v-65l8 -96l4 -125 q0 -6 -1 -16t-2 -32q-1 -24 -6 -95t-3 -93l8 -88q6 -55 -27 -84q-16 -16 -44 -16l-38 2l-55 2l-88 -6l-90 8l-76 -2q-47 -2 -76 26q-18 24 -18 46t4 43l6 49q4 40 4 135v24q4 41 4 51t-4 19l-4 27q-2 14 -2 46t-3 40t-5 25t-14 41t-33 36q-25 12 -35 12q-51 0 -63 -69 l-4 -41l-5 -25q-6 -49 -6 -57l8 -80l-6 -137v-45l17 -92q0 -35 -28 -55t-60 -19l-56 6l-67 6q-12 2 -35 -2t-33 -4h-20q-16 2 -45 2l-115 -2q-25 0 -45 25q-18 25 -19 57v27l11 132l6 97v70l-6 122l10 134v20z" glyph-name="ncaron" horiz-adv-x="1306" unicode="ň"/><glyph d="M1120 1679q35 0 44 -10t10 -47l-7 -59l4 -56q0 -42 -27 -47q-11 -2 -36 -2h-70l-110 -2l-74 6l-66 -4l-94 2l-55 -4l-107 6l-83 -4q-47 0 -48 29v2q0 8 5 20v50l2 34l-2 31v23q4 33 51 32l106 -4q43 0 63 3t72 1l164 -4l221 4h37zM1034 680q0 60 -28 110t-70 72 q-94 49 -147 49t-87 -18q-36 -17 -40 -21t-28 -12t-45 -27q-19 -18 -41 -69t-22 -92q0 -42 31 -88t43 -60t51 -38t71 -23q32 0 101 6l35 2q39 0 70 31q106 95 106 178zM840 -33q-289 1 -421 63t-212 158q-29 37 -78 95t-57 70t-9 25q-2 14 -23 87q-20 71 -20 141t13 175 t23 130q9 25 20 45q10 20 22 47t25 52q12 25 20 42t22 32t29 27q16 10 78 68t97 76q176 95 401 99q164 0 282 -49q24 -10 76 -33t102 -43q48 -20 68 -34q20 -15 48 -46q125 -152 155 -223q55 -129 55 -256l-10 -107q-2 -20 -3 -62t-9 -67t-30 -73t-46 -114q-25 -67 -51 -92 q-26 -26 -102 -80q-77 -54 -95 -62t-58 -22q-40 -13 -103 -36q-115 -33 -209 -33z" glyph-name="Omacron" horiz-adv-x="1579" unicode="Ō"/><glyph d="M1012 1454q35 0 44 -10t9 -47l-6 -60l4 -55q0 -42 -28 -47q-11 -2 -36 -2h-69l-111 -2l-74 6l-65 -4l-94 2l-56 -4l-106 6l-84 -4q-47 0 -47 29v2q0 8 4 20v49l2 35l-2 31v22q4 33 51 33l107 -4q43 0 63 3t72 1l164 -4l221 4h37zM862 545q0 51 -48 93t-101 44l-31 -2 l-47 2q-1 0 -23 -6t-39 -21q-66 -51 -65 -106q0 -35 17 -62t35 -35q90 -36 120 -36l31 6l32 4q39 8 60 21q19 13 39 45t20 53zM28 456q-14 42 -14 89t9 82q37 154 75 211q98 147 181 190q94 54 140 68q47 14 131 26t147 12t120 -12q57 -14 79 -19t36 -5q34 0 72 -25 q115 -68 157 -115l76 -84q30 -33 34 -56q7 -35 25 -57q17 -21 33 -90q33 -142 4 -231l-16 -55q-25 -83 -53 -121t-45 -67q-18 -29 -31 -41q-4 -8 -6 -10t-105 -76l-67 -50q-8 -6 -95 -28t-147 -23l-57 -2l-56 2q-88 0 -100 2l-51 9q-68 10 -150 50t-98 54l-88 88 q-85 82 -119 179q-6 17 -6 40q-1 23 -15 65z" glyph-name="omacron" horiz-adv-x="1359" unicode="ō"/></font>
</defs>
</svg>
